M48
;GenerationSoftware,Autodesk,EAGLE,9.6.2*%
;CreationDate,2022-12-09T05:30:41Z*%
FMAT,2
ICI,OFF
METRIC,TZ,000.000
T9C0.305
T8C0.889
T7C0.920
T6C1.000
T5C1.400
T4C2.300
T3C2.500
T2C3.000
T1C3.175
%
G90
M71
T1
X3810Y96520
X3810Y3810
X123190Y3810
X123190Y97790
T2
X26670Y94615
X26670Y37465
X102870Y94615
X102870Y37465
T3
X116760Y18400
X106760Y18400
X20240Y18400
X10240Y18400
T4
X111930Y76940
X111930Y90080
T5
X93880Y21550
X93880Y16550
X81380Y16550
X81380Y21550
X46890Y21550
X46890Y16550
X34390Y16550
X34390Y21550
T6
X102870Y64770
X102870Y62230
X102870Y59690
X102870Y57150
X102870Y54610
X102870Y52070
X102870Y49530
X102870Y46990
X102870Y44450
X102870Y41910
X26670Y90170
X26670Y87630
X26670Y85090
X26670Y82550
X26670Y80010
X26670Y77470
X26670Y74930
X26670Y72390
X26670Y69850
X26670Y67310
X26670Y64770
X26670Y62230
X26670Y59690
X26670Y57150
X26670Y54610
X26670Y52070
X26670Y49530
X26670Y46990
X26670Y44450
X26670Y41910
X102870Y67310
X102870Y69850
X102870Y72390
X102870Y74930
X102870Y77470
X102870Y80010
X102870Y82550
X102870Y85090
X12740Y25400
X15240Y25400
X17740Y25400
X109260Y25400
X111760Y25400
X114260Y25400
X102870Y87630
X102870Y90170
T7
X109220Y87010
X109220Y84510
X109220Y82510
X109220Y80010
T8
X75920Y63686
X78460Y63686
X75920Y61146
X78460Y61146
X75920Y58606
X78460Y58606
X75920Y56066
X78460Y56066
X75920Y53526
X78460Y53526
X75920Y50986
X78460Y50986
X75920Y48446
X78460Y48446
X75920Y45906
X78460Y45906
X75920Y43366
X78460Y43366
X78460Y66226
X75920Y66226
X78460Y68766
X75920Y68766
X78460Y71306
X75920Y71306
X78460Y73846
X75920Y73846
X78460Y76386
X75920Y76386
X78460Y78926
X75920Y78926
X78460Y81466
X75920Y81466
X78460Y84006
X75920Y84006
X78460Y86546
X75920Y86546
X53060Y43366
X50520Y43366
X53060Y45906
X50520Y45906
X53060Y48446
X50520Y48446
X53060Y50986
X50520Y50986
X53060Y53526
X50520Y53526
X53060Y56066
X50520Y56066
X53060Y58606
X50520Y58606
X53060Y61146
X50520Y61146
X53060Y63686
X50520Y63686
X53060Y66226
X50520Y66226
X53060Y68766
X50520Y68766
X53060Y71306
X50520Y71306
X53060Y73846
X50520Y73846
X53060Y76386
X50520Y76386
X53060Y78926
X50520Y78926
X53060Y81466
X50520Y81466
X53060Y84006
X50520Y84006
X53060Y86546
X50520Y86546
T9
X55880Y22606
X90424Y33020
X88646Y96520
X73914Y96520
X59182Y96520
X42672Y95504
X109220Y27686
X12700Y26924
X115570Y64770
X115570Y62230
X115570Y60198
X111760Y60198
X111760Y62230
X111760Y64770
M30