G04 EAGLE Gerber RS-274X export*
G75*
%MOMM*%
%FSLAX34Y34*%
%LPD*%
%INCopper Layer 2*%
%IPPOS*%
%AMOC8*
5,1,8,0,0,1.08239X$1,22.5*%
G01*
%ADD10C,1.244600*%
%ADD11C,1.288000*%
%ADD12C,3.220000*%
%ADD13C,1.400000*%
%ADD14C,1.960000*%
%ADD15C,4.016000*%
%ADD16C,4.191000*%
%ADD17C,0.609600*%

G36*
X1264955Y2544D02*
X1264955Y2544D01*
X1264989Y2542D01*
X1265178Y2564D01*
X1265369Y2581D01*
X1265402Y2590D01*
X1265436Y2594D01*
X1265619Y2649D01*
X1265803Y2699D01*
X1265834Y2714D01*
X1265867Y2724D01*
X1266038Y2811D01*
X1266210Y2893D01*
X1266238Y2913D01*
X1266269Y2928D01*
X1266421Y3044D01*
X1266576Y3155D01*
X1266600Y3180D01*
X1266627Y3200D01*
X1266756Y3340D01*
X1266890Y3477D01*
X1266909Y3506D01*
X1266933Y3532D01*
X1267035Y3693D01*
X1267142Y3850D01*
X1267156Y3882D01*
X1267174Y3911D01*
X1267247Y4088D01*
X1267324Y4262D01*
X1267332Y4296D01*
X1267345Y4328D01*
X1267385Y4515D01*
X1267431Y4700D01*
X1267433Y4734D01*
X1267440Y4768D01*
X1267459Y5080D01*
X1267459Y1010920D01*
X1267456Y1010955D01*
X1267458Y1010989D01*
X1267436Y1011178D01*
X1267419Y1011369D01*
X1267410Y1011402D01*
X1267406Y1011436D01*
X1267351Y1011619D01*
X1267301Y1011803D01*
X1267286Y1011834D01*
X1267276Y1011867D01*
X1267189Y1012038D01*
X1267107Y1012210D01*
X1267087Y1012238D01*
X1267072Y1012269D01*
X1266956Y1012421D01*
X1266845Y1012576D01*
X1266820Y1012600D01*
X1266800Y1012627D01*
X1266660Y1012756D01*
X1266523Y1012890D01*
X1266494Y1012909D01*
X1266468Y1012933D01*
X1266307Y1013035D01*
X1266150Y1013142D01*
X1266118Y1013156D01*
X1266089Y1013174D01*
X1265912Y1013247D01*
X1265738Y1013324D01*
X1265704Y1013332D01*
X1265672Y1013345D01*
X1265485Y1013385D01*
X1265300Y1013431D01*
X1265266Y1013433D01*
X1265232Y1013440D01*
X1264920Y1013459D01*
X5080Y1013459D01*
X5045Y1013456D01*
X5011Y1013458D01*
X4822Y1013436D01*
X4631Y1013419D01*
X4598Y1013410D01*
X4564Y1013406D01*
X4381Y1013351D01*
X4197Y1013301D01*
X4166Y1013286D01*
X4133Y1013276D01*
X3962Y1013189D01*
X3790Y1013107D01*
X3762Y1013087D01*
X3731Y1013072D01*
X3579Y1012956D01*
X3424Y1012845D01*
X3400Y1012820D01*
X3373Y1012800D01*
X3244Y1012660D01*
X3110Y1012523D01*
X3091Y1012494D01*
X3067Y1012468D01*
X2965Y1012307D01*
X2858Y1012150D01*
X2844Y1012118D01*
X2826Y1012089D01*
X2753Y1011912D01*
X2676Y1011738D01*
X2668Y1011704D01*
X2655Y1011672D01*
X2615Y1011485D01*
X2569Y1011300D01*
X2567Y1011266D01*
X2560Y1011232D01*
X2541Y1010920D01*
X2541Y5080D01*
X2544Y5045D01*
X2542Y5011D01*
X2564Y4822D01*
X2581Y4631D01*
X2590Y4598D01*
X2594Y4564D01*
X2649Y4381D01*
X2699Y4197D01*
X2714Y4166D01*
X2724Y4133D01*
X2811Y3962D01*
X2893Y3790D01*
X2913Y3762D01*
X2928Y3731D01*
X3044Y3579D01*
X3155Y3424D01*
X3180Y3400D01*
X3200Y3373D01*
X3340Y3244D01*
X3477Y3110D01*
X3506Y3091D01*
X3532Y3067D01*
X3693Y2965D01*
X3850Y2858D01*
X3882Y2844D01*
X3911Y2826D01*
X4088Y2753D01*
X4262Y2676D01*
X4296Y2668D01*
X4328Y2655D01*
X4515Y2615D01*
X4700Y2569D01*
X4734Y2567D01*
X4768Y2560D01*
X5080Y2541D01*
X1264920Y2541D01*
X1264955Y2544D01*
G37*
%LPC*%
G36*
X1228807Y954404D02*
X1228807Y954404D01*
X1222831Y956005D01*
X1217473Y959099D01*
X1213099Y963473D01*
X1210005Y968831D01*
X1208404Y974807D01*
X1208404Y980993D01*
X1210005Y986969D01*
X1213099Y992327D01*
X1217473Y996701D01*
X1222831Y999795D01*
X1228807Y1001396D01*
X1234993Y1001396D01*
X1240969Y999795D01*
X1246327Y996701D01*
X1250701Y992327D01*
X1253795Y986969D01*
X1255396Y980993D01*
X1255396Y974807D01*
X1253795Y968831D01*
X1250701Y963473D01*
X1246327Y959099D01*
X1240969Y956005D01*
X1234993Y954404D01*
X1228807Y954404D01*
G37*
%LPD*%
%LPC*%
G36*
X35007Y941704D02*
X35007Y941704D01*
X29031Y943305D01*
X23673Y946399D01*
X19299Y950773D01*
X16205Y956131D01*
X14604Y962107D01*
X14604Y968293D01*
X16205Y974269D01*
X19299Y979627D01*
X23673Y984001D01*
X29031Y987095D01*
X35007Y988696D01*
X41193Y988696D01*
X47169Y987095D01*
X52527Y984001D01*
X56901Y979627D01*
X59995Y974269D01*
X61596Y968293D01*
X61596Y962107D01*
X59995Y956131D01*
X56901Y950773D01*
X52527Y946399D01*
X47169Y943305D01*
X41193Y941704D01*
X35007Y941704D01*
G37*
%LPD*%
%LPC*%
G36*
X35007Y14604D02*
X35007Y14604D01*
X29031Y16205D01*
X23673Y19299D01*
X19299Y23673D01*
X16205Y29031D01*
X14604Y35007D01*
X14604Y41193D01*
X16205Y47169D01*
X19299Y52527D01*
X23673Y56901D01*
X29031Y59995D01*
X35007Y61596D01*
X41193Y61596D01*
X47169Y59995D01*
X52527Y56901D01*
X56901Y52527D01*
X59995Y47169D01*
X61596Y41193D01*
X61596Y35007D01*
X59995Y29031D01*
X56901Y23673D01*
X52527Y19299D01*
X47169Y16205D01*
X41193Y14604D01*
X35007Y14604D01*
G37*
%LPD*%
%LPC*%
G36*
X1228807Y14604D02*
X1228807Y14604D01*
X1222831Y16205D01*
X1217473Y19299D01*
X1213099Y23673D01*
X1210005Y29031D01*
X1208404Y35007D01*
X1208404Y41193D01*
X1210005Y47169D01*
X1213099Y52527D01*
X1217473Y56901D01*
X1222831Y59995D01*
X1228807Y61596D01*
X1234993Y61596D01*
X1240969Y59995D01*
X1246327Y56901D01*
X1250701Y52527D01*
X1253795Y47169D01*
X1255396Y41193D01*
X1255396Y35007D01*
X1253795Y29031D01*
X1250701Y23673D01*
X1246327Y19299D01*
X1240969Y16205D01*
X1234993Y14604D01*
X1228807Y14604D01*
G37*
%LPD*%
%LPC*%
G36*
X262200Y923529D02*
X262200Y923529D01*
X253886Y926973D01*
X247523Y933336D01*
X244079Y941650D01*
X244079Y950650D01*
X247523Y958964D01*
X253886Y965327D01*
X262200Y968771D01*
X271200Y968771D01*
X279514Y965327D01*
X285877Y958964D01*
X289321Y950650D01*
X289321Y941650D01*
X285877Y933336D01*
X279514Y926973D01*
X271200Y923529D01*
X262200Y923529D01*
G37*
%LPD*%
%LPC*%
G36*
X1024200Y923529D02*
X1024200Y923529D01*
X1015886Y926973D01*
X1009523Y933336D01*
X1006079Y941650D01*
X1006079Y950650D01*
X1009523Y958964D01*
X1015886Y965327D01*
X1024200Y968771D01*
X1033200Y968771D01*
X1041514Y965327D01*
X1047877Y958964D01*
X1051321Y950650D01*
X1051321Y941650D01*
X1047877Y933336D01*
X1041514Y926973D01*
X1033200Y923529D01*
X1024200Y923529D01*
G37*
%LPD*%
%LPC*%
G36*
X1024200Y352029D02*
X1024200Y352029D01*
X1015886Y355473D01*
X1009523Y361836D01*
X1006079Y370150D01*
X1006079Y379150D01*
X1009523Y387464D01*
X1015886Y393827D01*
X1024200Y397271D01*
X1033200Y397271D01*
X1041514Y393827D01*
X1047877Y387464D01*
X1051321Y379150D01*
X1051321Y370150D01*
X1047877Y361836D01*
X1041514Y355473D01*
X1033200Y352029D01*
X1024200Y352029D01*
G37*
%LPD*%
%LPC*%
G36*
X262200Y352029D02*
X262200Y352029D01*
X253886Y355473D01*
X247523Y361836D01*
X244079Y370150D01*
X244079Y379150D01*
X247523Y387464D01*
X253886Y393827D01*
X262200Y397271D01*
X271200Y397271D01*
X279514Y393827D01*
X285877Y387464D01*
X289321Y379150D01*
X289321Y370150D01*
X285877Y361836D01*
X279514Y355473D01*
X271200Y352029D01*
X262200Y352029D01*
G37*
%LPD*%
%LPC*%
G36*
X1115592Y882159D02*
X1115592Y882159D01*
X1108741Y884997D01*
X1103497Y890241D01*
X1100659Y897092D01*
X1100659Y904508D01*
X1103497Y911359D01*
X1108741Y916603D01*
X1115592Y919441D01*
X1123008Y919441D01*
X1129859Y916603D01*
X1135103Y911359D01*
X1137941Y904508D01*
X1137941Y897092D01*
X1135103Y890241D01*
X1129859Y884997D01*
X1123008Y882159D01*
X1115592Y882159D01*
G37*
%LPD*%
%LPC*%
G36*
X1115592Y750759D02*
X1115592Y750759D01*
X1108741Y753597D01*
X1103497Y758841D01*
X1100659Y765692D01*
X1100659Y773108D01*
X1103497Y779959D01*
X1108741Y785203D01*
X1115592Y788041D01*
X1123008Y788041D01*
X1129859Y785203D01*
X1135103Y779959D01*
X1137941Y773108D01*
X1137941Y765692D01*
X1135103Y758841D01*
X1129859Y753597D01*
X1123008Y750759D01*
X1115592Y750759D01*
G37*
%LPD*%
%LPC*%
G36*
X199408Y168959D02*
X199408Y168959D01*
X193880Y171249D01*
X189649Y175480D01*
X187359Y181008D01*
X187359Y186992D01*
X189649Y192520D01*
X193880Y196751D01*
X199408Y199041D01*
X205392Y199041D01*
X210920Y196751D01*
X215151Y192520D01*
X217441Y186992D01*
X217441Y181008D01*
X215151Y175480D01*
X210920Y171249D01*
X205392Y168959D01*
X199408Y168959D01*
G37*
%LPD*%
%LPC*%
G36*
X1064608Y168959D02*
X1064608Y168959D01*
X1059080Y171249D01*
X1054849Y175480D01*
X1052559Y181008D01*
X1052559Y186992D01*
X1054849Y192520D01*
X1059080Y196751D01*
X1064608Y199041D01*
X1070592Y199041D01*
X1076120Y196751D01*
X1080351Y192520D01*
X1082641Y186992D01*
X1082641Y181008D01*
X1080351Y175480D01*
X1076120Y171249D01*
X1070592Y168959D01*
X1064608Y168959D01*
G37*
%LPD*%
%LPC*%
G36*
X1164608Y168959D02*
X1164608Y168959D01*
X1159080Y171249D01*
X1154849Y175480D01*
X1152559Y181008D01*
X1152559Y186992D01*
X1154849Y192520D01*
X1159080Y196751D01*
X1164608Y199041D01*
X1170592Y199041D01*
X1176120Y196751D01*
X1180351Y192520D01*
X1182641Y186992D01*
X1182641Y181008D01*
X1180351Y175480D01*
X1176120Y171249D01*
X1170592Y168959D01*
X1164608Y168959D01*
G37*
%LPD*%
%LPC*%
G36*
X99408Y168959D02*
X99408Y168959D01*
X93880Y171249D01*
X89649Y175480D01*
X87359Y181008D01*
X87359Y186992D01*
X89649Y192520D01*
X93880Y196751D01*
X99408Y199041D01*
X105392Y199041D01*
X110920Y196751D01*
X115151Y192520D01*
X117441Y186992D01*
X117441Y181008D01*
X115151Y175480D01*
X110920Y171249D01*
X105392Y168959D01*
X99408Y168959D01*
G37*
%LPD*%
%LPC*%
G36*
X1090414Y816119D02*
X1090414Y816119D01*
X1087113Y817486D01*
X1084586Y820013D01*
X1083219Y823314D01*
X1083219Y826886D01*
X1084586Y830187D01*
X1087113Y832713D01*
X1087211Y832754D01*
X1087326Y832814D01*
X1087445Y832866D01*
X1087525Y832918D01*
X1087610Y832962D01*
X1087712Y833042D01*
X1087821Y833114D01*
X1087890Y833180D01*
X1087966Y833238D01*
X1088053Y833335D01*
X1088147Y833424D01*
X1088203Y833502D01*
X1088267Y833572D01*
X1088336Y833683D01*
X1088413Y833788D01*
X1088455Y833874D01*
X1088505Y833955D01*
X1088553Y834075D01*
X1088611Y834192D01*
X1088637Y834284D01*
X1088672Y834373D01*
X1088698Y834500D01*
X1088734Y834626D01*
X1088743Y834720D01*
X1088762Y834814D01*
X1088765Y834944D01*
X1088778Y835074D01*
X1088771Y835169D01*
X1088773Y835264D01*
X1088753Y835393D01*
X1088743Y835522D01*
X1088719Y835615D01*
X1088704Y835709D01*
X1088662Y835832D01*
X1088629Y835958D01*
X1088589Y836045D01*
X1088558Y836135D01*
X1088494Y836249D01*
X1088440Y836367D01*
X1088385Y836445D01*
X1088338Y836528D01*
X1088256Y836629D01*
X1088181Y836735D01*
X1088114Y836803D01*
X1088053Y836877D01*
X1087954Y836961D01*
X1087862Y837053D01*
X1087783Y837107D01*
X1087711Y837169D01*
X1087599Y837235D01*
X1087492Y837309D01*
X1087375Y837366D01*
X1087322Y837397D01*
X1087280Y837412D01*
X1087211Y837446D01*
X1087113Y837486D01*
X1084586Y840013D01*
X1083219Y843314D01*
X1083219Y846886D01*
X1084586Y850187D01*
X1087113Y852714D01*
X1090414Y854081D01*
X1093986Y854081D01*
X1097287Y852714D01*
X1099814Y850187D01*
X1101181Y846886D01*
X1101181Y843314D01*
X1099814Y840013D01*
X1097287Y837486D01*
X1097189Y837446D01*
X1097074Y837386D01*
X1096955Y837334D01*
X1096875Y837282D01*
X1096790Y837237D01*
X1096687Y837158D01*
X1096579Y837086D01*
X1096510Y837020D01*
X1096434Y836962D01*
X1096347Y836865D01*
X1096253Y836775D01*
X1096197Y836698D01*
X1096133Y836627D01*
X1096064Y836517D01*
X1095987Y836412D01*
X1095945Y836326D01*
X1095895Y836245D01*
X1095846Y836124D01*
X1095789Y836007D01*
X1095763Y835916D01*
X1095728Y835827D01*
X1095702Y835699D01*
X1095666Y835574D01*
X1095657Y835479D01*
X1095638Y835386D01*
X1095635Y835256D01*
X1095622Y835126D01*
X1095629Y835031D01*
X1095627Y834936D01*
X1095647Y834807D01*
X1095657Y834677D01*
X1095681Y834585D01*
X1095696Y834491D01*
X1095738Y834368D01*
X1095771Y834242D01*
X1095811Y834155D01*
X1095842Y834065D01*
X1095906Y833951D01*
X1095960Y833833D01*
X1096015Y833755D01*
X1096062Y833672D01*
X1096144Y833571D01*
X1096219Y833464D01*
X1096286Y833397D01*
X1096347Y833323D01*
X1096446Y833239D01*
X1096538Y833147D01*
X1096617Y833093D01*
X1096689Y833031D01*
X1096802Y832965D01*
X1096909Y832891D01*
X1097025Y832834D01*
X1097078Y832803D01*
X1097120Y832788D01*
X1097189Y832754D01*
X1097287Y832713D01*
X1099814Y830187D01*
X1101181Y826886D01*
X1101181Y823314D01*
X1099814Y820013D01*
X1097287Y817486D01*
X1093986Y816119D01*
X1090414Y816119D01*
G37*
%LPD*%
%LPC*%
G36*
X466445Y203159D02*
X466445Y203159D01*
X461910Y205038D01*
X458438Y208510D01*
X456559Y213045D01*
X456559Y217955D01*
X458438Y222490D01*
X461910Y225962D01*
X466445Y227841D01*
X471355Y227841D01*
X475890Y225962D01*
X479362Y222490D01*
X481241Y217955D01*
X481241Y213045D01*
X479362Y208510D01*
X475890Y205038D01*
X471355Y203159D01*
X466445Y203159D01*
G37*
%LPD*%
%LPC*%
G36*
X936345Y203159D02*
X936345Y203159D01*
X931810Y205038D01*
X928338Y208510D01*
X926459Y213045D01*
X926459Y217955D01*
X928338Y222490D01*
X931810Y225962D01*
X936345Y227841D01*
X941255Y227841D01*
X945790Y225962D01*
X949262Y222490D01*
X951141Y217955D01*
X951141Y213045D01*
X949262Y208510D01*
X945790Y205038D01*
X941255Y203159D01*
X936345Y203159D01*
G37*
%LPD*%
%LPC*%
G36*
X341445Y203159D02*
X341445Y203159D01*
X336910Y205038D01*
X333438Y208510D01*
X331559Y213045D01*
X331559Y217955D01*
X333438Y222490D01*
X336910Y225962D01*
X341445Y227841D01*
X346355Y227841D01*
X350890Y225962D01*
X354362Y222490D01*
X356241Y217955D01*
X356241Y213045D01*
X354362Y208510D01*
X350890Y205038D01*
X346355Y203159D01*
X341445Y203159D01*
G37*
%LPD*%
%LPC*%
G36*
X811345Y203159D02*
X811345Y203159D01*
X806810Y205038D01*
X803338Y208510D01*
X801459Y213045D01*
X801459Y217955D01*
X803338Y222490D01*
X806810Y225962D01*
X811345Y227841D01*
X816255Y227841D01*
X820790Y225962D01*
X824262Y222490D01*
X826141Y217955D01*
X826141Y213045D01*
X824262Y208510D01*
X820790Y205038D01*
X816255Y203159D01*
X811345Y203159D01*
G37*
%LPD*%
%LPC*%
G36*
X264802Y841359D02*
X264802Y841359D01*
X261296Y842812D01*
X258612Y845496D01*
X257159Y849002D01*
X257159Y852798D01*
X258612Y856304D01*
X261296Y858988D01*
X264802Y860441D01*
X268598Y860441D01*
X272104Y858988D01*
X274788Y856304D01*
X276241Y852798D01*
X276241Y849002D01*
X274788Y845496D01*
X272104Y842812D01*
X268598Y841359D01*
X264802Y841359D01*
G37*
%LPD*%
%LPC*%
G36*
X150502Y244459D02*
X150502Y244459D01*
X146996Y245912D01*
X144312Y248596D01*
X142859Y252102D01*
X142859Y255898D01*
X144312Y259404D01*
X146996Y262088D01*
X150502Y263541D01*
X154298Y263541D01*
X157804Y262088D01*
X160488Y259404D01*
X161941Y255898D01*
X161941Y252102D01*
X160488Y248596D01*
X157804Y245912D01*
X154298Y244459D01*
X150502Y244459D01*
G37*
%LPD*%
%LPC*%
G36*
X175502Y244459D02*
X175502Y244459D01*
X171996Y245912D01*
X169312Y248596D01*
X167859Y252102D01*
X167859Y255898D01*
X169312Y259404D01*
X171996Y262088D01*
X175502Y263541D01*
X179298Y263541D01*
X182804Y262088D01*
X185488Y259404D01*
X186941Y255898D01*
X186941Y252102D01*
X185488Y248596D01*
X182804Y245912D01*
X179298Y244459D01*
X175502Y244459D01*
G37*
%LPD*%
%LPC*%
G36*
X1115702Y244459D02*
X1115702Y244459D01*
X1112196Y245912D01*
X1109512Y248596D01*
X1108059Y252102D01*
X1108059Y255898D01*
X1109512Y259404D01*
X1112196Y262088D01*
X1115702Y263541D01*
X1119498Y263541D01*
X1123004Y262088D01*
X1125688Y259404D01*
X1127141Y255898D01*
X1127141Y252102D01*
X1125688Y248596D01*
X1123004Y245912D01*
X1119498Y244459D01*
X1115702Y244459D01*
G37*
%LPD*%
%LPC*%
G36*
X1140702Y244459D02*
X1140702Y244459D01*
X1137196Y245912D01*
X1134512Y248596D01*
X1133059Y252102D01*
X1133059Y255898D01*
X1134512Y259404D01*
X1137196Y262088D01*
X1140702Y263541D01*
X1144498Y263541D01*
X1148004Y262088D01*
X1150688Y259404D01*
X1152141Y255898D01*
X1152141Y252102D01*
X1150688Y248596D01*
X1148004Y245912D01*
X1144498Y244459D01*
X1140702Y244459D01*
G37*
%LPD*%
%LPC*%
G36*
X1026802Y815959D02*
X1026802Y815959D01*
X1023296Y817412D01*
X1020612Y820096D01*
X1019159Y823602D01*
X1019159Y827398D01*
X1020612Y830904D01*
X1023296Y833588D01*
X1026802Y835041D01*
X1030598Y835041D01*
X1034104Y833588D01*
X1036788Y830904D01*
X1038241Y827398D01*
X1038241Y823602D01*
X1036788Y820096D01*
X1034104Y817412D01*
X1030598Y815959D01*
X1026802Y815959D01*
G37*
%LPD*%
%LPC*%
G36*
X264802Y815959D02*
X264802Y815959D01*
X261296Y817412D01*
X258612Y820096D01*
X257159Y823602D01*
X257159Y827398D01*
X258612Y830904D01*
X261296Y833588D01*
X264802Y835041D01*
X268598Y835041D01*
X272104Y833588D01*
X274788Y830904D01*
X276241Y827398D01*
X276241Y823602D01*
X274788Y820096D01*
X272104Y817412D01*
X268598Y815959D01*
X264802Y815959D01*
G37*
%LPD*%
%LPC*%
G36*
X1026802Y841359D02*
X1026802Y841359D01*
X1023296Y842812D01*
X1020612Y845496D01*
X1019159Y849002D01*
X1019159Y852798D01*
X1020612Y856304D01*
X1023296Y858988D01*
X1026802Y860441D01*
X1030598Y860441D01*
X1034104Y858988D01*
X1036788Y856304D01*
X1038241Y852798D01*
X1038241Y849002D01*
X1036788Y845496D01*
X1034104Y842812D01*
X1030598Y841359D01*
X1026802Y841359D01*
G37*
%LPD*%
%LPC*%
G36*
X264802Y866759D02*
X264802Y866759D01*
X261296Y868212D01*
X258612Y870896D01*
X257159Y874402D01*
X257159Y878198D01*
X258612Y881704D01*
X261296Y884388D01*
X264802Y885841D01*
X268598Y885841D01*
X272104Y884388D01*
X274788Y881704D01*
X276241Y878198D01*
X276241Y874402D01*
X274788Y870896D01*
X272104Y868212D01*
X268598Y866759D01*
X264802Y866759D01*
G37*
%LPD*%
%LPC*%
G36*
X264802Y409559D02*
X264802Y409559D01*
X261296Y411012D01*
X258612Y413696D01*
X257159Y417202D01*
X257159Y420998D01*
X258612Y424504D01*
X261296Y427188D01*
X264802Y428641D01*
X268598Y428641D01*
X272104Y427188D01*
X274788Y424504D01*
X276241Y420998D01*
X276241Y417202D01*
X274788Y413696D01*
X272104Y411012D01*
X268598Y409559D01*
X264802Y409559D01*
G37*
%LPD*%
%LPC*%
G36*
X264802Y434959D02*
X264802Y434959D01*
X261296Y436412D01*
X258612Y439096D01*
X257159Y442602D01*
X257159Y446398D01*
X258612Y449904D01*
X261296Y452588D01*
X264802Y454041D01*
X268598Y454041D01*
X272104Y452588D01*
X274788Y449904D01*
X276241Y446398D01*
X276241Y442602D01*
X274788Y439096D01*
X272104Y436412D01*
X268598Y434959D01*
X264802Y434959D01*
G37*
%LPD*%
%LPC*%
G36*
X1026802Y790559D02*
X1026802Y790559D01*
X1023296Y792012D01*
X1020612Y794696D01*
X1019159Y798202D01*
X1019159Y801998D01*
X1020612Y805504D01*
X1023296Y808188D01*
X1026802Y809641D01*
X1030598Y809641D01*
X1034104Y808188D01*
X1036788Y805504D01*
X1038241Y801998D01*
X1038241Y798202D01*
X1036788Y794696D01*
X1034104Y792012D01*
X1030598Y790559D01*
X1026802Y790559D01*
G37*
%LPD*%
%LPC*%
G36*
X264802Y790559D02*
X264802Y790559D01*
X261296Y792012D01*
X258612Y794696D01*
X257159Y798202D01*
X257159Y801998D01*
X258612Y805504D01*
X261296Y808188D01*
X264802Y809641D01*
X268598Y809641D01*
X272104Y808188D01*
X274788Y805504D01*
X276241Y801998D01*
X276241Y798202D01*
X274788Y794696D01*
X272104Y792012D01*
X268598Y790559D01*
X264802Y790559D01*
G37*
%LPD*%
%LPC*%
G36*
X1026802Y663559D02*
X1026802Y663559D01*
X1023296Y665012D01*
X1020612Y667696D01*
X1019159Y671202D01*
X1019159Y674998D01*
X1020612Y678504D01*
X1023296Y681188D01*
X1026802Y682641D01*
X1030598Y682641D01*
X1034104Y681188D01*
X1036788Y678504D01*
X1038241Y674998D01*
X1038241Y671202D01*
X1036788Y667696D01*
X1034104Y665012D01*
X1030598Y663559D01*
X1026802Y663559D01*
G37*
%LPD*%
%LPC*%
G36*
X1026802Y434959D02*
X1026802Y434959D01*
X1023296Y436412D01*
X1020612Y439096D01*
X1019159Y442602D01*
X1019159Y446398D01*
X1020612Y449904D01*
X1023296Y452588D01*
X1026802Y454041D01*
X1030598Y454041D01*
X1034104Y452588D01*
X1036788Y449904D01*
X1038241Y446398D01*
X1038241Y442602D01*
X1036788Y439096D01*
X1034104Y436412D01*
X1030598Y434959D01*
X1026802Y434959D01*
G37*
%LPD*%
%LPC*%
G36*
X264802Y460359D02*
X264802Y460359D01*
X261296Y461812D01*
X258612Y464496D01*
X257159Y468002D01*
X257159Y471798D01*
X258612Y475304D01*
X261296Y477988D01*
X264802Y479441D01*
X268598Y479441D01*
X272104Y477988D01*
X274788Y475304D01*
X276241Y471798D01*
X276241Y468002D01*
X274788Y464496D01*
X272104Y461812D01*
X268598Y460359D01*
X264802Y460359D01*
G37*
%LPD*%
%LPC*%
G36*
X1026802Y460359D02*
X1026802Y460359D01*
X1023296Y461812D01*
X1020612Y464496D01*
X1019159Y468002D01*
X1019159Y471798D01*
X1020612Y475304D01*
X1023296Y477988D01*
X1026802Y479441D01*
X1030598Y479441D01*
X1034104Y477988D01*
X1036788Y475304D01*
X1038241Y471798D01*
X1038241Y468002D01*
X1036788Y464496D01*
X1034104Y461812D01*
X1030598Y460359D01*
X1026802Y460359D01*
G37*
%LPD*%
%LPC*%
G36*
X264802Y485759D02*
X264802Y485759D01*
X261296Y487212D01*
X258612Y489896D01*
X257159Y493402D01*
X257159Y497198D01*
X258612Y500704D01*
X261296Y503388D01*
X264802Y504841D01*
X268598Y504841D01*
X272104Y503388D01*
X274788Y500704D01*
X276241Y497198D01*
X276241Y493402D01*
X274788Y489896D01*
X272104Y487212D01*
X268598Y485759D01*
X264802Y485759D01*
G37*
%LPD*%
%LPC*%
G36*
X1026802Y866759D02*
X1026802Y866759D01*
X1023296Y868212D01*
X1020612Y870896D01*
X1019159Y874402D01*
X1019159Y878198D01*
X1020612Y881704D01*
X1023296Y884388D01*
X1026802Y885841D01*
X1030598Y885841D01*
X1034104Y884388D01*
X1036788Y881704D01*
X1038241Y878198D01*
X1038241Y874402D01*
X1036788Y870896D01*
X1034104Y868212D01*
X1030598Y866759D01*
X1026802Y866759D01*
G37*
%LPD*%
%LPC*%
G36*
X1026802Y765159D02*
X1026802Y765159D01*
X1023296Y766612D01*
X1020612Y769296D01*
X1019159Y772802D01*
X1019159Y776598D01*
X1020612Y780104D01*
X1023296Y782788D01*
X1026802Y784241D01*
X1030598Y784241D01*
X1034104Y782788D01*
X1036788Y780104D01*
X1038241Y776598D01*
X1038241Y772802D01*
X1036788Y769296D01*
X1034104Y766612D01*
X1030598Y765159D01*
X1026802Y765159D01*
G37*
%LPD*%
%LPC*%
G36*
X264802Y765159D02*
X264802Y765159D01*
X261296Y766612D01*
X258612Y769296D01*
X257159Y772802D01*
X257159Y776598D01*
X258612Y780104D01*
X261296Y782788D01*
X264802Y784241D01*
X268598Y784241D01*
X272104Y782788D01*
X274788Y780104D01*
X276241Y776598D01*
X276241Y772802D01*
X274788Y769296D01*
X272104Y766612D01*
X268598Y765159D01*
X264802Y765159D01*
G37*
%LPD*%
%LPC*%
G36*
X1026802Y485759D02*
X1026802Y485759D01*
X1023296Y487212D01*
X1020612Y489896D01*
X1019159Y493402D01*
X1019159Y497198D01*
X1020612Y500704D01*
X1023296Y503388D01*
X1026802Y504841D01*
X1030598Y504841D01*
X1034104Y503388D01*
X1036788Y500704D01*
X1038241Y497198D01*
X1038241Y493402D01*
X1036788Y489896D01*
X1034104Y487212D01*
X1030598Y485759D01*
X1026802Y485759D01*
G37*
%LPD*%
%LPC*%
G36*
X264802Y511159D02*
X264802Y511159D01*
X261296Y512612D01*
X258612Y515296D01*
X257159Y518802D01*
X257159Y522598D01*
X258612Y526104D01*
X261296Y528788D01*
X264802Y530241D01*
X268598Y530241D01*
X272104Y528788D01*
X274788Y526104D01*
X276241Y522598D01*
X276241Y518802D01*
X274788Y515296D01*
X272104Y512612D01*
X268598Y511159D01*
X264802Y511159D01*
G37*
%LPD*%
%LPC*%
G36*
X1026802Y511159D02*
X1026802Y511159D01*
X1023296Y512612D01*
X1020612Y515296D01*
X1019159Y518802D01*
X1019159Y522598D01*
X1020612Y526104D01*
X1023296Y528788D01*
X1026802Y530241D01*
X1030598Y530241D01*
X1034104Y528788D01*
X1036788Y526104D01*
X1038241Y522598D01*
X1038241Y518802D01*
X1036788Y515296D01*
X1034104Y512612D01*
X1030598Y511159D01*
X1026802Y511159D01*
G37*
%LPD*%
%LPC*%
G36*
X264802Y536559D02*
X264802Y536559D01*
X261296Y538012D01*
X258612Y540696D01*
X257159Y544202D01*
X257159Y547998D01*
X258612Y551504D01*
X261296Y554188D01*
X264802Y555641D01*
X268598Y555641D01*
X272104Y554188D01*
X274788Y551504D01*
X276241Y547998D01*
X276241Y544202D01*
X274788Y540696D01*
X272104Y538012D01*
X268598Y536559D01*
X264802Y536559D01*
G37*
%LPD*%
%LPC*%
G36*
X1026802Y739759D02*
X1026802Y739759D01*
X1023296Y741212D01*
X1020612Y743896D01*
X1019159Y747402D01*
X1019159Y751198D01*
X1020612Y754704D01*
X1023296Y757388D01*
X1026802Y758841D01*
X1030598Y758841D01*
X1034104Y757388D01*
X1036788Y754704D01*
X1038241Y751198D01*
X1038241Y747402D01*
X1036788Y743896D01*
X1034104Y741212D01*
X1030598Y739759D01*
X1026802Y739759D01*
G37*
%LPD*%
%LPC*%
G36*
X264802Y739759D02*
X264802Y739759D01*
X261296Y741212D01*
X258612Y743896D01*
X257159Y747402D01*
X257159Y751198D01*
X258612Y754704D01*
X261296Y757388D01*
X264802Y758841D01*
X268598Y758841D01*
X272104Y757388D01*
X274788Y754704D01*
X276241Y751198D01*
X276241Y747402D01*
X274788Y743896D01*
X272104Y741212D01*
X268598Y739759D01*
X264802Y739759D01*
G37*
%LPD*%
%LPC*%
G36*
X1026802Y536559D02*
X1026802Y536559D01*
X1023296Y538012D01*
X1020612Y540696D01*
X1019159Y544202D01*
X1019159Y547998D01*
X1020612Y551504D01*
X1023296Y554188D01*
X1026802Y555641D01*
X1030598Y555641D01*
X1034104Y554188D01*
X1036788Y551504D01*
X1038241Y547998D01*
X1038241Y544202D01*
X1036788Y540696D01*
X1034104Y538012D01*
X1030598Y536559D01*
X1026802Y536559D01*
G37*
%LPD*%
%LPC*%
G36*
X264802Y561959D02*
X264802Y561959D01*
X261296Y563412D01*
X258612Y566096D01*
X257159Y569602D01*
X257159Y573398D01*
X258612Y576904D01*
X261296Y579588D01*
X264802Y581041D01*
X268598Y581041D01*
X272104Y579588D01*
X274788Y576904D01*
X276241Y573398D01*
X276241Y569602D01*
X274788Y566096D01*
X272104Y563412D01*
X268598Y561959D01*
X264802Y561959D01*
G37*
%LPD*%
%LPC*%
G36*
X1026802Y561959D02*
X1026802Y561959D01*
X1023296Y563412D01*
X1020612Y566096D01*
X1019159Y569602D01*
X1019159Y573398D01*
X1020612Y576904D01*
X1023296Y579588D01*
X1026802Y581041D01*
X1030598Y581041D01*
X1034104Y579588D01*
X1036788Y576904D01*
X1038241Y573398D01*
X1038241Y569602D01*
X1036788Y566096D01*
X1034104Y563412D01*
X1030598Y561959D01*
X1026802Y561959D01*
G37*
%LPD*%
%LPC*%
G36*
X264802Y587359D02*
X264802Y587359D01*
X261296Y588812D01*
X258612Y591496D01*
X257159Y595002D01*
X257159Y598798D01*
X258612Y602304D01*
X261296Y604988D01*
X264802Y606441D01*
X268598Y606441D01*
X272104Y604988D01*
X274788Y602304D01*
X276241Y598798D01*
X276241Y595002D01*
X274788Y591496D01*
X272104Y588812D01*
X268598Y587359D01*
X264802Y587359D01*
G37*
%LPD*%
%LPC*%
G36*
X1026802Y714359D02*
X1026802Y714359D01*
X1023296Y715812D01*
X1020612Y718496D01*
X1019159Y722002D01*
X1019159Y725798D01*
X1020612Y729304D01*
X1023296Y731988D01*
X1026802Y733441D01*
X1030598Y733441D01*
X1034104Y731988D01*
X1036788Y729304D01*
X1038241Y725798D01*
X1038241Y722002D01*
X1036788Y718496D01*
X1034104Y715812D01*
X1030598Y714359D01*
X1026802Y714359D01*
G37*
%LPD*%
%LPC*%
G36*
X264802Y714359D02*
X264802Y714359D01*
X261296Y715812D01*
X258612Y718496D01*
X257159Y722002D01*
X257159Y725798D01*
X258612Y729304D01*
X261296Y731988D01*
X264802Y733441D01*
X268598Y733441D01*
X272104Y731988D01*
X274788Y729304D01*
X276241Y725798D01*
X276241Y722002D01*
X274788Y718496D01*
X272104Y715812D01*
X268598Y714359D01*
X264802Y714359D01*
G37*
%LPD*%
%LPC*%
G36*
X1026802Y587359D02*
X1026802Y587359D01*
X1023296Y588812D01*
X1020612Y591496D01*
X1019159Y595002D01*
X1019159Y598798D01*
X1020612Y602304D01*
X1023296Y604988D01*
X1026802Y606441D01*
X1030598Y606441D01*
X1034104Y604988D01*
X1036788Y602304D01*
X1038241Y598798D01*
X1038241Y595002D01*
X1036788Y591496D01*
X1034104Y588812D01*
X1030598Y587359D01*
X1026802Y587359D01*
G37*
%LPD*%
%LPC*%
G36*
X264802Y892159D02*
X264802Y892159D01*
X261296Y893612D01*
X258612Y896296D01*
X257159Y899802D01*
X257159Y903598D01*
X258612Y907104D01*
X261296Y909788D01*
X264802Y911241D01*
X268598Y911241D01*
X272104Y909788D01*
X274788Y907104D01*
X276241Y903598D01*
X276241Y899802D01*
X274788Y896296D01*
X272104Y893612D01*
X268598Y892159D01*
X264802Y892159D01*
G37*
%LPD*%
%LPC*%
G36*
X264802Y612759D02*
X264802Y612759D01*
X261296Y614212D01*
X258612Y616896D01*
X257159Y620402D01*
X257159Y624198D01*
X258612Y627704D01*
X261296Y630388D01*
X264802Y631841D01*
X268598Y631841D01*
X272104Y630388D01*
X274788Y627704D01*
X276241Y624198D01*
X276241Y620402D01*
X274788Y616896D01*
X272104Y614212D01*
X268598Y612759D01*
X264802Y612759D01*
G37*
%LPD*%
%LPC*%
G36*
X1026802Y612759D02*
X1026802Y612759D01*
X1023296Y614212D01*
X1020612Y616896D01*
X1019159Y620402D01*
X1019159Y624198D01*
X1020612Y627704D01*
X1023296Y630388D01*
X1026802Y631841D01*
X1030598Y631841D01*
X1034104Y630388D01*
X1036788Y627704D01*
X1038241Y624198D01*
X1038241Y620402D01*
X1036788Y616896D01*
X1034104Y614212D01*
X1030598Y612759D01*
X1026802Y612759D01*
G37*
%LPD*%
%LPC*%
G36*
X1026802Y688959D02*
X1026802Y688959D01*
X1023296Y690412D01*
X1020612Y693096D01*
X1019159Y696602D01*
X1019159Y700398D01*
X1020612Y703904D01*
X1023296Y706588D01*
X1026802Y708041D01*
X1030598Y708041D01*
X1034104Y706588D01*
X1036788Y703904D01*
X1038241Y700398D01*
X1038241Y696602D01*
X1036788Y693096D01*
X1034104Y690412D01*
X1030598Y688959D01*
X1026802Y688959D01*
G37*
%LPD*%
%LPC*%
G36*
X264802Y688959D02*
X264802Y688959D01*
X261296Y690412D01*
X258612Y693096D01*
X257159Y696602D01*
X257159Y700398D01*
X258612Y703904D01*
X261296Y706588D01*
X264802Y708041D01*
X268598Y708041D01*
X272104Y706588D01*
X274788Y703904D01*
X276241Y700398D01*
X276241Y696602D01*
X274788Y693096D01*
X272104Y690412D01*
X268598Y688959D01*
X264802Y688959D01*
G37*
%LPD*%
%LPC*%
G36*
X264802Y638159D02*
X264802Y638159D01*
X261296Y639612D01*
X258612Y642296D01*
X257159Y645802D01*
X257159Y649598D01*
X258612Y653104D01*
X261296Y655788D01*
X264802Y657241D01*
X268598Y657241D01*
X272104Y655788D01*
X274788Y653104D01*
X276241Y649598D01*
X276241Y645802D01*
X274788Y642296D01*
X272104Y639612D01*
X268598Y638159D01*
X264802Y638159D01*
G37*
%LPD*%
%LPC*%
G36*
X1026802Y638159D02*
X1026802Y638159D01*
X1023296Y639612D01*
X1020612Y642296D01*
X1019159Y645802D01*
X1019159Y649598D01*
X1020612Y653104D01*
X1023296Y655788D01*
X1026802Y657241D01*
X1030598Y657241D01*
X1034104Y655788D01*
X1036788Y653104D01*
X1038241Y649598D01*
X1038241Y645802D01*
X1036788Y642296D01*
X1034104Y639612D01*
X1030598Y638159D01*
X1026802Y638159D01*
G37*
%LPD*%
%LPC*%
G36*
X1026802Y892159D02*
X1026802Y892159D01*
X1023296Y893612D01*
X1020612Y896296D01*
X1019159Y899802D01*
X1019159Y903598D01*
X1020612Y907104D01*
X1023296Y909788D01*
X1026802Y911241D01*
X1030598Y911241D01*
X1034104Y909788D01*
X1036788Y907104D01*
X1038241Y903598D01*
X1038241Y899802D01*
X1036788Y896296D01*
X1034104Y893612D01*
X1030598Y892159D01*
X1026802Y892159D01*
G37*
%LPD*%
%LPC*%
G36*
X264802Y663559D02*
X264802Y663559D01*
X261296Y665012D01*
X258612Y667696D01*
X257159Y671202D01*
X257159Y674998D01*
X258612Y678504D01*
X261296Y681188D01*
X264802Y682641D01*
X268598Y682641D01*
X272104Y681188D01*
X274788Y678504D01*
X276241Y674998D01*
X276241Y671202D01*
X274788Y667696D01*
X272104Y665012D01*
X268598Y663559D01*
X264802Y663559D01*
G37*
%LPD*%
%LPC*%
G36*
X1090414Y791119D02*
X1090414Y791119D01*
X1087113Y792486D01*
X1084586Y795013D01*
X1083219Y798314D01*
X1083219Y801886D01*
X1084586Y805187D01*
X1087113Y807714D01*
X1090414Y809081D01*
X1093986Y809081D01*
X1097287Y807714D01*
X1099814Y805187D01*
X1101181Y801886D01*
X1101181Y798314D01*
X1099814Y795013D01*
X1097287Y792486D01*
X1093986Y791119D01*
X1090414Y791119D01*
G37*
%LPD*%
%LPC*%
G36*
X782857Y602696D02*
X782857Y602696D01*
X779636Y604030D01*
X777170Y606496D01*
X775836Y609717D01*
X775836Y613203D01*
X777170Y616424D01*
X779636Y618890D01*
X782857Y620224D01*
X786343Y620224D01*
X789564Y618890D01*
X792030Y616424D01*
X793364Y613203D01*
X793364Y609717D01*
X792030Y606496D01*
X789564Y604030D01*
X786343Y602696D01*
X782857Y602696D01*
G37*
%LPD*%
%LPC*%
G36*
X757457Y501096D02*
X757457Y501096D01*
X754236Y502430D01*
X751770Y504896D01*
X750436Y508117D01*
X750436Y511603D01*
X751770Y514824D01*
X754236Y517290D01*
X757457Y518624D01*
X760943Y518624D01*
X764164Y517290D01*
X766630Y514824D01*
X767964Y511603D01*
X767964Y508117D01*
X766630Y504896D01*
X764164Y502430D01*
X760943Y501096D01*
X757457Y501096D01*
G37*
%LPD*%
%LPC*%
G36*
X528857Y424896D02*
X528857Y424896D01*
X525636Y426230D01*
X523170Y428696D01*
X521836Y431917D01*
X521836Y435403D01*
X523170Y438624D01*
X525636Y441090D01*
X528857Y442424D01*
X532343Y442424D01*
X535564Y441090D01*
X538030Y438624D01*
X539364Y435403D01*
X539364Y431917D01*
X538030Y428696D01*
X535564Y426230D01*
X532343Y424896D01*
X528857Y424896D01*
G37*
%LPD*%
%LPC*%
G36*
X782857Y856696D02*
X782857Y856696D01*
X779636Y858030D01*
X777170Y860496D01*
X775836Y863717D01*
X775836Y867203D01*
X777170Y870424D01*
X779636Y872890D01*
X782857Y874224D01*
X786343Y874224D01*
X789564Y872890D01*
X792030Y870424D01*
X793364Y867203D01*
X793364Y863717D01*
X792030Y860496D01*
X789564Y858030D01*
X786343Y856696D01*
X782857Y856696D01*
G37*
%LPD*%
%LPC*%
G36*
X757457Y856696D02*
X757457Y856696D01*
X754236Y858030D01*
X751770Y860496D01*
X750436Y863717D01*
X750436Y867203D01*
X751770Y870424D01*
X754236Y872890D01*
X757457Y874224D01*
X760943Y874224D01*
X764164Y872890D01*
X766630Y870424D01*
X767964Y867203D01*
X767964Y863717D01*
X766630Y860496D01*
X764164Y858030D01*
X760943Y856696D01*
X757457Y856696D01*
G37*
%LPD*%
%LPC*%
G36*
X528857Y856696D02*
X528857Y856696D01*
X525636Y858030D01*
X523170Y860496D01*
X521836Y863717D01*
X521836Y867203D01*
X523170Y870424D01*
X525636Y872890D01*
X528857Y874224D01*
X532343Y874224D01*
X535564Y872890D01*
X538030Y870424D01*
X539364Y867203D01*
X539364Y863717D01*
X538030Y860496D01*
X535564Y858030D01*
X532343Y856696D01*
X528857Y856696D01*
G37*
%LPD*%
%LPC*%
G36*
X503457Y856696D02*
X503457Y856696D01*
X500236Y858030D01*
X497770Y860496D01*
X496436Y863717D01*
X496436Y867203D01*
X497770Y870424D01*
X500236Y872890D01*
X503457Y874224D01*
X506943Y874224D01*
X510164Y872890D01*
X512630Y870424D01*
X513964Y867203D01*
X513964Y863717D01*
X512630Y860496D01*
X510164Y858030D01*
X506943Y856696D01*
X503457Y856696D01*
G37*
%LPD*%
%LPC*%
G36*
X757457Y424896D02*
X757457Y424896D01*
X754236Y426230D01*
X751770Y428696D01*
X750436Y431917D01*
X750436Y435403D01*
X751770Y438624D01*
X754236Y441090D01*
X757457Y442424D01*
X760943Y442424D01*
X764164Y441090D01*
X766630Y438624D01*
X767964Y435403D01*
X767964Y431917D01*
X766630Y428696D01*
X764164Y426230D01*
X760943Y424896D01*
X757457Y424896D01*
G37*
%LPD*%
%LPC*%
G36*
X782857Y831296D02*
X782857Y831296D01*
X779636Y832630D01*
X777170Y835096D01*
X775836Y838317D01*
X775836Y841803D01*
X777170Y845024D01*
X779636Y847490D01*
X782857Y848824D01*
X786343Y848824D01*
X789564Y847490D01*
X792030Y845024D01*
X793364Y841803D01*
X793364Y838317D01*
X792030Y835096D01*
X789564Y832630D01*
X786343Y831296D01*
X782857Y831296D01*
G37*
%LPD*%
%LPC*%
G36*
X757457Y831296D02*
X757457Y831296D01*
X754236Y832630D01*
X751770Y835096D01*
X750436Y838317D01*
X750436Y841803D01*
X751770Y845024D01*
X754236Y847490D01*
X757457Y848824D01*
X760943Y848824D01*
X764164Y847490D01*
X766630Y845024D01*
X767964Y841803D01*
X767964Y838317D01*
X766630Y835096D01*
X764164Y832630D01*
X760943Y831296D01*
X757457Y831296D01*
G37*
%LPD*%
%LPC*%
G36*
X782857Y653496D02*
X782857Y653496D01*
X779636Y654830D01*
X777170Y657296D01*
X775836Y660517D01*
X775836Y664003D01*
X777170Y667224D01*
X779636Y669690D01*
X782857Y671024D01*
X786343Y671024D01*
X789564Y669690D01*
X792030Y667224D01*
X793364Y664003D01*
X793364Y660517D01*
X792030Y657296D01*
X789564Y654830D01*
X786343Y653496D01*
X782857Y653496D01*
G37*
%LPD*%
%LPC*%
G36*
X757457Y653496D02*
X757457Y653496D01*
X754236Y654830D01*
X751770Y657296D01*
X750436Y660517D01*
X750436Y664003D01*
X751770Y667224D01*
X754236Y669690D01*
X757457Y671024D01*
X760943Y671024D01*
X764164Y669690D01*
X766630Y667224D01*
X767964Y664003D01*
X767964Y660517D01*
X766630Y657296D01*
X764164Y654830D01*
X760943Y653496D01*
X757457Y653496D01*
G37*
%LPD*%
%LPC*%
G36*
X528857Y653496D02*
X528857Y653496D01*
X525636Y654830D01*
X523170Y657296D01*
X521836Y660517D01*
X521836Y664003D01*
X523170Y667224D01*
X525636Y669690D01*
X528857Y671024D01*
X532343Y671024D01*
X535564Y669690D01*
X538030Y667224D01*
X539364Y664003D01*
X539364Y660517D01*
X538030Y657296D01*
X535564Y654830D01*
X532343Y653496D01*
X528857Y653496D01*
G37*
%LPD*%
%LPC*%
G36*
X503457Y653496D02*
X503457Y653496D01*
X500236Y654830D01*
X497770Y657296D01*
X496436Y660517D01*
X496436Y664003D01*
X497770Y667224D01*
X500236Y669690D01*
X503457Y671024D01*
X506943Y671024D01*
X510164Y669690D01*
X512630Y667224D01*
X513964Y664003D01*
X513964Y660517D01*
X512630Y657296D01*
X510164Y654830D01*
X506943Y653496D01*
X503457Y653496D01*
G37*
%LPD*%
%LPC*%
G36*
X528857Y831296D02*
X528857Y831296D01*
X525636Y832630D01*
X523170Y835096D01*
X521836Y838317D01*
X521836Y841803D01*
X523170Y845024D01*
X525636Y847490D01*
X528857Y848824D01*
X532343Y848824D01*
X535564Y847490D01*
X538030Y845024D01*
X539364Y841803D01*
X539364Y838317D01*
X538030Y835096D01*
X535564Y832630D01*
X532343Y831296D01*
X528857Y831296D01*
G37*
%LPD*%
%LPC*%
G36*
X782857Y678896D02*
X782857Y678896D01*
X779636Y680230D01*
X777170Y682696D01*
X775836Y685917D01*
X775836Y689403D01*
X777170Y692624D01*
X779636Y695090D01*
X782857Y696424D01*
X786343Y696424D01*
X789564Y695090D01*
X792030Y692624D01*
X793364Y689403D01*
X793364Y685917D01*
X792030Y682696D01*
X789564Y680230D01*
X786343Y678896D01*
X782857Y678896D01*
G37*
%LPD*%
%LPC*%
G36*
X782857Y628096D02*
X782857Y628096D01*
X779636Y629430D01*
X777170Y631896D01*
X775836Y635117D01*
X775836Y638603D01*
X777170Y641824D01*
X779636Y644290D01*
X782857Y645624D01*
X786343Y645624D01*
X789564Y644290D01*
X792030Y641824D01*
X793364Y638603D01*
X793364Y635117D01*
X792030Y631896D01*
X789564Y629430D01*
X786343Y628096D01*
X782857Y628096D01*
G37*
%LPD*%
%LPC*%
G36*
X757457Y628096D02*
X757457Y628096D01*
X754236Y629430D01*
X751770Y631896D01*
X750436Y635117D01*
X750436Y638603D01*
X751770Y641824D01*
X754236Y644290D01*
X757457Y645624D01*
X760943Y645624D01*
X764164Y644290D01*
X766630Y641824D01*
X767964Y638603D01*
X767964Y635117D01*
X766630Y631896D01*
X764164Y629430D01*
X760943Y628096D01*
X757457Y628096D01*
G37*
%LPD*%
%LPC*%
G36*
X528857Y628096D02*
X528857Y628096D01*
X525636Y629430D01*
X523170Y631896D01*
X521836Y635117D01*
X521836Y638603D01*
X523170Y641824D01*
X525636Y644290D01*
X528857Y645624D01*
X532343Y645624D01*
X535564Y644290D01*
X538030Y641824D01*
X539364Y638603D01*
X539364Y635117D01*
X538030Y631896D01*
X535564Y629430D01*
X532343Y628096D01*
X528857Y628096D01*
G37*
%LPD*%
%LPC*%
G36*
X503457Y628096D02*
X503457Y628096D01*
X500236Y629430D01*
X497770Y631896D01*
X496436Y635117D01*
X496436Y638603D01*
X497770Y641824D01*
X500236Y644290D01*
X503457Y645624D01*
X506943Y645624D01*
X510164Y644290D01*
X512630Y641824D01*
X513964Y638603D01*
X513964Y635117D01*
X512630Y631896D01*
X510164Y629430D01*
X506943Y628096D01*
X503457Y628096D01*
G37*
%LPD*%
%LPC*%
G36*
X503457Y704296D02*
X503457Y704296D01*
X500236Y705630D01*
X497770Y708096D01*
X496436Y711317D01*
X496436Y714803D01*
X497770Y718024D01*
X500236Y720490D01*
X503457Y721824D01*
X506943Y721824D01*
X510164Y720490D01*
X512630Y718024D01*
X513964Y714803D01*
X513964Y711317D01*
X512630Y708096D01*
X510164Y705630D01*
X506943Y704296D01*
X503457Y704296D01*
G37*
%LPD*%
%LPC*%
G36*
X528857Y704296D02*
X528857Y704296D01*
X525636Y705630D01*
X523170Y708096D01*
X521836Y711317D01*
X521836Y714803D01*
X523170Y718024D01*
X525636Y720490D01*
X528857Y721824D01*
X532343Y721824D01*
X535564Y720490D01*
X538030Y718024D01*
X539364Y714803D01*
X539364Y711317D01*
X538030Y708096D01*
X535564Y705630D01*
X532343Y704296D01*
X528857Y704296D01*
G37*
%LPD*%
%LPC*%
G36*
X503457Y831296D02*
X503457Y831296D01*
X500236Y832630D01*
X497770Y835096D01*
X496436Y838317D01*
X496436Y841803D01*
X497770Y845024D01*
X500236Y847490D01*
X503457Y848824D01*
X506943Y848824D01*
X510164Y847490D01*
X512630Y845024D01*
X513964Y841803D01*
X513964Y838317D01*
X512630Y835096D01*
X510164Y832630D01*
X506943Y831296D01*
X503457Y831296D01*
G37*
%LPD*%
%LPC*%
G36*
X503457Y602696D02*
X503457Y602696D01*
X500236Y604030D01*
X497770Y606496D01*
X496436Y609717D01*
X496436Y613203D01*
X497770Y616424D01*
X500236Y618890D01*
X503457Y620224D01*
X506943Y620224D01*
X510164Y618890D01*
X512630Y616424D01*
X513964Y613203D01*
X513964Y609717D01*
X512630Y606496D01*
X510164Y604030D01*
X506943Y602696D01*
X503457Y602696D01*
G37*
%LPD*%
%LPC*%
G36*
X782857Y424896D02*
X782857Y424896D01*
X779636Y426230D01*
X777170Y428696D01*
X775836Y431917D01*
X775836Y435403D01*
X777170Y438624D01*
X779636Y441090D01*
X782857Y442424D01*
X786343Y442424D01*
X789564Y441090D01*
X792030Y438624D01*
X793364Y435403D01*
X793364Y431917D01*
X792030Y428696D01*
X789564Y426230D01*
X786343Y424896D01*
X782857Y424896D01*
G37*
%LPD*%
%LPC*%
G36*
X503457Y805896D02*
X503457Y805896D01*
X500236Y807230D01*
X497770Y809696D01*
X496436Y812917D01*
X496436Y816403D01*
X497770Y819624D01*
X500236Y822090D01*
X503457Y823424D01*
X506943Y823424D01*
X510164Y822090D01*
X512630Y819624D01*
X513964Y816403D01*
X513964Y812917D01*
X512630Y809696D01*
X510164Y807230D01*
X506943Y805896D01*
X503457Y805896D01*
G37*
%LPD*%
%LPC*%
G36*
X782857Y805896D02*
X782857Y805896D01*
X779636Y807230D01*
X777170Y809696D01*
X775836Y812917D01*
X775836Y816403D01*
X777170Y819624D01*
X779636Y822090D01*
X782857Y823424D01*
X786343Y823424D01*
X789564Y822090D01*
X792030Y819624D01*
X793364Y816403D01*
X793364Y812917D01*
X792030Y809696D01*
X789564Y807230D01*
X786343Y805896D01*
X782857Y805896D01*
G37*
%LPD*%
%LPC*%
G36*
X757457Y805896D02*
X757457Y805896D01*
X754236Y807230D01*
X751770Y809696D01*
X750436Y812917D01*
X750436Y816403D01*
X751770Y819624D01*
X754236Y822090D01*
X757457Y823424D01*
X760943Y823424D01*
X764164Y822090D01*
X766630Y819624D01*
X767964Y816403D01*
X767964Y812917D01*
X766630Y809696D01*
X764164Y807230D01*
X760943Y805896D01*
X757457Y805896D01*
G37*
%LPD*%
%LPC*%
G36*
X757457Y704296D02*
X757457Y704296D01*
X754236Y705630D01*
X751770Y708096D01*
X750436Y711317D01*
X750436Y714803D01*
X751770Y718024D01*
X754236Y720490D01*
X757457Y721824D01*
X760943Y721824D01*
X764164Y720490D01*
X766630Y718024D01*
X767964Y714803D01*
X767964Y711317D01*
X766630Y708096D01*
X764164Y705630D01*
X760943Y704296D01*
X757457Y704296D01*
G37*
%LPD*%
%LPC*%
G36*
X782857Y780496D02*
X782857Y780496D01*
X779636Y781830D01*
X777170Y784296D01*
X775836Y787517D01*
X775836Y791003D01*
X777170Y794224D01*
X779636Y796690D01*
X782857Y798024D01*
X786343Y798024D01*
X789564Y796690D01*
X792030Y794224D01*
X793364Y791003D01*
X793364Y787517D01*
X792030Y784296D01*
X789564Y781830D01*
X786343Y780496D01*
X782857Y780496D01*
G37*
%LPD*%
%LPC*%
G36*
X528857Y805896D02*
X528857Y805896D01*
X525636Y807230D01*
X523170Y809696D01*
X521836Y812917D01*
X521836Y816403D01*
X523170Y819624D01*
X525636Y822090D01*
X528857Y823424D01*
X532343Y823424D01*
X535564Y822090D01*
X538030Y819624D01*
X539364Y816403D01*
X539364Y812917D01*
X538030Y809696D01*
X535564Y807230D01*
X532343Y805896D01*
X528857Y805896D01*
G37*
%LPD*%
%LPC*%
G36*
X503457Y450296D02*
X503457Y450296D01*
X500236Y451630D01*
X497770Y454096D01*
X496436Y457317D01*
X496436Y460803D01*
X497770Y464024D01*
X500236Y466490D01*
X503457Y467824D01*
X506943Y467824D01*
X510164Y466490D01*
X512630Y464024D01*
X513964Y460803D01*
X513964Y457317D01*
X512630Y454096D01*
X510164Y451630D01*
X506943Y450296D01*
X503457Y450296D01*
G37*
%LPD*%
%LPC*%
G36*
X782857Y704296D02*
X782857Y704296D01*
X779636Y705630D01*
X777170Y708096D01*
X775836Y711317D01*
X775836Y714803D01*
X777170Y718024D01*
X779636Y720490D01*
X782857Y721824D01*
X786343Y721824D01*
X789564Y720490D01*
X792030Y718024D01*
X793364Y714803D01*
X793364Y711317D01*
X792030Y708096D01*
X789564Y705630D01*
X786343Y704296D01*
X782857Y704296D01*
G37*
%LPD*%
%LPC*%
G36*
X503457Y729696D02*
X503457Y729696D01*
X500236Y731030D01*
X497770Y733496D01*
X496436Y736717D01*
X496436Y740203D01*
X497770Y743424D01*
X500236Y745890D01*
X503457Y747224D01*
X506943Y747224D01*
X510164Y745890D01*
X512630Y743424D01*
X513964Y740203D01*
X513964Y736717D01*
X512630Y733496D01*
X510164Y731030D01*
X506943Y729696D01*
X503457Y729696D01*
G37*
%LPD*%
%LPC*%
G36*
X782857Y577296D02*
X782857Y577296D01*
X779636Y578630D01*
X777170Y581096D01*
X775836Y584317D01*
X775836Y587803D01*
X777170Y591024D01*
X779636Y593490D01*
X782857Y594824D01*
X786343Y594824D01*
X789564Y593490D01*
X792030Y591024D01*
X793364Y587803D01*
X793364Y584317D01*
X792030Y581096D01*
X789564Y578630D01*
X786343Y577296D01*
X782857Y577296D01*
G37*
%LPD*%
%LPC*%
G36*
X757457Y577296D02*
X757457Y577296D01*
X754236Y578630D01*
X751770Y581096D01*
X750436Y584317D01*
X750436Y587803D01*
X751770Y591024D01*
X754236Y593490D01*
X757457Y594824D01*
X760943Y594824D01*
X764164Y593490D01*
X766630Y591024D01*
X767964Y587803D01*
X767964Y584317D01*
X766630Y581096D01*
X764164Y578630D01*
X760943Y577296D01*
X757457Y577296D01*
G37*
%LPD*%
%LPC*%
G36*
X528857Y577296D02*
X528857Y577296D01*
X525636Y578630D01*
X523170Y581096D01*
X521836Y584317D01*
X521836Y587803D01*
X523170Y591024D01*
X525636Y593490D01*
X528857Y594824D01*
X532343Y594824D01*
X535564Y593490D01*
X538030Y591024D01*
X539364Y587803D01*
X539364Y584317D01*
X538030Y581096D01*
X535564Y578630D01*
X532343Y577296D01*
X528857Y577296D01*
G37*
%LPD*%
%LPC*%
G36*
X503457Y577296D02*
X503457Y577296D01*
X500236Y578630D01*
X497770Y581096D01*
X496436Y584317D01*
X496436Y587803D01*
X497770Y591024D01*
X500236Y593490D01*
X503457Y594824D01*
X506943Y594824D01*
X510164Y593490D01*
X512630Y591024D01*
X513964Y587803D01*
X513964Y584317D01*
X512630Y581096D01*
X510164Y578630D01*
X506943Y577296D01*
X503457Y577296D01*
G37*
%LPD*%
%LPC*%
G36*
X528857Y729696D02*
X528857Y729696D01*
X525636Y731030D01*
X523170Y733496D01*
X521836Y736717D01*
X521836Y740203D01*
X523170Y743424D01*
X525636Y745890D01*
X528857Y747224D01*
X532343Y747224D01*
X535564Y745890D01*
X538030Y743424D01*
X539364Y740203D01*
X539364Y736717D01*
X538030Y733496D01*
X535564Y731030D01*
X532343Y729696D01*
X528857Y729696D01*
G37*
%LPD*%
%LPC*%
G36*
X757457Y729696D02*
X757457Y729696D01*
X754236Y731030D01*
X751770Y733496D01*
X750436Y736717D01*
X750436Y740203D01*
X751770Y743424D01*
X754236Y745890D01*
X757457Y747224D01*
X760943Y747224D01*
X764164Y745890D01*
X766630Y743424D01*
X767964Y740203D01*
X767964Y736717D01*
X766630Y733496D01*
X764164Y731030D01*
X760943Y729696D01*
X757457Y729696D01*
G37*
%LPD*%
%LPC*%
G36*
X782857Y551896D02*
X782857Y551896D01*
X779636Y553230D01*
X777170Y555696D01*
X775836Y558917D01*
X775836Y562403D01*
X777170Y565624D01*
X779636Y568090D01*
X782857Y569424D01*
X786343Y569424D01*
X789564Y568090D01*
X792030Y565624D01*
X793364Y562403D01*
X793364Y558917D01*
X792030Y555696D01*
X789564Y553230D01*
X786343Y551896D01*
X782857Y551896D01*
G37*
%LPD*%
%LPC*%
G36*
X757457Y551896D02*
X757457Y551896D01*
X754236Y553230D01*
X751770Y555696D01*
X750436Y558917D01*
X750436Y562403D01*
X751770Y565624D01*
X754236Y568090D01*
X757457Y569424D01*
X760943Y569424D01*
X764164Y568090D01*
X766630Y565624D01*
X767964Y562403D01*
X767964Y558917D01*
X766630Y555696D01*
X764164Y553230D01*
X760943Y551896D01*
X757457Y551896D01*
G37*
%LPD*%
%LPC*%
G36*
X528857Y551896D02*
X528857Y551896D01*
X525636Y553230D01*
X523170Y555696D01*
X521836Y558917D01*
X521836Y562403D01*
X523170Y565624D01*
X525636Y568090D01*
X528857Y569424D01*
X532343Y569424D01*
X535564Y568090D01*
X538030Y565624D01*
X539364Y562403D01*
X539364Y558917D01*
X538030Y555696D01*
X535564Y553230D01*
X532343Y551896D01*
X528857Y551896D01*
G37*
%LPD*%
%LPC*%
G36*
X503457Y551896D02*
X503457Y551896D01*
X500236Y553230D01*
X497770Y555696D01*
X496436Y558917D01*
X496436Y562403D01*
X497770Y565624D01*
X500236Y568090D01*
X503457Y569424D01*
X506943Y569424D01*
X510164Y568090D01*
X512630Y565624D01*
X513964Y562403D01*
X513964Y558917D01*
X512630Y555696D01*
X510164Y553230D01*
X506943Y551896D01*
X503457Y551896D01*
G37*
%LPD*%
%LPC*%
G36*
X782857Y729696D02*
X782857Y729696D01*
X779636Y731030D01*
X777170Y733496D01*
X775836Y736717D01*
X775836Y740203D01*
X777170Y743424D01*
X779636Y745890D01*
X782857Y747224D01*
X786343Y747224D01*
X789564Y745890D01*
X792030Y743424D01*
X793364Y740203D01*
X793364Y736717D01*
X792030Y733496D01*
X789564Y731030D01*
X786343Y729696D01*
X782857Y729696D01*
G37*
%LPD*%
%LPC*%
G36*
X503457Y755096D02*
X503457Y755096D01*
X500236Y756430D01*
X497770Y758896D01*
X496436Y762117D01*
X496436Y765603D01*
X497770Y768824D01*
X500236Y771290D01*
X503457Y772624D01*
X506943Y772624D01*
X510164Y771290D01*
X512630Y768824D01*
X513964Y765603D01*
X513964Y762117D01*
X512630Y758896D01*
X510164Y756430D01*
X506943Y755096D01*
X503457Y755096D01*
G37*
%LPD*%
%LPC*%
G36*
X782857Y526496D02*
X782857Y526496D01*
X779636Y527830D01*
X777170Y530296D01*
X775836Y533517D01*
X775836Y537003D01*
X777170Y540224D01*
X779636Y542690D01*
X782857Y544024D01*
X786343Y544024D01*
X789564Y542690D01*
X792030Y540224D01*
X793364Y537003D01*
X793364Y533517D01*
X792030Y530296D01*
X789564Y527830D01*
X786343Y526496D01*
X782857Y526496D01*
G37*
%LPD*%
%LPC*%
G36*
X757457Y526496D02*
X757457Y526496D01*
X754236Y527830D01*
X751770Y530296D01*
X750436Y533517D01*
X750436Y537003D01*
X751770Y540224D01*
X754236Y542690D01*
X757457Y544024D01*
X760943Y544024D01*
X764164Y542690D01*
X766630Y540224D01*
X767964Y537003D01*
X767964Y533517D01*
X766630Y530296D01*
X764164Y527830D01*
X760943Y526496D01*
X757457Y526496D01*
G37*
%LPD*%
%LPC*%
G36*
X528857Y526496D02*
X528857Y526496D01*
X525636Y527830D01*
X523170Y530296D01*
X521836Y533517D01*
X521836Y537003D01*
X523170Y540224D01*
X525636Y542690D01*
X528857Y544024D01*
X532343Y544024D01*
X535564Y542690D01*
X538030Y540224D01*
X539364Y537003D01*
X539364Y533517D01*
X538030Y530296D01*
X535564Y527830D01*
X532343Y526496D01*
X528857Y526496D01*
G37*
%LPD*%
%LPC*%
G36*
X503457Y526496D02*
X503457Y526496D01*
X500236Y527830D01*
X497770Y530296D01*
X496436Y533517D01*
X496436Y537003D01*
X497770Y540224D01*
X500236Y542690D01*
X503457Y544024D01*
X506943Y544024D01*
X510164Y542690D01*
X512630Y540224D01*
X513964Y537003D01*
X513964Y533517D01*
X512630Y530296D01*
X510164Y527830D01*
X506943Y526496D01*
X503457Y526496D01*
G37*
%LPD*%
%LPC*%
G36*
X528857Y755096D02*
X528857Y755096D01*
X525636Y756430D01*
X523170Y758896D01*
X521836Y762117D01*
X521836Y765603D01*
X523170Y768824D01*
X525636Y771290D01*
X528857Y772624D01*
X532343Y772624D01*
X535564Y771290D01*
X538030Y768824D01*
X539364Y765603D01*
X539364Y762117D01*
X538030Y758896D01*
X535564Y756430D01*
X532343Y755096D01*
X528857Y755096D01*
G37*
%LPD*%
%LPC*%
G36*
X757457Y755096D02*
X757457Y755096D01*
X754236Y756430D01*
X751770Y758896D01*
X750436Y762117D01*
X750436Y765603D01*
X751770Y768824D01*
X754236Y771290D01*
X757457Y772624D01*
X760943Y772624D01*
X764164Y771290D01*
X766630Y768824D01*
X767964Y765603D01*
X767964Y762117D01*
X766630Y758896D01*
X764164Y756430D01*
X760943Y755096D01*
X757457Y755096D01*
G37*
%LPD*%
%LPC*%
G36*
X782857Y501096D02*
X782857Y501096D01*
X779636Y502430D01*
X777170Y504896D01*
X775836Y508117D01*
X775836Y511603D01*
X777170Y514824D01*
X779636Y517290D01*
X782857Y518624D01*
X786343Y518624D01*
X789564Y517290D01*
X792030Y514824D01*
X793364Y511603D01*
X793364Y508117D01*
X792030Y504896D01*
X789564Y502430D01*
X786343Y501096D01*
X782857Y501096D01*
G37*
%LPD*%
%LPC*%
G36*
X503457Y424896D02*
X503457Y424896D01*
X500236Y426230D01*
X497770Y428696D01*
X496436Y431917D01*
X496436Y435403D01*
X497770Y438624D01*
X500236Y441090D01*
X503457Y442424D01*
X506943Y442424D01*
X510164Y441090D01*
X512630Y438624D01*
X513964Y435403D01*
X513964Y431917D01*
X512630Y428696D01*
X510164Y426230D01*
X506943Y424896D01*
X503457Y424896D01*
G37*
%LPD*%
%LPC*%
G36*
X528857Y501096D02*
X528857Y501096D01*
X525636Y502430D01*
X523170Y504896D01*
X521836Y508117D01*
X521836Y511603D01*
X523170Y514824D01*
X525636Y517290D01*
X528857Y518624D01*
X532343Y518624D01*
X535564Y517290D01*
X538030Y514824D01*
X539364Y511603D01*
X539364Y508117D01*
X538030Y504896D01*
X535564Y502430D01*
X532343Y501096D01*
X528857Y501096D01*
G37*
%LPD*%
%LPC*%
G36*
X503457Y501096D02*
X503457Y501096D01*
X500236Y502430D01*
X497770Y504896D01*
X496436Y508117D01*
X496436Y511603D01*
X497770Y514824D01*
X500236Y517290D01*
X503457Y518624D01*
X506943Y518624D01*
X510164Y517290D01*
X512630Y514824D01*
X513964Y511603D01*
X513964Y508117D01*
X512630Y504896D01*
X510164Y502430D01*
X506943Y501096D01*
X503457Y501096D01*
G37*
%LPD*%
%LPC*%
G36*
X782857Y755096D02*
X782857Y755096D01*
X779636Y756430D01*
X777170Y758896D01*
X775836Y762117D01*
X775836Y765603D01*
X777170Y768824D01*
X779636Y771290D01*
X782857Y772624D01*
X786343Y772624D01*
X789564Y771290D01*
X792030Y768824D01*
X793364Y765603D01*
X793364Y762117D01*
X792030Y758896D01*
X789564Y756430D01*
X786343Y755096D01*
X782857Y755096D01*
G37*
%LPD*%
%LPC*%
G36*
X503457Y780496D02*
X503457Y780496D01*
X500236Y781830D01*
X497770Y784296D01*
X496436Y787517D01*
X496436Y791003D01*
X497770Y794224D01*
X500236Y796690D01*
X503457Y798024D01*
X506943Y798024D01*
X510164Y796690D01*
X512630Y794224D01*
X513964Y791003D01*
X513964Y787517D01*
X512630Y784296D01*
X510164Y781830D01*
X506943Y780496D01*
X503457Y780496D01*
G37*
%LPD*%
%LPC*%
G36*
X782857Y475696D02*
X782857Y475696D01*
X779636Y477030D01*
X777170Y479496D01*
X775836Y482717D01*
X775836Y486203D01*
X777170Y489424D01*
X779636Y491890D01*
X782857Y493224D01*
X786343Y493224D01*
X789564Y491890D01*
X792030Y489424D01*
X793364Y486203D01*
X793364Y482717D01*
X792030Y479496D01*
X789564Y477030D01*
X786343Y475696D01*
X782857Y475696D01*
G37*
%LPD*%
%LPC*%
G36*
X757457Y475696D02*
X757457Y475696D01*
X754236Y477030D01*
X751770Y479496D01*
X750436Y482717D01*
X750436Y486203D01*
X751770Y489424D01*
X754236Y491890D01*
X757457Y493224D01*
X760943Y493224D01*
X764164Y491890D01*
X766630Y489424D01*
X767964Y486203D01*
X767964Y482717D01*
X766630Y479496D01*
X764164Y477030D01*
X760943Y475696D01*
X757457Y475696D01*
G37*
%LPD*%
%LPC*%
G36*
X528857Y475696D02*
X528857Y475696D01*
X525636Y477030D01*
X523170Y479496D01*
X521836Y482717D01*
X521836Y486203D01*
X523170Y489424D01*
X525636Y491890D01*
X528857Y493224D01*
X532343Y493224D01*
X535564Y491890D01*
X538030Y489424D01*
X539364Y486203D01*
X539364Y482717D01*
X538030Y479496D01*
X535564Y477030D01*
X532343Y475696D01*
X528857Y475696D01*
G37*
%LPD*%
%LPC*%
G36*
X503457Y475696D02*
X503457Y475696D01*
X500236Y477030D01*
X497770Y479496D01*
X496436Y482717D01*
X496436Y486203D01*
X497770Y489424D01*
X500236Y491890D01*
X503457Y493224D01*
X506943Y493224D01*
X510164Y491890D01*
X512630Y489424D01*
X513964Y486203D01*
X513964Y482717D01*
X512630Y479496D01*
X510164Y477030D01*
X506943Y475696D01*
X503457Y475696D01*
G37*
%LPD*%
%LPC*%
G36*
X528857Y780496D02*
X528857Y780496D01*
X525636Y781830D01*
X523170Y784296D01*
X521836Y787517D01*
X521836Y791003D01*
X523170Y794224D01*
X525636Y796690D01*
X528857Y798024D01*
X532343Y798024D01*
X535564Y796690D01*
X538030Y794224D01*
X539364Y791003D01*
X539364Y787517D01*
X538030Y784296D01*
X535564Y781830D01*
X532343Y780496D01*
X528857Y780496D01*
G37*
%LPD*%
%LPC*%
G36*
X757457Y780496D02*
X757457Y780496D01*
X754236Y781830D01*
X751770Y784296D01*
X750436Y787517D01*
X750436Y791003D01*
X751770Y794224D01*
X754236Y796690D01*
X757457Y798024D01*
X760943Y798024D01*
X764164Y796690D01*
X766630Y794224D01*
X767964Y791003D01*
X767964Y787517D01*
X766630Y784296D01*
X764164Y781830D01*
X760943Y780496D01*
X757457Y780496D01*
G37*
%LPD*%
%LPC*%
G36*
X782857Y450296D02*
X782857Y450296D01*
X779636Y451630D01*
X777170Y454096D01*
X775836Y457317D01*
X775836Y460803D01*
X777170Y464024D01*
X779636Y466490D01*
X782857Y467824D01*
X786343Y467824D01*
X789564Y466490D01*
X792030Y464024D01*
X793364Y460803D01*
X793364Y457317D01*
X792030Y454096D01*
X789564Y451630D01*
X786343Y450296D01*
X782857Y450296D01*
G37*
%LPD*%
%LPC*%
G36*
X757457Y450296D02*
X757457Y450296D01*
X754236Y451630D01*
X751770Y454096D01*
X750436Y457317D01*
X750436Y460803D01*
X751770Y464024D01*
X754236Y466490D01*
X757457Y467824D01*
X760943Y467824D01*
X764164Y466490D01*
X766630Y464024D01*
X767964Y460803D01*
X767964Y457317D01*
X766630Y454096D01*
X764164Y451630D01*
X760943Y450296D01*
X757457Y450296D01*
G37*
%LPD*%
%LPC*%
G36*
X528857Y450296D02*
X528857Y450296D01*
X525636Y451630D01*
X523170Y454096D01*
X521836Y457317D01*
X521836Y460803D01*
X523170Y464024D01*
X525636Y466490D01*
X528857Y467824D01*
X532343Y467824D01*
X535564Y466490D01*
X538030Y464024D01*
X539364Y460803D01*
X539364Y457317D01*
X538030Y454096D01*
X535564Y451630D01*
X532343Y450296D01*
X528857Y450296D01*
G37*
%LPD*%
%LPC*%
G36*
X903128Y324611D02*
X903128Y324611D01*
X901074Y325462D01*
X899502Y327034D01*
X898651Y329088D01*
X898651Y331312D01*
X899502Y333366D01*
X901074Y334938D01*
X903128Y335789D01*
X905352Y335789D01*
X907406Y334938D01*
X908978Y333366D01*
X909829Y331312D01*
X909829Y329088D01*
X908978Y327034D01*
X907406Y325462D01*
X905352Y324611D01*
X903128Y324611D01*
G37*
%LPD*%
%LPC*%
G36*
X557688Y220471D02*
X557688Y220471D01*
X555634Y221322D01*
X554062Y222894D01*
X553211Y224948D01*
X553211Y227172D01*
X554062Y229226D01*
X555634Y230798D01*
X557688Y231649D01*
X559912Y231649D01*
X561966Y230798D01*
X563538Y229226D01*
X564389Y227172D01*
X564389Y224948D01*
X563538Y222894D01*
X561966Y221322D01*
X559912Y220471D01*
X557688Y220471D01*
G37*
%LPD*%
%LPC*%
G36*
X472399Y168999D02*
X472399Y168999D01*
X472399Y177339D01*
X473637Y176937D01*
X475368Y176055D01*
X476939Y174913D01*
X478313Y173539D01*
X479455Y171968D01*
X480337Y170237D01*
X480739Y168999D01*
X472399Y168999D01*
G37*
%LPD*%
%LPC*%
G36*
X817299Y168999D02*
X817299Y168999D01*
X817299Y177339D01*
X818537Y176937D01*
X820268Y176055D01*
X821839Y174913D01*
X823213Y173539D01*
X824355Y171968D01*
X825237Y170237D01*
X825639Y168999D01*
X817299Y168999D01*
G37*
%LPD*%
%LPC*%
G36*
X942299Y168999D02*
X942299Y168999D01*
X942299Y177339D01*
X943537Y176937D01*
X945268Y176055D01*
X946839Y174913D01*
X948213Y173539D01*
X949355Y171968D01*
X950237Y170237D01*
X950639Y168999D01*
X942299Y168999D01*
G37*
%LPD*%
%LPC*%
G36*
X347399Y168999D02*
X347399Y168999D01*
X347399Y177339D01*
X348637Y176937D01*
X350368Y176055D01*
X351939Y174913D01*
X353313Y173539D01*
X354455Y171968D01*
X355337Y170237D01*
X355739Y168999D01*
X347399Y168999D01*
G37*
%LPD*%
%LPC*%
G36*
X472399Y162001D02*
X472399Y162001D01*
X480739Y162001D01*
X480337Y160763D01*
X479455Y159032D01*
X478313Y157461D01*
X476939Y156087D01*
X475368Y154945D01*
X473637Y154063D01*
X472399Y153661D01*
X472399Y162001D01*
G37*
%LPD*%
%LPC*%
G36*
X801961Y168999D02*
X801961Y168999D01*
X802363Y170237D01*
X803245Y171968D01*
X804387Y173539D01*
X805761Y174913D01*
X807332Y176055D01*
X809063Y176937D01*
X810301Y177339D01*
X810301Y168999D01*
X801961Y168999D01*
G37*
%LPD*%
%LPC*%
G36*
X332061Y168999D02*
X332061Y168999D01*
X332463Y170237D01*
X333345Y171968D01*
X334487Y173539D01*
X335861Y174913D01*
X337432Y176055D01*
X339163Y176937D01*
X340401Y177339D01*
X340401Y168999D01*
X332061Y168999D01*
G37*
%LPD*%
%LPC*%
G36*
X817299Y162001D02*
X817299Y162001D01*
X825639Y162001D01*
X825237Y160763D01*
X824355Y159032D01*
X823213Y157461D01*
X821839Y156087D01*
X820268Y154945D01*
X818537Y154063D01*
X817299Y153661D01*
X817299Y162001D01*
G37*
%LPD*%
%LPC*%
G36*
X942299Y162001D02*
X942299Y162001D01*
X950639Y162001D01*
X950237Y160763D01*
X949355Y159032D01*
X948213Y157461D01*
X946839Y156087D01*
X945268Y154945D01*
X943537Y154063D01*
X942299Y153661D01*
X942299Y162001D01*
G37*
%LPD*%
%LPC*%
G36*
X347399Y162001D02*
X347399Y162001D01*
X355739Y162001D01*
X355337Y160763D01*
X354455Y159032D01*
X353313Y157461D01*
X351939Y156087D01*
X350368Y154945D01*
X348637Y154063D01*
X347399Y153661D01*
X347399Y162001D01*
G37*
%LPD*%
%LPC*%
G36*
X457061Y168999D02*
X457061Y168999D01*
X457463Y170237D01*
X458345Y171968D01*
X459487Y173539D01*
X460861Y174913D01*
X462432Y176055D01*
X464163Y176937D01*
X465401Y177339D01*
X465401Y168999D01*
X457061Y168999D01*
G37*
%LPD*%
%LPC*%
G36*
X926961Y168999D02*
X926961Y168999D01*
X927363Y170237D01*
X928245Y171968D01*
X929387Y173539D01*
X930761Y174913D01*
X932332Y176055D01*
X934063Y176937D01*
X935301Y177339D01*
X935301Y168999D01*
X926961Y168999D01*
G37*
%LPD*%
%LPC*%
G36*
X339163Y154063D02*
X339163Y154063D01*
X337432Y154945D01*
X335861Y156087D01*
X334487Y157461D01*
X333345Y159032D01*
X332463Y160763D01*
X332061Y162001D01*
X340401Y162001D01*
X340401Y153661D01*
X339163Y154063D01*
G37*
%LPD*%
%LPC*%
G36*
X464163Y154063D02*
X464163Y154063D01*
X462432Y154945D01*
X460861Y156087D01*
X459487Y157461D01*
X458345Y159032D01*
X457463Y160763D01*
X457061Y162001D01*
X465401Y162001D01*
X465401Y153661D01*
X464163Y154063D01*
G37*
%LPD*%
%LPC*%
G36*
X809063Y154063D02*
X809063Y154063D01*
X807332Y154945D01*
X805761Y156087D01*
X804387Y157461D01*
X803245Y159032D01*
X802363Y160763D01*
X801961Y162001D01*
X810301Y162001D01*
X810301Y153661D01*
X809063Y154063D01*
G37*
%LPD*%
%LPC*%
G36*
X934063Y154063D02*
X934063Y154063D01*
X932332Y154945D01*
X930761Y156087D01*
X929387Y157461D01*
X928245Y159032D01*
X927363Y160763D01*
X926961Y162001D01*
X935301Y162001D01*
X935301Y153661D01*
X934063Y154063D01*
G37*
%LPD*%
%LPC*%
G36*
X1095139Y256539D02*
X1095139Y256539D01*
X1095139Y263207D01*
X1096262Y262842D01*
X1097600Y262160D01*
X1098815Y261277D01*
X1099877Y260215D01*
X1100760Y259000D01*
X1101442Y257662D01*
X1101807Y256539D01*
X1095139Y256539D01*
G37*
%LPD*%
%LPC*%
G36*
X129939Y256539D02*
X129939Y256539D01*
X129939Y263207D01*
X131062Y262842D01*
X132400Y262160D01*
X133615Y261277D01*
X134677Y260215D01*
X135560Y259000D01*
X136242Y257662D01*
X136607Y256539D01*
X129939Y256539D01*
G37*
%LPD*%
%LPC*%
G36*
X1031239Y421639D02*
X1031239Y421639D01*
X1031239Y428307D01*
X1032362Y427942D01*
X1033700Y427260D01*
X1034915Y426377D01*
X1035977Y425315D01*
X1036860Y424100D01*
X1037542Y422762D01*
X1037907Y421639D01*
X1031239Y421639D01*
G37*
%LPD*%
%LPC*%
G36*
X118193Y256539D02*
X118193Y256539D01*
X118558Y257662D01*
X119240Y259000D01*
X120123Y260215D01*
X121185Y261277D01*
X122400Y262160D01*
X123738Y262842D01*
X124861Y263207D01*
X124861Y256539D01*
X118193Y256539D01*
G37*
%LPD*%
%LPC*%
G36*
X1083393Y256539D02*
X1083393Y256539D01*
X1083758Y257662D01*
X1084440Y259000D01*
X1085323Y260215D01*
X1086385Y261277D01*
X1087600Y262160D01*
X1088938Y262842D01*
X1090061Y263207D01*
X1090061Y256539D01*
X1083393Y256539D01*
G37*
%LPD*%
%LPC*%
G36*
X1019493Y421639D02*
X1019493Y421639D01*
X1019858Y422762D01*
X1020540Y424100D01*
X1021423Y425315D01*
X1022485Y426377D01*
X1023700Y427260D01*
X1025038Y427942D01*
X1026161Y428307D01*
X1026161Y421639D01*
X1019493Y421639D01*
G37*
%LPD*%
%LPC*%
G36*
X1031239Y416561D02*
X1031239Y416561D01*
X1037907Y416561D01*
X1037542Y415438D01*
X1036860Y414100D01*
X1035977Y412885D01*
X1034915Y411823D01*
X1033700Y410940D01*
X1032362Y410258D01*
X1031239Y409893D01*
X1031239Y416561D01*
G37*
%LPD*%
%LPC*%
G36*
X1095139Y251461D02*
X1095139Y251461D01*
X1101807Y251461D01*
X1101442Y250338D01*
X1100760Y249000D01*
X1099877Y247785D01*
X1098815Y246723D01*
X1097600Y245840D01*
X1096262Y245158D01*
X1095139Y244793D01*
X1095139Y251461D01*
G37*
%LPD*%
%LPC*%
G36*
X129939Y251461D02*
X129939Y251461D01*
X136607Y251461D01*
X136242Y250338D01*
X135560Y249000D01*
X134677Y247785D01*
X133615Y246723D01*
X132400Y245840D01*
X131062Y245158D01*
X129939Y244793D01*
X129939Y251461D01*
G37*
%LPD*%
%LPC*%
G36*
X1025038Y410258D02*
X1025038Y410258D01*
X1023700Y410940D01*
X1022485Y411823D01*
X1021423Y412885D01*
X1020540Y414100D01*
X1019858Y415438D01*
X1019493Y416561D01*
X1026161Y416561D01*
X1026161Y409893D01*
X1025038Y410258D01*
G37*
%LPD*%
%LPC*%
G36*
X1088938Y245158D02*
X1088938Y245158D01*
X1087600Y245840D01*
X1086385Y246723D01*
X1085323Y247785D01*
X1084440Y249000D01*
X1083758Y250338D01*
X1083393Y251461D01*
X1090061Y251461D01*
X1090061Y244793D01*
X1088938Y245158D01*
G37*
%LPD*%
%LPC*%
G36*
X123738Y245158D02*
X123738Y245158D01*
X122400Y245840D01*
X121185Y246723D01*
X120123Y247785D01*
X119240Y249000D01*
X118558Y250338D01*
X118193Y251461D01*
X124861Y251461D01*
X124861Y244793D01*
X123738Y245158D01*
G37*
%LPD*%
%LPC*%
G36*
X1094739Y872639D02*
X1094739Y872639D01*
X1094739Y878718D01*
X1095647Y878423D01*
X1096907Y877781D01*
X1098051Y876950D01*
X1099050Y875951D01*
X1099881Y874807D01*
X1100523Y873547D01*
X1100818Y872639D01*
X1094739Y872639D01*
G37*
%LPD*%
%LPC*%
G36*
X1094739Y867561D02*
X1094739Y867561D01*
X1100818Y867561D01*
X1100523Y866653D01*
X1099881Y865393D01*
X1099050Y864249D01*
X1098051Y863250D01*
X1096907Y862419D01*
X1095647Y861777D01*
X1094739Y861482D01*
X1094739Y867561D01*
G37*
%LPD*%
%LPC*%
G36*
X1083582Y872639D02*
X1083582Y872639D01*
X1083877Y873547D01*
X1084519Y874807D01*
X1085350Y875951D01*
X1086349Y876950D01*
X1087493Y877781D01*
X1088753Y878423D01*
X1089661Y878718D01*
X1089661Y872639D01*
X1083582Y872639D01*
G37*
%LPD*%
%LPC*%
G36*
X1088753Y861777D02*
X1088753Y861777D01*
X1087493Y862419D01*
X1086349Y863250D01*
X1085350Y864249D01*
X1084519Y865393D01*
X1083877Y866653D01*
X1083582Y867561D01*
X1089661Y867561D01*
X1089661Y861482D01*
X1088753Y861777D01*
G37*
%LPD*%
%LPC*%
G36*
X533139Y690199D02*
X533139Y690199D01*
X533139Y696050D01*
X533964Y695782D01*
X535193Y695155D01*
X536309Y694345D01*
X537285Y693369D01*
X538095Y692253D01*
X538722Y691024D01*
X538990Y690199D01*
X533139Y690199D01*
G37*
%LPD*%
%LPC*%
G36*
X533139Y613999D02*
X533139Y613999D01*
X533139Y619850D01*
X533964Y619582D01*
X535193Y618955D01*
X536309Y618145D01*
X537285Y617169D01*
X538095Y616053D01*
X538722Y614824D01*
X538990Y613999D01*
X533139Y613999D01*
G37*
%LPD*%
%LPC*%
G36*
X761739Y690199D02*
X761739Y690199D01*
X761739Y696050D01*
X762564Y695782D01*
X763793Y695155D01*
X764909Y694345D01*
X765885Y693369D01*
X766695Y692253D01*
X767322Y691024D01*
X767590Y690199D01*
X761739Y690199D01*
G37*
%LPD*%
%LPC*%
G36*
X507739Y690199D02*
X507739Y690199D01*
X507739Y696050D01*
X508564Y695782D01*
X509793Y695155D01*
X510909Y694345D01*
X511885Y693369D01*
X512695Y692253D01*
X513322Y691024D01*
X513590Y690199D01*
X507739Y690199D01*
G37*
%LPD*%
%LPC*%
G36*
X761739Y613999D02*
X761739Y613999D01*
X761739Y619850D01*
X762564Y619582D01*
X763793Y618955D01*
X764909Y618145D01*
X765885Y617169D01*
X766695Y616053D01*
X767322Y614824D01*
X767590Y613999D01*
X761739Y613999D01*
G37*
%LPD*%
%LPC*%
G36*
X761739Y608921D02*
X761739Y608921D01*
X767590Y608921D01*
X767322Y608096D01*
X766695Y606867D01*
X765885Y605751D01*
X764909Y604775D01*
X763793Y603965D01*
X762564Y603338D01*
X761739Y603070D01*
X761739Y608921D01*
G37*
%LPD*%
%LPC*%
G36*
X533139Y608921D02*
X533139Y608921D01*
X538990Y608921D01*
X538722Y608096D01*
X538095Y606867D01*
X537285Y605751D01*
X536309Y604775D01*
X535193Y603965D01*
X533964Y603338D01*
X533139Y603070D01*
X533139Y608921D01*
G37*
%LPD*%
%LPC*%
G36*
X496810Y690199D02*
X496810Y690199D01*
X497078Y691024D01*
X497705Y692253D01*
X498515Y693369D01*
X499491Y694345D01*
X500607Y695155D01*
X501836Y695782D01*
X502661Y696050D01*
X502661Y690199D01*
X496810Y690199D01*
G37*
%LPD*%
%LPC*%
G36*
X750810Y613999D02*
X750810Y613999D01*
X751078Y614824D01*
X751705Y616053D01*
X752515Y617169D01*
X753491Y618145D01*
X754607Y618955D01*
X755836Y619582D01*
X756661Y619850D01*
X756661Y613999D01*
X750810Y613999D01*
G37*
%LPD*%
%LPC*%
G36*
X522210Y613999D02*
X522210Y613999D01*
X522478Y614824D01*
X523105Y616053D01*
X523915Y617169D01*
X524891Y618145D01*
X526007Y618955D01*
X527236Y619582D01*
X528061Y619850D01*
X528061Y613999D01*
X522210Y613999D01*
G37*
%LPD*%
%LPC*%
G36*
X522210Y690199D02*
X522210Y690199D01*
X522478Y691024D01*
X523105Y692253D01*
X523915Y693369D01*
X524891Y694345D01*
X526007Y695155D01*
X527236Y695782D01*
X528061Y696050D01*
X528061Y690199D01*
X522210Y690199D01*
G37*
%LPD*%
%LPC*%
G36*
X507739Y685121D02*
X507739Y685121D01*
X513590Y685121D01*
X513322Y684296D01*
X512695Y683067D01*
X511885Y681951D01*
X510909Y680975D01*
X509793Y680165D01*
X508564Y679538D01*
X507739Y679270D01*
X507739Y685121D01*
G37*
%LPD*%
%LPC*%
G36*
X750810Y690199D02*
X750810Y690199D01*
X751078Y691024D01*
X751705Y692253D01*
X752515Y693369D01*
X753491Y694345D01*
X754607Y695155D01*
X755836Y695782D01*
X756661Y696050D01*
X756661Y690199D01*
X750810Y690199D01*
G37*
%LPD*%
%LPC*%
G36*
X533139Y685121D02*
X533139Y685121D01*
X538990Y685121D01*
X538722Y684296D01*
X538095Y683067D01*
X537285Y681951D01*
X536309Y680975D01*
X535193Y680165D01*
X533964Y679538D01*
X533139Y679270D01*
X533139Y685121D01*
G37*
%LPD*%
%LPC*%
G36*
X761739Y685121D02*
X761739Y685121D01*
X767590Y685121D01*
X767322Y684296D01*
X766695Y683067D01*
X765885Y681951D01*
X764909Y680975D01*
X763793Y680165D01*
X762564Y679538D01*
X761739Y679270D01*
X761739Y685121D01*
G37*
%LPD*%
%LPC*%
G36*
X755836Y679538D02*
X755836Y679538D01*
X754607Y680165D01*
X753491Y680975D01*
X752515Y681951D01*
X751705Y683067D01*
X751078Y684296D01*
X750810Y685121D01*
X756661Y685121D01*
X756661Y679270D01*
X755836Y679538D01*
G37*
%LPD*%
%LPC*%
G36*
X527236Y679538D02*
X527236Y679538D01*
X526007Y680165D01*
X524891Y680975D01*
X523915Y681951D01*
X523105Y683067D01*
X522478Y684296D01*
X522210Y685121D01*
X528061Y685121D01*
X528061Y679270D01*
X527236Y679538D01*
G37*
%LPD*%
%LPC*%
G36*
X501836Y679538D02*
X501836Y679538D01*
X500607Y680165D01*
X499491Y680975D01*
X498515Y681951D01*
X497705Y683067D01*
X497078Y684296D01*
X496810Y685121D01*
X502661Y685121D01*
X502661Y679270D01*
X501836Y679538D01*
G37*
%LPD*%
%LPC*%
G36*
X527236Y603338D02*
X527236Y603338D01*
X526007Y603965D01*
X524891Y604775D01*
X523915Y605751D01*
X523105Y606867D01*
X522478Y608096D01*
X522210Y608921D01*
X528061Y608921D01*
X528061Y603070D01*
X527236Y603338D01*
G37*
%LPD*%
%LPC*%
G36*
X755836Y603338D02*
X755836Y603338D01*
X754607Y603965D01*
X753491Y604775D01*
X752515Y605751D01*
X751705Y606867D01*
X751078Y608096D01*
X750810Y608921D01*
X756661Y608921D01*
X756661Y603070D01*
X755836Y603338D01*
G37*
%LPD*%
D10*
X505200Y865460D03*
X530600Y865460D03*
X505200Y840060D03*
X530600Y840060D03*
X505200Y814660D03*
X530600Y814660D03*
X505200Y789260D03*
X530600Y789260D03*
X505200Y763860D03*
X530600Y763860D03*
X505200Y738460D03*
X530600Y738460D03*
X505200Y713060D03*
X530600Y713060D03*
X505200Y687660D03*
X530600Y687660D03*
X505200Y662260D03*
X530600Y662260D03*
X505200Y636860D03*
X530600Y636860D03*
X505200Y611460D03*
X530600Y611460D03*
X505200Y586060D03*
X530600Y586060D03*
X505200Y560660D03*
X530600Y560660D03*
X505200Y535260D03*
X530600Y535260D03*
X505200Y509860D03*
X530600Y509860D03*
X505200Y484460D03*
X530600Y484460D03*
X505200Y459060D03*
X530600Y459060D03*
X505200Y433660D03*
X530600Y433660D03*
X759200Y865460D03*
X784600Y865460D03*
X759200Y840060D03*
X784600Y840060D03*
X759200Y814660D03*
X784600Y814660D03*
X759200Y789260D03*
X784600Y789260D03*
X759200Y763860D03*
X784600Y763860D03*
X759200Y738460D03*
X784600Y738460D03*
X759200Y713060D03*
X784600Y713060D03*
X759200Y687660D03*
X784600Y687660D03*
X759200Y662260D03*
X784600Y662260D03*
X759200Y636860D03*
X784600Y636860D03*
X759200Y611460D03*
X784600Y611460D03*
X759200Y586060D03*
X784600Y586060D03*
X759200Y560660D03*
X784600Y560660D03*
X759200Y535260D03*
X784600Y535260D03*
X759200Y509860D03*
X784600Y509860D03*
X759200Y484460D03*
X784600Y484460D03*
X759200Y459060D03*
X784600Y459060D03*
X759200Y433660D03*
X784600Y433660D03*
D11*
X1092200Y800100D03*
X1092200Y825100D03*
X1092200Y845100D03*
X1092200Y870100D03*
D12*
X1119300Y769400D03*
X1119300Y900800D03*
D13*
X1142600Y254000D03*
X1117600Y254000D03*
X1092600Y254000D03*
X177400Y254000D03*
X152400Y254000D03*
X127400Y254000D03*
D14*
X938800Y215500D03*
X938800Y165500D03*
X813800Y165500D03*
X813800Y215500D03*
X468900Y215500D03*
X468900Y165500D03*
X343900Y165500D03*
X343900Y215500D03*
D13*
X266700Y419100D03*
X266700Y444500D03*
X266700Y469900D03*
X266700Y495300D03*
X266700Y520700D03*
X266700Y546100D03*
X266700Y571500D03*
X266700Y596900D03*
X266700Y622300D03*
X266700Y647700D03*
X266700Y673100D03*
X266700Y698500D03*
X266700Y723900D03*
X266700Y749300D03*
X266700Y774700D03*
X266700Y800100D03*
X266700Y825500D03*
X266700Y850900D03*
X266700Y876300D03*
X266700Y901700D03*
X1028700Y419100D03*
X1028700Y444500D03*
X1028700Y469900D03*
X1028700Y495300D03*
X1028700Y520700D03*
X1028700Y546100D03*
X1028700Y571500D03*
X1028700Y596900D03*
X1028700Y622300D03*
X1028700Y647700D03*
X1028700Y673100D03*
X1028700Y698500D03*
X1028700Y723900D03*
X1028700Y749300D03*
X1028700Y774700D03*
X1028700Y800100D03*
X1028700Y825500D03*
X1028700Y850900D03*
X1028700Y876300D03*
X1028700Y901700D03*
D15*
X1028700Y374650D03*
X1028700Y946150D03*
X266700Y374650D03*
X266700Y946150D03*
D16*
X1231900Y977900D03*
X1231900Y38100D03*
X38100Y38100D03*
X38100Y965200D03*
D17*
X1117600Y647700D03*
X1117600Y622300D03*
X1117600Y601980D03*
X1155700Y601980D03*
X1155700Y622300D03*
X1155700Y647700D03*
X127000Y269240D03*
X1092200Y276860D03*
X426720Y955040D03*
X591820Y965200D03*
X739140Y965200D03*
X886460Y965200D03*
X904240Y330200D03*
X558800Y226060D03*
M02*
