G04 EAGLE Gerber RS-274X export*
G75*
%MOMM*%
%FSLAX34Y34*%
%LPD*%
%INTop Copper*%
%IPPOS*%
%AMOC8*
5,1,8,0,0,1.08239X$1,22.5*%
G01*
%ADD10R,1.524000X1.524000*%
%ADD11P,1.649562X8X292.500000*%
%ADD12R,1.288000X1.288000*%
%ADD13C,1.288000*%
%ADD14C,3.220000*%
%ADD15C,1.400000*%
%ADD16C,1.960000*%
%ADD17R,0.609600X0.508000*%
%ADD18R,1.676400X1.676400*%
%ADD19C,1.676400*%
%ADD20C,4.016000*%
%ADD21R,2.000000X4.100000*%
%ADD22C,4.445000*%
%ADD23R,0.949959X1.031241*%
%ADD24C,1.016000*%
%ADD25C,0.609600*%
%ADD26C,0.254000*%
%ADD27C,0.508000*%

G36*
X1267444Y1012308D02*
X1267444Y1012308D01*
X1267437Y1012427D01*
X1267424Y1012465D01*
X1267419Y1012506D01*
X1267376Y1012616D01*
X1267339Y1012729D01*
X1267317Y1012764D01*
X1267302Y1012801D01*
X1267233Y1012897D01*
X1267169Y1012998D01*
X1267139Y1013026D01*
X1267116Y1013059D01*
X1267024Y1013135D01*
X1266937Y1013216D01*
X1266902Y1013236D01*
X1266871Y1013261D01*
X1266763Y1013312D01*
X1266659Y1013370D01*
X1266619Y1013380D01*
X1266583Y1013397D01*
X1266466Y1013419D01*
X1266351Y1013449D01*
X1266291Y1013453D01*
X1266271Y1013457D01*
X1266250Y1013455D01*
X1266190Y1013459D01*
X3810Y1013459D01*
X3692Y1013444D01*
X3573Y1013437D01*
X3535Y1013424D01*
X3494Y1013419D01*
X3384Y1013376D01*
X3271Y1013339D01*
X3236Y1013317D01*
X3199Y1013302D01*
X3103Y1013233D01*
X3002Y1013169D01*
X2974Y1013139D01*
X2941Y1013116D01*
X2865Y1013024D01*
X2784Y1012937D01*
X2764Y1012902D01*
X2739Y1012871D01*
X2688Y1012763D01*
X2630Y1012659D01*
X2620Y1012619D01*
X2603Y1012583D01*
X2581Y1012466D01*
X2551Y1012351D01*
X2547Y1012291D01*
X2543Y1012271D01*
X2545Y1012250D01*
X2541Y1012190D01*
X2541Y3810D01*
X2556Y3692D01*
X2563Y3573D01*
X2576Y3535D01*
X2581Y3494D01*
X2624Y3384D01*
X2661Y3271D01*
X2683Y3236D01*
X2698Y3199D01*
X2767Y3103D01*
X2831Y3002D01*
X2861Y2974D01*
X2884Y2941D01*
X2976Y2865D01*
X3063Y2784D01*
X3098Y2764D01*
X3129Y2739D01*
X3237Y2688D01*
X3341Y2630D01*
X3381Y2620D01*
X3417Y2603D01*
X3534Y2581D01*
X3649Y2551D01*
X3709Y2547D01*
X3729Y2543D01*
X3750Y2545D01*
X3810Y2541D01*
X1266190Y2541D01*
X1266308Y2556D01*
X1266427Y2563D01*
X1266465Y2576D01*
X1266506Y2581D01*
X1266616Y2624D01*
X1266729Y2661D01*
X1266764Y2683D01*
X1266801Y2698D01*
X1266897Y2767D01*
X1266998Y2831D01*
X1267026Y2861D01*
X1267059Y2884D01*
X1267135Y2976D01*
X1267216Y3063D01*
X1267236Y3098D01*
X1267261Y3129D01*
X1267312Y3237D01*
X1267370Y3341D01*
X1267380Y3381D01*
X1267397Y3417D01*
X1267419Y3534D01*
X1267449Y3649D01*
X1267453Y3709D01*
X1267457Y3729D01*
X1267455Y3750D01*
X1267459Y3810D01*
X1267459Y1012190D01*
X1267444Y1012308D01*
G37*
%LPC*%
G36*
X32385Y938531D02*
X32385Y938531D01*
X32402Y938533D01*
X32419Y938531D01*
X32559Y938553D01*
X32700Y938571D01*
X32716Y938577D01*
X32733Y938580D01*
X32864Y938635D01*
X32996Y938688D01*
X33010Y938698D01*
X33025Y938704D01*
X33138Y938791D01*
X33253Y938874D01*
X33264Y938888D01*
X33278Y938898D01*
X33365Y939010D01*
X33456Y939119D01*
X33463Y939135D01*
X33474Y939148D01*
X33531Y939279D01*
X33591Y939407D01*
X33595Y939424D01*
X33602Y939440D01*
X33625Y939581D01*
X33651Y939720D01*
X33650Y939737D01*
X33653Y939754D01*
X33640Y939895D01*
X33631Y940037D01*
X33626Y940053D01*
X33625Y940070D01*
X33577Y940204D01*
X33533Y940339D01*
X33524Y940354D01*
X33519Y940370D01*
X33439Y940488D01*
X33363Y940608D01*
X33351Y940620D01*
X33341Y940634D01*
X33235Y940729D01*
X33132Y940826D01*
X33117Y940834D01*
X33104Y940846D01*
X32978Y940911D01*
X32853Y940980D01*
X32837Y940984D01*
X32821Y940992D01*
X32667Y941037D01*
X31233Y941365D01*
X28608Y942283D01*
X26101Y943490D01*
X23746Y944970D01*
X21571Y946705D01*
X19605Y948671D01*
X17870Y950846D01*
X16390Y953201D01*
X15183Y955708D01*
X14265Y958333D01*
X13646Y961045D01*
X13464Y962661D01*
X36830Y962661D01*
X36948Y962676D01*
X37067Y962683D01*
X37105Y962696D01*
X37145Y962701D01*
X37256Y962744D01*
X37369Y962781D01*
X37403Y962803D01*
X37441Y962818D01*
X37537Y962888D01*
X37638Y962951D01*
X37666Y962981D01*
X37698Y963004D01*
X37774Y963096D01*
X37856Y963183D01*
X37875Y963218D01*
X37901Y963249D01*
X37952Y963357D01*
X38009Y963461D01*
X38020Y963501D01*
X38037Y963537D01*
X38059Y963654D01*
X38089Y963769D01*
X38093Y963830D01*
X38097Y963850D01*
X38095Y963870D01*
X38099Y963930D01*
X38099Y965201D01*
X38101Y965201D01*
X38101Y963930D01*
X38116Y963812D01*
X38123Y963693D01*
X38136Y963655D01*
X38141Y963614D01*
X38185Y963504D01*
X38221Y963391D01*
X38243Y963356D01*
X38258Y963319D01*
X38328Y963223D01*
X38391Y963122D01*
X38421Y963094D01*
X38445Y963061D01*
X38536Y962986D01*
X38623Y962904D01*
X38658Y962884D01*
X38690Y962859D01*
X38797Y962808D01*
X38902Y962750D01*
X38941Y962740D01*
X38977Y962723D01*
X39094Y962701D01*
X39209Y962671D01*
X39270Y962667D01*
X39290Y962663D01*
X39310Y962665D01*
X39370Y962661D01*
X62736Y962661D01*
X62554Y961045D01*
X61935Y958333D01*
X61017Y955708D01*
X59810Y953201D01*
X58330Y950846D01*
X56595Y948671D01*
X54629Y946705D01*
X52454Y944970D01*
X50099Y943490D01*
X47592Y942283D01*
X44967Y941365D01*
X43533Y941037D01*
X43517Y941032D01*
X43500Y941029D01*
X43368Y940977D01*
X43234Y940928D01*
X43220Y940919D01*
X43204Y940912D01*
X43089Y940829D01*
X42972Y940749D01*
X42961Y940736D01*
X42947Y940726D01*
X42856Y940616D01*
X42763Y940509D01*
X42755Y940494D01*
X42744Y940481D01*
X42684Y940352D01*
X42620Y940225D01*
X42616Y940208D01*
X42609Y940193D01*
X42582Y940054D01*
X42551Y939914D01*
X42552Y939897D01*
X42549Y939881D01*
X42558Y939739D01*
X42563Y939597D01*
X42567Y939580D01*
X42569Y939563D01*
X42612Y939428D01*
X42653Y939292D01*
X42661Y939277D01*
X42667Y939261D01*
X42743Y939140D01*
X42815Y939018D01*
X42828Y939006D01*
X42837Y938992D01*
X42941Y938894D01*
X43041Y938794D01*
X43056Y938786D01*
X43068Y938774D01*
X43193Y938705D01*
X43315Y938633D01*
X43332Y938629D01*
X43347Y938620D01*
X43484Y938585D01*
X43621Y938546D01*
X43638Y938545D01*
X43655Y938541D01*
X43815Y938531D01*
X76200Y938531D01*
X76318Y938546D01*
X76437Y938553D01*
X76475Y938566D01*
X76516Y938571D01*
X76626Y938614D01*
X76739Y938651D01*
X76774Y938673D01*
X76811Y938688D01*
X76907Y938758D01*
X77008Y938821D01*
X77036Y938851D01*
X77069Y938874D01*
X77145Y938966D01*
X77226Y939053D01*
X77246Y939088D01*
X77271Y939119D01*
X77322Y939227D01*
X77380Y939331D01*
X77390Y939371D01*
X77407Y939407D01*
X77429Y939524D01*
X77459Y939639D01*
X77463Y939700D01*
X77467Y939720D01*
X77465Y939740D01*
X77469Y939800D01*
X77469Y989331D01*
X405131Y989331D01*
X405131Y965200D01*
X405146Y965082D01*
X405153Y964963D01*
X405166Y964925D01*
X405171Y964884D01*
X405214Y964774D01*
X405251Y964661D01*
X405273Y964626D01*
X405288Y964589D01*
X405358Y964493D01*
X405421Y964392D01*
X405451Y964364D01*
X405474Y964331D01*
X405566Y964256D01*
X405653Y964174D01*
X405688Y964154D01*
X405719Y964129D01*
X405827Y964078D01*
X405931Y964020D01*
X405971Y964010D01*
X406007Y963993D01*
X406124Y963971D01*
X406239Y963941D01*
X406300Y963937D01*
X406320Y963933D01*
X406340Y963935D01*
X406400Y963931D01*
X427939Y963931D01*
X428057Y963946D01*
X428176Y963953D01*
X428215Y963966D01*
X428255Y963971D01*
X428366Y964014D01*
X428479Y964051D01*
X428513Y964073D01*
X428550Y964088D01*
X428647Y964158D01*
X428747Y964221D01*
X428775Y964251D01*
X428808Y964274D01*
X428884Y964366D01*
X428965Y964453D01*
X428985Y964488D01*
X429011Y964519D01*
X429061Y964627D01*
X429119Y964731D01*
X429129Y964771D01*
X429146Y964807D01*
X429168Y964924D01*
X429198Y965039D01*
X429202Y965100D01*
X429206Y965120D01*
X429205Y965140D01*
X429208Y965200D01*
X429208Y971409D01*
X430697Y972897D01*
X442301Y972897D01*
X443657Y971541D01*
X443756Y971464D01*
X443851Y971382D01*
X443881Y971367D01*
X443908Y971346D01*
X444023Y971296D01*
X444136Y971240D01*
X444169Y971233D01*
X444200Y971220D01*
X444324Y971200D01*
X444447Y971174D01*
X444481Y971175D01*
X444514Y971170D01*
X444639Y971182D01*
X444765Y971187D01*
X444797Y971197D01*
X444831Y971200D01*
X444949Y971243D01*
X445069Y971279D01*
X445098Y971296D01*
X445130Y971308D01*
X445234Y971378D01*
X445342Y971443D01*
X445365Y971467D01*
X445393Y971486D01*
X445476Y971580D01*
X445564Y971670D01*
X445591Y971711D01*
X445604Y971725D01*
X445613Y971744D01*
X445653Y971804D01*
X445718Y971916D01*
X446191Y972389D01*
X446770Y972724D01*
X447417Y972897D01*
X450127Y972897D01*
X450127Y966305D01*
X450142Y966187D01*
X450149Y966068D01*
X450162Y966030D01*
X450167Y965990D01*
X450211Y965879D01*
X450247Y965766D01*
X450269Y965731D01*
X450284Y965694D01*
X450354Y965598D01*
X450417Y965497D01*
X450447Y965469D01*
X450471Y965437D01*
X450562Y965361D01*
X450649Y965279D01*
X450684Y965260D01*
X450716Y965234D01*
X450823Y965183D01*
X450927Y965126D01*
X450967Y965115D01*
X451003Y965098D01*
X451120Y965076D01*
X451235Y965046D01*
X451296Y965042D01*
X451316Y965038D01*
X451336Y965040D01*
X451396Y965036D01*
X453606Y965036D01*
X453724Y965051D01*
X453843Y965058D01*
X453881Y965071D01*
X453921Y965076D01*
X454032Y965120D01*
X454145Y965156D01*
X454180Y965178D01*
X454217Y965193D01*
X454313Y965263D01*
X454414Y965326D01*
X454442Y965356D01*
X454474Y965380D01*
X454550Y965471D01*
X454632Y965558D01*
X454651Y965593D01*
X454677Y965625D01*
X454728Y965732D01*
X454785Y965836D01*
X454796Y965876D01*
X454813Y965912D01*
X454835Y966029D01*
X454865Y966144D01*
X454869Y966205D01*
X454873Y966225D01*
X454871Y966245D01*
X454875Y966305D01*
X454875Y972897D01*
X457200Y972897D01*
X457318Y972912D01*
X457437Y972919D01*
X457475Y972932D01*
X457516Y972937D01*
X457626Y972981D01*
X457739Y973017D01*
X457774Y973039D01*
X457811Y973054D01*
X457907Y973124D01*
X458008Y973187D01*
X458036Y973217D01*
X458069Y973241D01*
X458145Y973332D01*
X458226Y973419D01*
X458246Y973454D01*
X458271Y973486D01*
X458322Y973593D01*
X458380Y973698D01*
X458390Y973737D01*
X458407Y973773D01*
X458429Y973890D01*
X458459Y974005D01*
X458463Y974066D01*
X458467Y974086D01*
X458465Y974106D01*
X458469Y974166D01*
X458469Y989331D01*
X1192531Y989331D01*
X1192531Y939800D01*
X1192546Y939682D01*
X1192553Y939563D01*
X1192566Y939525D01*
X1192571Y939484D01*
X1192614Y939374D01*
X1192651Y939261D01*
X1192673Y939226D01*
X1192688Y939189D01*
X1192758Y939093D01*
X1192821Y938992D01*
X1192851Y938964D01*
X1192874Y938931D01*
X1192966Y938856D01*
X1193053Y938774D01*
X1193088Y938754D01*
X1193119Y938729D01*
X1193227Y938678D01*
X1193331Y938620D01*
X1193371Y938610D01*
X1193407Y938593D01*
X1193524Y938571D01*
X1193639Y938541D01*
X1193700Y938537D01*
X1193720Y938533D01*
X1193740Y938535D01*
X1193800Y938531D01*
X1243331Y938531D01*
X1243331Y77469D01*
X1193800Y77469D01*
X1193682Y77454D01*
X1193563Y77447D01*
X1193525Y77434D01*
X1193484Y77429D01*
X1193374Y77386D01*
X1193261Y77349D01*
X1193226Y77327D01*
X1193189Y77312D01*
X1193093Y77243D01*
X1192992Y77179D01*
X1192964Y77149D01*
X1192931Y77126D01*
X1192856Y77034D01*
X1192774Y76947D01*
X1192754Y76912D01*
X1192729Y76881D01*
X1192678Y76773D01*
X1192620Y76669D01*
X1192610Y76629D01*
X1192593Y76593D01*
X1192571Y76476D01*
X1192541Y76361D01*
X1192537Y76301D01*
X1192533Y76281D01*
X1192535Y76260D01*
X1192531Y76200D01*
X1192531Y26669D01*
X77469Y26669D01*
X77469Y76200D01*
X77454Y76318D01*
X77447Y76437D01*
X77434Y76475D01*
X77429Y76516D01*
X77386Y76626D01*
X77349Y76739D01*
X77327Y76774D01*
X77312Y76811D01*
X77243Y76907D01*
X77179Y77008D01*
X77149Y77036D01*
X77126Y77069D01*
X77034Y77145D01*
X76947Y77226D01*
X76912Y77246D01*
X76881Y77271D01*
X76773Y77322D01*
X76669Y77380D01*
X76629Y77390D01*
X76593Y77407D01*
X76476Y77429D01*
X76361Y77459D01*
X76301Y77463D01*
X76281Y77467D01*
X76260Y77465D01*
X76200Y77469D01*
X26669Y77469D01*
X26669Y938531D01*
X32385Y938531D01*
G37*
%LPD*%
G36*
X1163355Y591824D02*
X1163355Y591824D01*
X1163389Y591822D01*
X1163578Y591844D01*
X1163769Y591861D01*
X1163802Y591870D01*
X1163836Y591874D01*
X1164019Y591929D01*
X1164203Y591979D01*
X1164234Y591994D01*
X1164267Y592004D01*
X1164438Y592091D01*
X1164610Y592173D01*
X1164638Y592193D01*
X1164669Y592208D01*
X1164821Y592324D01*
X1164976Y592435D01*
X1165000Y592460D01*
X1165027Y592480D01*
X1165156Y592621D01*
X1165290Y592757D01*
X1165309Y592786D01*
X1165333Y592812D01*
X1165435Y592973D01*
X1165542Y593130D01*
X1165556Y593162D01*
X1165574Y593191D01*
X1165647Y593368D01*
X1165724Y593542D01*
X1165732Y593576D01*
X1165745Y593608D01*
X1165785Y593795D01*
X1165831Y593980D01*
X1165833Y594014D01*
X1165840Y594048D01*
X1165859Y594360D01*
X1165859Y655320D01*
X1165857Y655347D01*
X1165858Y655371D01*
X1165858Y655377D01*
X1165858Y655389D01*
X1165836Y655578D01*
X1165819Y655769D01*
X1165810Y655802D01*
X1165806Y655836D01*
X1165751Y656019D01*
X1165701Y656203D01*
X1165686Y656234D01*
X1165676Y656267D01*
X1165589Y656438D01*
X1165507Y656610D01*
X1165487Y656638D01*
X1165472Y656669D01*
X1165356Y656821D01*
X1165245Y656976D01*
X1165220Y657000D01*
X1165200Y657027D01*
X1165060Y657156D01*
X1164923Y657290D01*
X1164894Y657309D01*
X1164868Y657333D01*
X1164707Y657435D01*
X1164550Y657542D01*
X1164518Y657556D01*
X1164489Y657574D01*
X1164312Y657647D01*
X1164138Y657724D01*
X1164104Y657732D01*
X1164072Y657745D01*
X1163885Y657785D01*
X1163700Y657831D01*
X1163666Y657833D01*
X1163632Y657840D01*
X1163320Y657859D01*
X1112520Y657859D01*
X1112486Y657856D01*
X1112451Y657858D01*
X1112262Y657836D01*
X1112072Y657819D01*
X1112038Y657810D01*
X1112004Y657806D01*
X1111821Y657751D01*
X1111637Y657701D01*
X1111606Y657686D01*
X1111573Y657676D01*
X1111402Y657589D01*
X1111231Y657507D01*
X1111202Y657487D01*
X1111171Y657472D01*
X1111019Y657356D01*
X1110864Y657245D01*
X1110840Y657220D01*
X1110813Y657200D01*
X1110684Y657060D01*
X1110550Y656923D01*
X1110531Y656894D01*
X1110508Y656868D01*
X1110405Y656707D01*
X1110298Y656550D01*
X1110284Y656518D01*
X1110266Y656489D01*
X1110193Y656312D01*
X1110116Y656138D01*
X1110108Y656104D01*
X1110095Y656072D01*
X1110055Y655885D01*
X1110009Y655700D01*
X1110007Y655666D01*
X1110000Y655632D01*
X1109981Y655320D01*
X1109981Y594360D01*
X1109984Y594326D01*
X1109982Y594291D01*
X1110004Y594102D01*
X1110021Y593912D01*
X1110030Y593878D01*
X1110034Y593844D01*
X1110089Y593661D01*
X1110139Y593477D01*
X1110154Y593446D01*
X1110164Y593413D01*
X1110251Y593242D01*
X1110333Y593071D01*
X1110353Y593042D01*
X1110368Y593011D01*
X1110484Y592859D01*
X1110595Y592704D01*
X1110620Y592680D01*
X1110640Y592653D01*
X1110781Y592524D01*
X1110917Y592390D01*
X1110946Y592371D01*
X1110972Y592348D01*
X1111133Y592245D01*
X1111290Y592138D01*
X1111322Y592124D01*
X1111351Y592106D01*
X1111528Y592033D01*
X1111702Y591956D01*
X1111736Y591948D01*
X1111768Y591935D01*
X1111955Y591895D01*
X1112140Y591849D01*
X1112174Y591847D01*
X1112208Y591840D01*
X1112520Y591821D01*
X1163320Y591821D01*
X1163355Y591824D01*
G37*
%LPC*%
G36*
X1234439Y40639D02*
X1234439Y40639D01*
X1234439Y62736D01*
X1236055Y62554D01*
X1238767Y61935D01*
X1241392Y61017D01*
X1243899Y59810D01*
X1246254Y58330D01*
X1248429Y56595D01*
X1250395Y54629D01*
X1252130Y52454D01*
X1253610Y50099D01*
X1254817Y47592D01*
X1255735Y44967D01*
X1256354Y42255D01*
X1256536Y40639D01*
X1234439Y40639D01*
G37*
%LPD*%
%LPC*%
G36*
X40639Y967739D02*
X40639Y967739D01*
X40639Y989836D01*
X42255Y989654D01*
X44967Y989035D01*
X47592Y988117D01*
X50099Y986910D01*
X52454Y985430D01*
X54629Y983695D01*
X56595Y981729D01*
X58330Y979554D01*
X59810Y977199D01*
X61017Y974692D01*
X61935Y972067D01*
X62554Y969355D01*
X62736Y967739D01*
X40639Y967739D01*
G37*
%LPD*%
%LPC*%
G36*
X1234439Y980439D02*
X1234439Y980439D01*
X1234439Y1002536D01*
X1236055Y1002354D01*
X1238767Y1001735D01*
X1241392Y1000817D01*
X1243899Y999610D01*
X1246254Y998130D01*
X1248429Y996395D01*
X1250395Y994429D01*
X1252130Y992254D01*
X1253610Y989899D01*
X1254817Y987392D01*
X1255735Y984767D01*
X1256354Y982055D01*
X1256536Y980439D01*
X1234439Y980439D01*
G37*
%LPD*%
%LPC*%
G36*
X40639Y40639D02*
X40639Y40639D01*
X40639Y62736D01*
X42255Y62554D01*
X44967Y61935D01*
X47592Y61017D01*
X50099Y59810D01*
X52454Y58330D01*
X54629Y56595D01*
X56595Y54629D01*
X58330Y52454D01*
X59810Y50099D01*
X61017Y47592D01*
X61935Y44967D01*
X62554Y42255D01*
X62736Y40639D01*
X40639Y40639D01*
G37*
%LPD*%
%LPC*%
G36*
X13464Y967739D02*
X13464Y967739D01*
X13646Y969355D01*
X14265Y972067D01*
X15183Y974692D01*
X16390Y977199D01*
X17870Y979554D01*
X19605Y981729D01*
X21571Y983695D01*
X23746Y985430D01*
X26101Y986910D01*
X28608Y988117D01*
X31233Y989035D01*
X33945Y989654D01*
X35561Y989836D01*
X35561Y967739D01*
X13464Y967739D01*
G37*
%LPD*%
%LPC*%
G36*
X1234439Y35561D02*
X1234439Y35561D01*
X1256536Y35561D01*
X1256354Y33945D01*
X1255735Y31233D01*
X1254817Y28608D01*
X1253610Y26101D01*
X1252130Y23746D01*
X1250395Y21571D01*
X1248429Y19605D01*
X1246254Y17870D01*
X1243899Y16390D01*
X1241392Y15183D01*
X1238767Y14265D01*
X1236055Y13646D01*
X1234439Y13464D01*
X1234439Y35561D01*
G37*
%LPD*%
%LPC*%
G36*
X1207264Y980439D02*
X1207264Y980439D01*
X1207446Y982055D01*
X1208065Y984767D01*
X1208983Y987392D01*
X1210190Y989899D01*
X1211670Y992254D01*
X1213405Y994429D01*
X1215371Y996395D01*
X1217546Y998130D01*
X1219901Y999610D01*
X1222408Y1000817D01*
X1225033Y1001735D01*
X1227745Y1002354D01*
X1229361Y1002536D01*
X1229361Y980439D01*
X1207264Y980439D01*
G37*
%LPD*%
%LPC*%
G36*
X1207264Y40639D02*
X1207264Y40639D01*
X1207446Y42255D01*
X1208065Y44967D01*
X1208983Y47592D01*
X1210190Y50099D01*
X1211670Y52454D01*
X1213405Y54629D01*
X1215371Y56595D01*
X1217546Y58330D01*
X1219901Y59810D01*
X1222408Y61017D01*
X1225033Y61935D01*
X1227745Y62554D01*
X1229361Y62736D01*
X1229361Y40639D01*
X1207264Y40639D01*
G37*
%LPD*%
%LPC*%
G36*
X13464Y40639D02*
X13464Y40639D01*
X13646Y42255D01*
X14265Y44967D01*
X15183Y47592D01*
X16390Y50099D01*
X17870Y52454D01*
X19605Y54629D01*
X21571Y56595D01*
X23746Y58330D01*
X26101Y59810D01*
X28608Y61017D01*
X31233Y61935D01*
X33945Y62554D01*
X35561Y62736D01*
X35561Y40639D01*
X13464Y40639D01*
G37*
%LPD*%
%LPC*%
G36*
X40639Y35561D02*
X40639Y35561D01*
X62736Y35561D01*
X62554Y33945D01*
X61935Y31233D01*
X61017Y28608D01*
X59810Y26101D01*
X58330Y23746D01*
X56595Y21571D01*
X54629Y19605D01*
X52454Y17870D01*
X50099Y16390D01*
X47592Y15183D01*
X44967Y14265D01*
X42255Y13646D01*
X40639Y13464D01*
X40639Y35561D01*
G37*
%LPD*%
%LPC*%
G36*
X1234439Y975361D02*
X1234439Y975361D01*
X1256536Y975361D01*
X1256354Y973745D01*
X1255735Y971033D01*
X1254817Y968408D01*
X1253610Y965901D01*
X1252130Y963546D01*
X1250395Y961371D01*
X1248429Y959405D01*
X1246254Y957670D01*
X1243899Y956190D01*
X1241392Y954983D01*
X1238767Y954065D01*
X1236055Y953446D01*
X1234439Y953264D01*
X1234439Y975361D01*
G37*
%LPD*%
%LPC*%
G36*
X33945Y13646D02*
X33945Y13646D01*
X31233Y14265D01*
X28608Y15183D01*
X26101Y16390D01*
X23746Y17870D01*
X21571Y19605D01*
X19605Y21571D01*
X17870Y23746D01*
X16390Y26101D01*
X15183Y28608D01*
X14265Y31233D01*
X13646Y33945D01*
X13464Y35561D01*
X35561Y35561D01*
X35561Y13464D01*
X33945Y13646D01*
G37*
%LPD*%
%LPC*%
G36*
X1227745Y13646D02*
X1227745Y13646D01*
X1225033Y14265D01*
X1222408Y15183D01*
X1219901Y16390D01*
X1217546Y17870D01*
X1215371Y19605D01*
X1213405Y21571D01*
X1211670Y23746D01*
X1210190Y26101D01*
X1208983Y28608D01*
X1208065Y31233D01*
X1207446Y33945D01*
X1207264Y35561D01*
X1229361Y35561D01*
X1229361Y13464D01*
X1227745Y13646D01*
G37*
%LPD*%
%LPC*%
G36*
X1227745Y953446D02*
X1227745Y953446D01*
X1225033Y954065D01*
X1222408Y954983D01*
X1219901Y956190D01*
X1217546Y957670D01*
X1215371Y959405D01*
X1213405Y961371D01*
X1211670Y963546D01*
X1210190Y965901D01*
X1208983Y968408D01*
X1208065Y971033D01*
X1207446Y973745D01*
X1207264Y975361D01*
X1229361Y975361D01*
X1229361Y953264D01*
X1227745Y953446D01*
G37*
%LPD*%
%LPC*%
G36*
X1141649Y628249D02*
X1141649Y628249D01*
X1141649Y646291D01*
X1146985Y646291D01*
X1147631Y646118D01*
X1148210Y645783D01*
X1148683Y645310D01*
X1149018Y644731D01*
X1149191Y644085D01*
X1149191Y628249D01*
X1141649Y628249D01*
G37*
%LPD*%
%LPC*%
G36*
X1141649Y600209D02*
X1141649Y600209D01*
X1141649Y618251D01*
X1149191Y618251D01*
X1149191Y602415D01*
X1149018Y601769D01*
X1148683Y601190D01*
X1148210Y600717D01*
X1147631Y600382D01*
X1146985Y600209D01*
X1141649Y600209D01*
G37*
%LPD*%
%LPC*%
G36*
X1126315Y600209D02*
X1126315Y600209D01*
X1125669Y600382D01*
X1125090Y600717D01*
X1124617Y601190D01*
X1124282Y601769D01*
X1124109Y602415D01*
X1124109Y618251D01*
X1131651Y618251D01*
X1131651Y600209D01*
X1126315Y600209D01*
G37*
%LPD*%
%LPC*%
G36*
X1124109Y628249D02*
X1124109Y628249D01*
X1124109Y644085D01*
X1124282Y644731D01*
X1124617Y645310D01*
X1125090Y645783D01*
X1125669Y646118D01*
X1126315Y646291D01*
X1131651Y646291D01*
X1131651Y628249D01*
X1124109Y628249D01*
G37*
%LPD*%
%LPC*%
G36*
X1231899Y38099D02*
X1231899Y38099D01*
X1231899Y38101D01*
X1231901Y38101D01*
X1231901Y38099D01*
X1231899Y38099D01*
G37*
%LPD*%
%LPC*%
G36*
X1231899Y977899D02*
X1231899Y977899D01*
X1231899Y977901D01*
X1231901Y977901D01*
X1231901Y977899D01*
X1231899Y977899D01*
G37*
%LPD*%
%LPC*%
G36*
X38099Y38099D02*
X38099Y38099D01*
X38099Y38101D01*
X38101Y38101D01*
X38101Y38099D01*
X38099Y38099D01*
G37*
%LPD*%
D10*
X505200Y865460D03*
D11*
X530600Y865460D03*
X505200Y840060D03*
X530600Y840060D03*
X505200Y814660D03*
X530600Y814660D03*
X505200Y789260D03*
X530600Y789260D03*
X505200Y763860D03*
X530600Y763860D03*
X505200Y738460D03*
X530600Y738460D03*
X505200Y713060D03*
X530600Y713060D03*
X505200Y687660D03*
X530600Y687660D03*
X505200Y662260D03*
X530600Y662260D03*
X505200Y636860D03*
X530600Y636860D03*
X505200Y611460D03*
X530600Y611460D03*
X505200Y586060D03*
X530600Y586060D03*
X505200Y560660D03*
X530600Y560660D03*
X505200Y535260D03*
X530600Y535260D03*
X505200Y509860D03*
X530600Y509860D03*
X505200Y484460D03*
X530600Y484460D03*
X505200Y459060D03*
X530600Y459060D03*
X505200Y433660D03*
X530600Y433660D03*
D10*
X759200Y865460D03*
D11*
X784600Y865460D03*
X759200Y840060D03*
X784600Y840060D03*
X759200Y814660D03*
X784600Y814660D03*
X759200Y789260D03*
X784600Y789260D03*
X759200Y763860D03*
X784600Y763860D03*
X759200Y738460D03*
X784600Y738460D03*
X759200Y713060D03*
X784600Y713060D03*
X759200Y687660D03*
X784600Y687660D03*
X759200Y662260D03*
X784600Y662260D03*
X759200Y636860D03*
X784600Y636860D03*
X759200Y611460D03*
X784600Y611460D03*
X759200Y586060D03*
X784600Y586060D03*
X759200Y560660D03*
X784600Y560660D03*
X759200Y535260D03*
X784600Y535260D03*
X759200Y509860D03*
X784600Y509860D03*
X759200Y484460D03*
X784600Y484460D03*
X759200Y459060D03*
X784600Y459060D03*
X759200Y433660D03*
X784600Y433660D03*
D12*
X1092200Y800100D03*
D13*
X1092200Y825100D03*
X1092200Y845100D03*
X1092200Y870100D03*
D14*
X1119300Y769400D03*
X1119300Y900800D03*
D15*
X1142600Y254000D03*
X1117600Y254000D03*
X1092600Y254000D03*
X177400Y254000D03*
X152400Y254000D03*
X127400Y254000D03*
D16*
X938800Y215500D03*
X938800Y165500D03*
X813800Y165500D03*
X813800Y215500D03*
X468900Y215500D03*
X468900Y165500D03*
X343900Y165500D03*
X343900Y215500D03*
D17*
X883412Y330200D03*
X894588Y330200D03*
D18*
X266700Y419100D03*
D19*
X266700Y444500D03*
X266700Y469900D03*
X266700Y495300D03*
X266700Y520700D03*
X266700Y546100D03*
X266700Y571500D03*
X266700Y596900D03*
X266700Y622300D03*
X266700Y647700D03*
X266700Y673100D03*
X266700Y698500D03*
X266700Y723900D03*
X266700Y749300D03*
X266700Y774700D03*
X266700Y800100D03*
X266700Y825500D03*
X266700Y850900D03*
X266700Y876300D03*
X266700Y901700D03*
D18*
X1028700Y419100D03*
D19*
X1028700Y444500D03*
X1028700Y469900D03*
X1028700Y495300D03*
X1028700Y520700D03*
X1028700Y546100D03*
X1028700Y571500D03*
X1028700Y596900D03*
X1028700Y622300D03*
X1028700Y647700D03*
X1028700Y673100D03*
X1028700Y698500D03*
X1028700Y723900D03*
X1028700Y749300D03*
X1028700Y774700D03*
X1028700Y800100D03*
X1028700Y825500D03*
X1028700Y850900D03*
X1028700Y876300D03*
X1028700Y901700D03*
D20*
X1028700Y374650D03*
X1028700Y946150D03*
X266700Y374650D03*
X266700Y946150D03*
D21*
X1136650Y710250D03*
X1136650Y623250D03*
D22*
X1231900Y977900D03*
X1231900Y38100D03*
X38100Y38100D03*
X38100Y965200D03*
D23*
X436499Y965200D03*
X452501Y965200D03*
D24*
X38100Y927100D03*
X1231900Y914400D03*
X1206500Y101600D03*
D25*
X1117600Y647700D03*
X1117600Y622300D03*
X1117600Y601980D03*
X1155700Y601980D03*
X1155700Y622300D03*
X1155700Y647700D03*
D26*
X127400Y254000D02*
X127000Y254400D01*
X127000Y269240D01*
D25*
X127000Y269240D03*
X1092200Y276860D03*
D26*
X426720Y955421D02*
X436499Y965200D01*
X426720Y955421D02*
X426720Y955040D01*
D25*
X426720Y955040D03*
X591820Y965200D03*
X739140Y965200D03*
X886460Y965200D03*
D26*
X894588Y330200D02*
X904240Y330200D01*
D25*
X904240Y330200D03*
X558800Y226060D03*
D26*
X883412Y330200D02*
X938800Y274812D01*
X938800Y215500D01*
X813800Y215500D01*
X883412Y330200D02*
X571500Y330200D01*
X563880Y322580D01*
X455930Y430530D01*
X455930Y557530D01*
X530600Y632200D02*
X530600Y636860D01*
X516630Y606726D02*
X509935Y600030D01*
X516630Y618230D02*
X530600Y632200D01*
X509935Y600030D02*
X498430Y600030D01*
X516630Y606726D02*
X516630Y618230D01*
X498430Y600030D02*
X455930Y557530D01*
X185020Y261620D02*
X177400Y254000D01*
X185020Y261620D02*
X213360Y261620D01*
X228600Y246380D01*
X228600Y78740D01*
X261620Y45720D01*
X1107440Y45720D02*
X1201420Y139700D01*
X1201420Y261620D01*
X1188720Y274320D01*
X1162920Y274320D01*
X1142600Y254000D01*
X1107440Y45720D02*
X261620Y45720D01*
X518160Y649820D02*
X530600Y662260D01*
X500466Y622890D02*
X493770Y616195D01*
X493770Y602554D01*
X507395Y622890D02*
X518160Y633656D01*
X507395Y622890D02*
X500466Y622890D01*
X353060Y269240D02*
X180340Y269240D01*
X177400Y266300D01*
X177400Y254000D01*
X518160Y633656D02*
X518160Y649820D01*
X493770Y602554D02*
X447040Y555824D01*
X447040Y363220D01*
X353060Y269240D01*
D27*
X1092200Y723900D02*
X1092200Y800100D01*
X1092200Y723900D02*
X1104900Y711200D01*
X1143000Y711200D01*
X1142050Y710250D01*
X1136650Y710250D01*
X710520Y586060D02*
X530600Y586060D01*
X710520Y586060D02*
X746760Y622300D01*
X746760Y631339D01*
X746500Y631599D01*
X746500Y701300D02*
X744220Y703580D01*
X746500Y701300D02*
X746500Y631599D01*
X744220Y703580D02*
X753700Y713060D01*
X759200Y713060D01*
D26*
X1005840Y619760D02*
X1028700Y596900D01*
X1005840Y886460D02*
X988060Y904240D01*
X558800Y904240D01*
X530600Y849296D02*
X530600Y840060D01*
X530600Y849296D02*
X542030Y860726D01*
X542030Y887470D01*
X1005840Y886460D02*
X1005840Y619760D01*
X558800Y904240D02*
X542030Y887470D01*
X967740Y581660D02*
X1028700Y520700D01*
X967740Y876300D02*
X970280Y878840D01*
X962660Y886460D01*
X561340Y863600D02*
X561340Y831032D01*
X558800Y828492D01*
X558800Y762000D01*
X553720Y756920D01*
X537540Y756920D02*
X530600Y763860D01*
X967740Y876300D02*
X967740Y581660D01*
X962660Y886460D02*
X584200Y886460D01*
X561340Y863600D01*
X553720Y756920D02*
X537540Y756920D01*
X982980Y591820D02*
X1028700Y546100D01*
X982980Y881380D02*
X972820Y891540D01*
X576580Y891540D01*
X566420Y881380D02*
X561340Y881380D01*
X556260Y876300D01*
X556260Y833136D01*
X548640Y825516D02*
X548640Y805180D01*
X548640Y825516D02*
X556260Y833136D01*
X982980Y881380D02*
X982980Y591820D01*
X576580Y891540D02*
X566420Y881380D01*
X542030Y784526D02*
X535335Y777830D01*
X542030Y784526D02*
X542030Y798570D01*
X535335Y777830D02*
X527042Y777830D01*
X542030Y798570D02*
X548640Y805180D01*
X515022Y754038D02*
X530600Y738460D01*
X515022Y754038D02*
X515022Y757518D01*
X516630Y759126D01*
X516630Y767418D01*
X527042Y777830D01*
X530600Y865460D02*
X530600Y891280D01*
X551180Y911860D01*
X990600Y911860D01*
X1016000Y886460D02*
X1016000Y624840D01*
X1018540Y622300D01*
X1028700Y622300D01*
X1016000Y886460D02*
X990600Y911860D01*
X551180Y835240D02*
X530600Y814660D01*
X551180Y835240D02*
X551180Y881380D01*
X568960Y899160D01*
X985520Y899160D01*
X995680Y889000D02*
X995680Y604520D01*
X1028700Y571500D01*
X1031240Y568960D01*
X1033780Y568960D01*
X1031240Y571500D01*
X1028700Y571500D01*
X995680Y889000D02*
X985520Y899160D01*
D27*
X1218252Y964252D02*
X1231900Y977900D01*
X1119300Y900800D02*
X1119300Y769400D01*
X1119300Y900800D02*
X1196400Y977900D01*
X1231900Y977900D01*
D26*
X1079500Y837800D02*
X1092200Y825100D01*
X1079500Y848360D02*
X1049020Y878840D01*
X1049020Y911860D01*
X1043940Y916940D01*
X635000Y916940D02*
X632460Y919480D01*
X497404Y919480D01*
X490220Y912296D02*
X490220Y764540D01*
X490900Y763860D01*
X505200Y763860D01*
X1079500Y837800D02*
X1079500Y848360D01*
X1043940Y916940D02*
X635000Y916940D01*
X497404Y919480D02*
X490220Y912296D01*
X1054100Y883200D02*
X1092200Y845100D01*
X1054100Y883200D02*
X1054100Y914400D01*
X1046480Y922020D01*
X640080Y922020D02*
X637540Y924560D01*
X495300Y924560D01*
X485140Y914400D01*
X485140Y758520D01*
X505200Y738460D01*
X640080Y922020D02*
X1046480Y922020D01*
M02*
