G04 EAGLE Gerber RS-274X export*
G75*
%MOMM*%
%FSLAX34Y34*%
%LPD*%
%INCopper Layer 15*%
%IPPOS*%
%AMOC8*
5,1,8,0,0,1.08239X$1,22.5*%
G01*
%ADD10C,1.244600*%
%ADD11C,1.288000*%
%ADD12C,3.220000*%
%ADD13C,1.400000*%
%ADD14C,1.960000*%
%ADD15C,4.016000*%
%ADD16C,4.191000*%
%ADD17C,0.609600*%

G36*
X1266308Y2556D02*
X1266308Y2556D01*
X1266427Y2563D01*
X1266465Y2576D01*
X1266506Y2581D01*
X1266616Y2624D01*
X1266729Y2661D01*
X1266764Y2683D01*
X1266801Y2698D01*
X1266897Y2767D01*
X1266998Y2831D01*
X1267026Y2861D01*
X1267059Y2884D01*
X1267135Y2976D01*
X1267216Y3063D01*
X1267236Y3098D01*
X1267261Y3129D01*
X1267312Y3237D01*
X1267370Y3341D01*
X1267380Y3381D01*
X1267397Y3417D01*
X1267419Y3534D01*
X1267449Y3649D01*
X1267453Y3709D01*
X1267457Y3729D01*
X1267455Y3750D01*
X1267459Y3810D01*
X1267459Y1012190D01*
X1267444Y1012308D01*
X1267437Y1012427D01*
X1267424Y1012465D01*
X1267419Y1012506D01*
X1267376Y1012616D01*
X1267339Y1012729D01*
X1267317Y1012764D01*
X1267302Y1012801D01*
X1267233Y1012897D01*
X1267169Y1012998D01*
X1267139Y1013026D01*
X1267116Y1013059D01*
X1267024Y1013135D01*
X1266937Y1013216D01*
X1266902Y1013236D01*
X1266871Y1013261D01*
X1266763Y1013312D01*
X1266659Y1013370D01*
X1266619Y1013380D01*
X1266583Y1013397D01*
X1266466Y1013419D01*
X1266351Y1013449D01*
X1266291Y1013453D01*
X1266271Y1013457D01*
X1266250Y1013455D01*
X1266190Y1013459D01*
X3810Y1013459D01*
X3692Y1013444D01*
X3573Y1013437D01*
X3535Y1013424D01*
X3494Y1013419D01*
X3384Y1013376D01*
X3271Y1013339D01*
X3236Y1013317D01*
X3199Y1013302D01*
X3103Y1013233D01*
X3002Y1013169D01*
X2974Y1013139D01*
X2941Y1013116D01*
X2865Y1013024D01*
X2784Y1012937D01*
X2764Y1012902D01*
X2739Y1012871D01*
X2688Y1012763D01*
X2630Y1012659D01*
X2620Y1012619D01*
X2603Y1012583D01*
X2581Y1012466D01*
X2551Y1012351D01*
X2547Y1012291D01*
X2543Y1012271D01*
X2545Y1012250D01*
X2541Y1012190D01*
X2541Y3810D01*
X2556Y3692D01*
X2563Y3573D01*
X2576Y3535D01*
X2581Y3494D01*
X2624Y3384D01*
X2661Y3271D01*
X2683Y3236D01*
X2698Y3199D01*
X2767Y3103D01*
X2831Y3002D01*
X2861Y2974D01*
X2884Y2941D01*
X2976Y2865D01*
X3063Y2784D01*
X3098Y2764D01*
X3129Y2739D01*
X3237Y2688D01*
X3341Y2630D01*
X3381Y2620D01*
X3417Y2603D01*
X3534Y2581D01*
X3649Y2551D01*
X3709Y2547D01*
X3729Y2543D01*
X3750Y2545D01*
X3810Y2541D01*
X1266190Y2541D01*
X1266308Y2556D01*
G37*
%LPC*%
G36*
X1227226Y954404D02*
X1227226Y954404D01*
X1218591Y957981D01*
X1211981Y964591D01*
X1208404Y973226D01*
X1208404Y982574D01*
X1211981Y991209D01*
X1218591Y997819D01*
X1227226Y1001396D01*
X1236574Y1001396D01*
X1245209Y997819D01*
X1251819Y991209D01*
X1255396Y982574D01*
X1255396Y973226D01*
X1251819Y964591D01*
X1245209Y957981D01*
X1236574Y954404D01*
X1227226Y954404D01*
G37*
%LPD*%
%LPC*%
G36*
X33426Y941704D02*
X33426Y941704D01*
X24791Y945281D01*
X18181Y951891D01*
X14604Y960526D01*
X14604Y969874D01*
X18181Y978509D01*
X24791Y985119D01*
X33426Y988696D01*
X42774Y988696D01*
X51409Y985119D01*
X58019Y978509D01*
X61596Y969874D01*
X61596Y960526D01*
X58019Y951891D01*
X51409Y945281D01*
X42774Y941704D01*
X33426Y941704D01*
G37*
%LPD*%
%LPC*%
G36*
X1227226Y14604D02*
X1227226Y14604D01*
X1218591Y18181D01*
X1211981Y24791D01*
X1208404Y33426D01*
X1208404Y42774D01*
X1211981Y51409D01*
X1218591Y58019D01*
X1227226Y61596D01*
X1236574Y61596D01*
X1245209Y58019D01*
X1251819Y51409D01*
X1255396Y42774D01*
X1255396Y33426D01*
X1251819Y24791D01*
X1245209Y18181D01*
X1236574Y14604D01*
X1227226Y14604D01*
G37*
%LPD*%
%LPC*%
G36*
X33426Y14604D02*
X33426Y14604D01*
X24791Y18181D01*
X18181Y24791D01*
X14604Y33426D01*
X14604Y42774D01*
X18181Y51409D01*
X24791Y58019D01*
X33426Y61596D01*
X42774Y61596D01*
X51409Y58019D01*
X58019Y51409D01*
X61596Y42774D01*
X61596Y33426D01*
X58019Y24791D01*
X51409Y18181D01*
X42774Y14604D01*
X33426Y14604D01*
G37*
%LPD*%
%LPC*%
G36*
X1024200Y352029D02*
X1024200Y352029D01*
X1015886Y355473D01*
X1009523Y361836D01*
X1006079Y370150D01*
X1006079Y379150D01*
X1009523Y387464D01*
X1015886Y393827D01*
X1024200Y397271D01*
X1033200Y397271D01*
X1041514Y393827D01*
X1047877Y387464D01*
X1051321Y379150D01*
X1051321Y370150D01*
X1047877Y361836D01*
X1041514Y355473D01*
X1033200Y352029D01*
X1024200Y352029D01*
G37*
%LPD*%
%LPC*%
G36*
X1024200Y923529D02*
X1024200Y923529D01*
X1015886Y926973D01*
X1009523Y933336D01*
X1006079Y941650D01*
X1006079Y950650D01*
X1009523Y958964D01*
X1015886Y965327D01*
X1024200Y968771D01*
X1033200Y968771D01*
X1041514Y965327D01*
X1047877Y958964D01*
X1051321Y950650D01*
X1051321Y941650D01*
X1047877Y933336D01*
X1041514Y926973D01*
X1033200Y923529D01*
X1024200Y923529D01*
G37*
%LPD*%
%LPC*%
G36*
X262200Y923529D02*
X262200Y923529D01*
X253886Y926973D01*
X247523Y933336D01*
X244079Y941650D01*
X244079Y950650D01*
X247523Y958964D01*
X253886Y965327D01*
X262200Y968771D01*
X271200Y968771D01*
X279514Y965327D01*
X285877Y958964D01*
X289321Y950650D01*
X289321Y941650D01*
X285877Y933336D01*
X279514Y926973D01*
X271200Y923529D01*
X262200Y923529D01*
G37*
%LPD*%
%LPC*%
G36*
X262200Y352029D02*
X262200Y352029D01*
X253886Y355473D01*
X247523Y361836D01*
X244079Y370150D01*
X244079Y379150D01*
X247523Y387464D01*
X253886Y393827D01*
X262200Y397271D01*
X271200Y397271D01*
X279514Y393827D01*
X285877Y387464D01*
X289321Y379150D01*
X289321Y370150D01*
X285877Y361836D01*
X279514Y355473D01*
X271200Y352029D01*
X262200Y352029D01*
G37*
%LPD*%
%LPC*%
G36*
X1115592Y882159D02*
X1115592Y882159D01*
X1108741Y884997D01*
X1103497Y890241D01*
X1100659Y897092D01*
X1100659Y904508D01*
X1103497Y911359D01*
X1108741Y916603D01*
X1115592Y919441D01*
X1123008Y919441D01*
X1129859Y916603D01*
X1135103Y911359D01*
X1137941Y904508D01*
X1137941Y897092D01*
X1135103Y890241D01*
X1129859Y884997D01*
X1123008Y882159D01*
X1115592Y882159D01*
G37*
%LPD*%
%LPC*%
G36*
X1115592Y750759D02*
X1115592Y750759D01*
X1108741Y753597D01*
X1103497Y758841D01*
X1100659Y765692D01*
X1100659Y773108D01*
X1103497Y779959D01*
X1108741Y785203D01*
X1115592Y788041D01*
X1123008Y788041D01*
X1129859Y785203D01*
X1135103Y779959D01*
X1137941Y773108D01*
X1137941Y765692D01*
X1135103Y758841D01*
X1129859Y753597D01*
X1123008Y750759D01*
X1115592Y750759D01*
G37*
%LPD*%
%LPC*%
G36*
X1064608Y168959D02*
X1064608Y168959D01*
X1059080Y171249D01*
X1054849Y175480D01*
X1052559Y181008D01*
X1052559Y186992D01*
X1054849Y192520D01*
X1059080Y196751D01*
X1064608Y199041D01*
X1070592Y199041D01*
X1076120Y196751D01*
X1080351Y192520D01*
X1082641Y186992D01*
X1082641Y181008D01*
X1080351Y175480D01*
X1076120Y171249D01*
X1070592Y168959D01*
X1064608Y168959D01*
G37*
%LPD*%
%LPC*%
G36*
X99408Y168959D02*
X99408Y168959D01*
X93880Y171249D01*
X89649Y175480D01*
X87359Y181008D01*
X87359Y186992D01*
X89649Y192520D01*
X93880Y196751D01*
X99408Y199041D01*
X105392Y199041D01*
X110920Y196751D01*
X115151Y192520D01*
X117441Y186992D01*
X117441Y181008D01*
X115151Y175480D01*
X110920Y171249D01*
X105392Y168959D01*
X99408Y168959D01*
G37*
%LPD*%
%LPC*%
G36*
X199408Y168959D02*
X199408Y168959D01*
X193880Y171249D01*
X189649Y175480D01*
X187359Y181008D01*
X187359Y186992D01*
X189649Y192520D01*
X193880Y196751D01*
X199408Y199041D01*
X205392Y199041D01*
X210920Y196751D01*
X215151Y192520D01*
X217441Y186992D01*
X217441Y181008D01*
X215151Y175480D01*
X210920Y171249D01*
X205392Y168959D01*
X199408Y168959D01*
G37*
%LPD*%
%LPC*%
G36*
X1164608Y168959D02*
X1164608Y168959D01*
X1159080Y171249D01*
X1154849Y175480D01*
X1152559Y181008D01*
X1152559Y186992D01*
X1154849Y192520D01*
X1159080Y196751D01*
X1164608Y199041D01*
X1170592Y199041D01*
X1176120Y196751D01*
X1180351Y192520D01*
X1182641Y186992D01*
X1182641Y181008D01*
X1180351Y175480D01*
X1176120Y171249D01*
X1170592Y168959D01*
X1164608Y168959D01*
G37*
%LPD*%
%LPC*%
G36*
X1090414Y816119D02*
X1090414Y816119D01*
X1087113Y817486D01*
X1084586Y820013D01*
X1083219Y823314D01*
X1083219Y826886D01*
X1084586Y830187D01*
X1087113Y832714D01*
X1090043Y833927D01*
X1090164Y833996D01*
X1090287Y834061D01*
X1090302Y834075D01*
X1090320Y834085D01*
X1090420Y834182D01*
X1090522Y834275D01*
X1090534Y834292D01*
X1090548Y834306D01*
X1090621Y834424D01*
X1090697Y834541D01*
X1090704Y834560D01*
X1090714Y834577D01*
X1090755Y834710D01*
X1090800Y834842D01*
X1090802Y834862D01*
X1090808Y834881D01*
X1090815Y835020D01*
X1090826Y835159D01*
X1090822Y835179D01*
X1090823Y835199D01*
X1090795Y835335D01*
X1090771Y835472D01*
X1090763Y835491D01*
X1090759Y835510D01*
X1090698Y835635D01*
X1090641Y835762D01*
X1090628Y835778D01*
X1090619Y835796D01*
X1090529Y835902D01*
X1090442Y836010D01*
X1090426Y836023D01*
X1090413Y836038D01*
X1090299Y836118D01*
X1090188Y836202D01*
X1090163Y836214D01*
X1090153Y836221D01*
X1090133Y836228D01*
X1090043Y836273D01*
X1087113Y837486D01*
X1084586Y840013D01*
X1083219Y843314D01*
X1083219Y846886D01*
X1084586Y850187D01*
X1087113Y852714D01*
X1090414Y854081D01*
X1093986Y854081D01*
X1097287Y852714D01*
X1099814Y850187D01*
X1101181Y846886D01*
X1101181Y843314D01*
X1099814Y840013D01*
X1097287Y837486D01*
X1094357Y836273D01*
X1094236Y836204D01*
X1094113Y836139D01*
X1094098Y836125D01*
X1094080Y836115D01*
X1093980Y836018D01*
X1093878Y835925D01*
X1093867Y835908D01*
X1093852Y835894D01*
X1093779Y835775D01*
X1093703Y835659D01*
X1093696Y835640D01*
X1093686Y835623D01*
X1093645Y835490D01*
X1093600Y835358D01*
X1093598Y835338D01*
X1093592Y835319D01*
X1093585Y835180D01*
X1093574Y835041D01*
X1093578Y835021D01*
X1093577Y835001D01*
X1093605Y834865D01*
X1093629Y834728D01*
X1093637Y834709D01*
X1093641Y834690D01*
X1093703Y834564D01*
X1093759Y834438D01*
X1093772Y834422D01*
X1093781Y834404D01*
X1093871Y834298D01*
X1093958Y834190D01*
X1093974Y834177D01*
X1093987Y834162D01*
X1094101Y834082D01*
X1094212Y833998D01*
X1094237Y833986D01*
X1094247Y833979D01*
X1094267Y833972D01*
X1094357Y833927D01*
X1097287Y832714D01*
X1099814Y830187D01*
X1101181Y826886D01*
X1101181Y823314D01*
X1099814Y820013D01*
X1097287Y817486D01*
X1093986Y816119D01*
X1090414Y816119D01*
G37*
%LPD*%
%LPC*%
G36*
X466445Y203159D02*
X466445Y203159D01*
X461910Y205038D01*
X458438Y208510D01*
X456559Y213045D01*
X456559Y217955D01*
X458438Y222490D01*
X461910Y225962D01*
X466445Y227841D01*
X471355Y227841D01*
X475890Y225962D01*
X479362Y222490D01*
X481241Y217955D01*
X481241Y213045D01*
X479362Y208510D01*
X475890Y205038D01*
X471355Y203159D01*
X466445Y203159D01*
G37*
%LPD*%
%LPC*%
G36*
X466445Y153159D02*
X466445Y153159D01*
X461910Y155038D01*
X458438Y158510D01*
X456559Y163045D01*
X456559Y167955D01*
X458438Y172490D01*
X461910Y175962D01*
X466445Y177841D01*
X471355Y177841D01*
X475890Y175962D01*
X479362Y172490D01*
X481241Y167955D01*
X481241Y163045D01*
X479362Y158510D01*
X475890Y155038D01*
X471355Y153159D01*
X466445Y153159D01*
G37*
%LPD*%
%LPC*%
G36*
X936345Y203159D02*
X936345Y203159D01*
X931810Y205038D01*
X928338Y208510D01*
X926459Y213045D01*
X926459Y217955D01*
X928338Y222490D01*
X931810Y225962D01*
X936345Y227841D01*
X941255Y227841D01*
X945790Y225962D01*
X949262Y222490D01*
X951141Y217955D01*
X951141Y213045D01*
X949262Y208510D01*
X945790Y205038D01*
X941255Y203159D01*
X936345Y203159D01*
G37*
%LPD*%
%LPC*%
G36*
X811345Y203159D02*
X811345Y203159D01*
X806810Y205038D01*
X803338Y208510D01*
X801459Y213045D01*
X801459Y217955D01*
X803338Y222490D01*
X806810Y225962D01*
X811345Y227841D01*
X816255Y227841D01*
X820790Y225962D01*
X824262Y222490D01*
X826141Y217955D01*
X826141Y213045D01*
X824262Y208510D01*
X820790Y205038D01*
X816255Y203159D01*
X811345Y203159D01*
G37*
%LPD*%
%LPC*%
G36*
X341445Y153159D02*
X341445Y153159D01*
X336910Y155038D01*
X333438Y158510D01*
X331559Y163045D01*
X331559Y167955D01*
X333438Y172490D01*
X336910Y175962D01*
X341445Y177841D01*
X346355Y177841D01*
X350890Y175962D01*
X354362Y172490D01*
X356241Y167955D01*
X356241Y163045D01*
X354362Y158510D01*
X350890Y155038D01*
X346355Y153159D01*
X341445Y153159D01*
G37*
%LPD*%
%LPC*%
G36*
X341445Y203159D02*
X341445Y203159D01*
X336910Y205038D01*
X333438Y208510D01*
X331559Y213045D01*
X331559Y217955D01*
X333438Y222490D01*
X336910Y225962D01*
X341445Y227841D01*
X346355Y227841D01*
X350890Y225962D01*
X354362Y222490D01*
X356241Y217955D01*
X356241Y213045D01*
X354362Y208510D01*
X350890Y205038D01*
X346355Y203159D01*
X341445Y203159D01*
G37*
%LPD*%
%LPC*%
G36*
X936345Y153159D02*
X936345Y153159D01*
X931810Y155038D01*
X928338Y158510D01*
X926459Y163045D01*
X926459Y167955D01*
X928338Y172490D01*
X931810Y175962D01*
X936345Y177841D01*
X941255Y177841D01*
X945790Y175962D01*
X949262Y172490D01*
X951141Y167955D01*
X951141Y163045D01*
X949262Y158510D01*
X945790Y155038D01*
X941255Y153159D01*
X936345Y153159D01*
G37*
%LPD*%
%LPC*%
G36*
X811345Y153159D02*
X811345Y153159D01*
X806810Y155038D01*
X803338Y158510D01*
X801459Y163045D01*
X801459Y167955D01*
X803338Y172490D01*
X806810Y175962D01*
X811345Y177841D01*
X816255Y177841D01*
X820790Y175962D01*
X824262Y172490D01*
X826141Y167955D01*
X826141Y163045D01*
X824262Y158510D01*
X820790Y155038D01*
X816255Y153159D01*
X811345Y153159D01*
G37*
%LPD*%
%LPC*%
G36*
X125502Y244459D02*
X125502Y244459D01*
X121996Y245912D01*
X119312Y248596D01*
X117859Y252102D01*
X117859Y255898D01*
X119312Y259404D01*
X121996Y262088D01*
X123248Y262607D01*
X123291Y262631D01*
X123338Y262648D01*
X123429Y262710D01*
X123524Y262764D01*
X123559Y262799D01*
X123601Y262827D01*
X123673Y262909D01*
X123752Y262986D01*
X123778Y263028D01*
X123811Y263065D01*
X123861Y263163D01*
X123919Y263257D01*
X123933Y263304D01*
X123956Y263349D01*
X123980Y263456D01*
X124012Y263561D01*
X124015Y263610D01*
X124025Y263659D01*
X124022Y263769D01*
X124027Y263878D01*
X124017Y263927D01*
X124016Y263977D01*
X123985Y264083D01*
X123963Y264190D01*
X123941Y264234D01*
X123927Y264282D01*
X123872Y264377D01*
X123823Y264476D01*
X123791Y264513D01*
X123766Y264556D01*
X123659Y264677D01*
X122262Y266074D01*
X121411Y268128D01*
X121411Y270352D01*
X122262Y272406D01*
X123834Y273978D01*
X125888Y274829D01*
X128112Y274829D01*
X130166Y273978D01*
X131738Y272406D01*
X132589Y270352D01*
X132589Y268128D01*
X131738Y266074D01*
X130575Y264911D01*
X130544Y264872D01*
X130508Y264839D01*
X130447Y264747D01*
X130380Y264660D01*
X130360Y264615D01*
X130333Y264573D01*
X130297Y264469D01*
X130254Y264368D01*
X130246Y264319D01*
X130230Y264272D01*
X130221Y264163D01*
X130204Y264054D01*
X130208Y264005D01*
X130205Y263955D01*
X130223Y263847D01*
X130234Y263737D01*
X130250Y263691D01*
X130259Y263642D01*
X130304Y263542D01*
X130341Y263438D01*
X130369Y263397D01*
X130390Y263352D01*
X130458Y263266D01*
X130520Y263175D01*
X130557Y263142D01*
X130588Y263103D01*
X130676Y263037D01*
X130758Y262965D01*
X130803Y262942D01*
X130842Y262912D01*
X130987Y262841D01*
X132804Y262088D01*
X135488Y259404D01*
X136941Y255898D01*
X136941Y252102D01*
X135488Y248596D01*
X132804Y245912D01*
X129298Y244459D01*
X125502Y244459D01*
G37*
%LPD*%
%LPC*%
G36*
X264802Y612759D02*
X264802Y612759D01*
X261296Y614212D01*
X258612Y616896D01*
X257159Y620402D01*
X257159Y624198D01*
X258612Y627704D01*
X261296Y630388D01*
X264802Y631841D01*
X268598Y631841D01*
X272104Y630388D01*
X274788Y627704D01*
X276241Y624198D01*
X276241Y620402D01*
X274788Y616896D01*
X272104Y614212D01*
X268598Y612759D01*
X264802Y612759D01*
G37*
%LPD*%
%LPC*%
G36*
X1026802Y815959D02*
X1026802Y815959D01*
X1023296Y817412D01*
X1020612Y820096D01*
X1019159Y823602D01*
X1019159Y827398D01*
X1020612Y830904D01*
X1023296Y833588D01*
X1026802Y835041D01*
X1030598Y835041D01*
X1034104Y833588D01*
X1036788Y830904D01*
X1038241Y827398D01*
X1038241Y823602D01*
X1036788Y820096D01*
X1034104Y817412D01*
X1030598Y815959D01*
X1026802Y815959D01*
G37*
%LPD*%
%LPC*%
G36*
X264802Y815959D02*
X264802Y815959D01*
X261296Y817412D01*
X258612Y820096D01*
X257159Y823602D01*
X257159Y827398D01*
X258612Y830904D01*
X261296Y833588D01*
X264802Y835041D01*
X268598Y835041D01*
X272104Y833588D01*
X274788Y830904D01*
X276241Y827398D01*
X276241Y823602D01*
X274788Y820096D01*
X272104Y817412D01*
X268598Y815959D01*
X264802Y815959D01*
G37*
%LPD*%
%LPC*%
G36*
X1026802Y892159D02*
X1026802Y892159D01*
X1023296Y893612D01*
X1020612Y896296D01*
X1019159Y899802D01*
X1019159Y903598D01*
X1020612Y907104D01*
X1023296Y909788D01*
X1026802Y911241D01*
X1030598Y911241D01*
X1034104Y909788D01*
X1036788Y907104D01*
X1038241Y903598D01*
X1038241Y899802D01*
X1036788Y896296D01*
X1034104Y893612D01*
X1030598Y892159D01*
X1026802Y892159D01*
G37*
%LPD*%
%LPC*%
G36*
X264802Y892159D02*
X264802Y892159D01*
X261296Y893612D01*
X258612Y896296D01*
X257159Y899802D01*
X257159Y903598D01*
X258612Y907104D01*
X261296Y909788D01*
X264802Y911241D01*
X268598Y911241D01*
X272104Y909788D01*
X274788Y907104D01*
X276241Y903598D01*
X276241Y899802D01*
X274788Y896296D01*
X272104Y893612D01*
X268598Y892159D01*
X264802Y892159D01*
G37*
%LPD*%
%LPC*%
G36*
X1026802Y866759D02*
X1026802Y866759D01*
X1023296Y868212D01*
X1020612Y870896D01*
X1019159Y874402D01*
X1019159Y878198D01*
X1020612Y881704D01*
X1023296Y884388D01*
X1026802Y885841D01*
X1030598Y885841D01*
X1034104Y884388D01*
X1036788Y881704D01*
X1038241Y878198D01*
X1038241Y874402D01*
X1036788Y870896D01*
X1034104Y868212D01*
X1030598Y866759D01*
X1026802Y866759D01*
G37*
%LPD*%
%LPC*%
G36*
X264802Y866759D02*
X264802Y866759D01*
X261296Y868212D01*
X258612Y870896D01*
X257159Y874402D01*
X257159Y878198D01*
X258612Y881704D01*
X261296Y884388D01*
X264802Y885841D01*
X268598Y885841D01*
X272104Y884388D01*
X274788Y881704D01*
X276241Y878198D01*
X276241Y874402D01*
X274788Y870896D01*
X272104Y868212D01*
X268598Y866759D01*
X264802Y866759D01*
G37*
%LPD*%
%LPC*%
G36*
X1026802Y790559D02*
X1026802Y790559D01*
X1023296Y792012D01*
X1020612Y794696D01*
X1019159Y798202D01*
X1019159Y801998D01*
X1020612Y805504D01*
X1023296Y808188D01*
X1026802Y809641D01*
X1030598Y809641D01*
X1034104Y808188D01*
X1036788Y805504D01*
X1038241Y801998D01*
X1038241Y798202D01*
X1036788Y794696D01*
X1034104Y792012D01*
X1030598Y790559D01*
X1026802Y790559D01*
G37*
%LPD*%
%LPC*%
G36*
X264802Y790559D02*
X264802Y790559D01*
X261296Y792012D01*
X258612Y794696D01*
X257159Y798202D01*
X257159Y801998D01*
X258612Y805504D01*
X261296Y808188D01*
X264802Y809641D01*
X268598Y809641D01*
X272104Y808188D01*
X274788Y805504D01*
X276241Y801998D01*
X276241Y798202D01*
X274788Y794696D01*
X272104Y792012D01*
X268598Y790559D01*
X264802Y790559D01*
G37*
%LPD*%
%LPC*%
G36*
X1026802Y638159D02*
X1026802Y638159D01*
X1023296Y639612D01*
X1020612Y642296D01*
X1019159Y645802D01*
X1019159Y649598D01*
X1020612Y653104D01*
X1023296Y655788D01*
X1026802Y657241D01*
X1030598Y657241D01*
X1034104Y655788D01*
X1036788Y653104D01*
X1038241Y649598D01*
X1038241Y645802D01*
X1036788Y642296D01*
X1034104Y639612D01*
X1030598Y638159D01*
X1026802Y638159D01*
G37*
%LPD*%
%LPC*%
G36*
X264802Y638159D02*
X264802Y638159D01*
X261296Y639612D01*
X258612Y642296D01*
X257159Y645802D01*
X257159Y649598D01*
X258612Y653104D01*
X261296Y655788D01*
X264802Y657241D01*
X268598Y657241D01*
X272104Y655788D01*
X274788Y653104D01*
X276241Y649598D01*
X276241Y645802D01*
X274788Y642296D01*
X272104Y639612D01*
X268598Y638159D01*
X264802Y638159D01*
G37*
%LPD*%
%LPC*%
G36*
X150502Y244459D02*
X150502Y244459D01*
X146996Y245912D01*
X144312Y248596D01*
X142859Y252102D01*
X142859Y255898D01*
X144312Y259404D01*
X146996Y262088D01*
X150502Y263541D01*
X154298Y263541D01*
X157804Y262088D01*
X160488Y259404D01*
X161941Y255898D01*
X161941Y252102D01*
X160488Y248596D01*
X157804Y245912D01*
X154298Y244459D01*
X150502Y244459D01*
G37*
%LPD*%
%LPC*%
G36*
X175502Y244459D02*
X175502Y244459D01*
X171996Y245912D01*
X169312Y248596D01*
X167859Y252102D01*
X167859Y255898D01*
X169312Y259404D01*
X171996Y262088D01*
X175502Y263541D01*
X179298Y263541D01*
X182804Y262088D01*
X185488Y259404D01*
X186941Y255898D01*
X186941Y252102D01*
X185488Y248596D01*
X182804Y245912D01*
X179298Y244459D01*
X175502Y244459D01*
G37*
%LPD*%
%LPC*%
G36*
X1090702Y244459D02*
X1090702Y244459D01*
X1087196Y245912D01*
X1084512Y248596D01*
X1083059Y252102D01*
X1083059Y255898D01*
X1084512Y259404D01*
X1087196Y262088D01*
X1090702Y263541D01*
X1094498Y263541D01*
X1098004Y262088D01*
X1100688Y259404D01*
X1102141Y255898D01*
X1102141Y252102D01*
X1100688Y248596D01*
X1098004Y245912D01*
X1094498Y244459D01*
X1090702Y244459D01*
G37*
%LPD*%
%LPC*%
G36*
X1115702Y244459D02*
X1115702Y244459D01*
X1112196Y245912D01*
X1109512Y248596D01*
X1108059Y252102D01*
X1108059Y255898D01*
X1109512Y259404D01*
X1112196Y262088D01*
X1115702Y263541D01*
X1119498Y263541D01*
X1123004Y262088D01*
X1125688Y259404D01*
X1127141Y255898D01*
X1127141Y252102D01*
X1125688Y248596D01*
X1123004Y245912D01*
X1119498Y244459D01*
X1115702Y244459D01*
G37*
%LPD*%
%LPC*%
G36*
X1026802Y765159D02*
X1026802Y765159D01*
X1023296Y766612D01*
X1020612Y769296D01*
X1019159Y772802D01*
X1019159Y776598D01*
X1020612Y780104D01*
X1023296Y782788D01*
X1026802Y784241D01*
X1030598Y784241D01*
X1034104Y782788D01*
X1036788Y780104D01*
X1038241Y776598D01*
X1038241Y772802D01*
X1036788Y769296D01*
X1034104Y766612D01*
X1030598Y765159D01*
X1026802Y765159D01*
G37*
%LPD*%
%LPC*%
G36*
X264802Y765159D02*
X264802Y765159D01*
X261296Y766612D01*
X258612Y769296D01*
X257159Y772802D01*
X257159Y776598D01*
X258612Y780104D01*
X261296Y782788D01*
X264802Y784241D01*
X268598Y784241D01*
X272104Y782788D01*
X274788Y780104D01*
X276241Y776598D01*
X276241Y772802D01*
X274788Y769296D01*
X272104Y766612D01*
X268598Y765159D01*
X264802Y765159D01*
G37*
%LPD*%
%LPC*%
G36*
X1140702Y244459D02*
X1140702Y244459D01*
X1137196Y245912D01*
X1134512Y248596D01*
X1133059Y252102D01*
X1133059Y255898D01*
X1134512Y259404D01*
X1137196Y262088D01*
X1140702Y263541D01*
X1144498Y263541D01*
X1148004Y262088D01*
X1150688Y259404D01*
X1152141Y255898D01*
X1152141Y252102D01*
X1150688Y248596D01*
X1148004Y245912D01*
X1144498Y244459D01*
X1140702Y244459D01*
G37*
%LPD*%
%LPC*%
G36*
X1026802Y841359D02*
X1026802Y841359D01*
X1023296Y842812D01*
X1020612Y845496D01*
X1019159Y849002D01*
X1019159Y852798D01*
X1020612Y856304D01*
X1023296Y858988D01*
X1026802Y860441D01*
X1030598Y860441D01*
X1034104Y858988D01*
X1036788Y856304D01*
X1038241Y852798D01*
X1038241Y849002D01*
X1036788Y845496D01*
X1034104Y842812D01*
X1030598Y841359D01*
X1026802Y841359D01*
G37*
%LPD*%
%LPC*%
G36*
X264802Y841359D02*
X264802Y841359D01*
X261296Y842812D01*
X258612Y845496D01*
X257159Y849002D01*
X257159Y852798D01*
X258612Y856304D01*
X261296Y858988D01*
X264802Y860441D01*
X268598Y860441D01*
X272104Y858988D01*
X274788Y856304D01*
X276241Y852798D01*
X276241Y849002D01*
X274788Y845496D01*
X272104Y842812D01*
X268598Y841359D01*
X264802Y841359D01*
G37*
%LPD*%
%LPC*%
G36*
X264802Y409559D02*
X264802Y409559D01*
X261296Y411012D01*
X258612Y413696D01*
X257159Y417202D01*
X257159Y420998D01*
X258612Y424504D01*
X261296Y427188D01*
X264802Y428641D01*
X268598Y428641D01*
X272104Y427188D01*
X274788Y424504D01*
X276241Y420998D01*
X276241Y417202D01*
X274788Y413696D01*
X272104Y411012D01*
X268598Y409559D01*
X264802Y409559D01*
G37*
%LPD*%
%LPC*%
G36*
X1026802Y739759D02*
X1026802Y739759D01*
X1023296Y741212D01*
X1020612Y743896D01*
X1019159Y747402D01*
X1019159Y751198D01*
X1020612Y754704D01*
X1023296Y757388D01*
X1026802Y758841D01*
X1030598Y758841D01*
X1034104Y757388D01*
X1036788Y754704D01*
X1038241Y751198D01*
X1038241Y747402D01*
X1036788Y743896D01*
X1034104Y741212D01*
X1030598Y739759D01*
X1026802Y739759D01*
G37*
%LPD*%
%LPC*%
G36*
X264802Y739759D02*
X264802Y739759D01*
X261296Y741212D01*
X258612Y743896D01*
X257159Y747402D01*
X257159Y751198D01*
X258612Y754704D01*
X261296Y757388D01*
X264802Y758841D01*
X268598Y758841D01*
X272104Y757388D01*
X274788Y754704D01*
X276241Y751198D01*
X276241Y747402D01*
X274788Y743896D01*
X272104Y741212D01*
X268598Y739759D01*
X264802Y739759D01*
G37*
%LPD*%
%LPC*%
G36*
X1026802Y409559D02*
X1026802Y409559D01*
X1023296Y411012D01*
X1020612Y413696D01*
X1019159Y417202D01*
X1019159Y420998D01*
X1020612Y424504D01*
X1023296Y427188D01*
X1026802Y428641D01*
X1030598Y428641D01*
X1034104Y427188D01*
X1036788Y424504D01*
X1038241Y420998D01*
X1038241Y417202D01*
X1036788Y413696D01*
X1034104Y411012D01*
X1030598Y409559D01*
X1026802Y409559D01*
G37*
%LPD*%
%LPC*%
G36*
X264802Y434959D02*
X264802Y434959D01*
X261296Y436412D01*
X258612Y439096D01*
X257159Y442602D01*
X257159Y446398D01*
X258612Y449904D01*
X261296Y452588D01*
X264802Y454041D01*
X268598Y454041D01*
X272104Y452588D01*
X274788Y449904D01*
X276241Y446398D01*
X276241Y442602D01*
X274788Y439096D01*
X272104Y436412D01*
X268598Y434959D01*
X264802Y434959D01*
G37*
%LPD*%
%LPC*%
G36*
X1026802Y434959D02*
X1026802Y434959D01*
X1023296Y436412D01*
X1020612Y439096D01*
X1019159Y442602D01*
X1019159Y446398D01*
X1020612Y449904D01*
X1023296Y452588D01*
X1026802Y454041D01*
X1030598Y454041D01*
X1034104Y452588D01*
X1036788Y449904D01*
X1038241Y446398D01*
X1038241Y442602D01*
X1036788Y439096D01*
X1034104Y436412D01*
X1030598Y434959D01*
X1026802Y434959D01*
G37*
%LPD*%
%LPC*%
G36*
X264802Y460359D02*
X264802Y460359D01*
X261296Y461812D01*
X258612Y464496D01*
X257159Y468002D01*
X257159Y471798D01*
X258612Y475304D01*
X261296Y477988D01*
X264802Y479441D01*
X268598Y479441D01*
X272104Y477988D01*
X274788Y475304D01*
X276241Y471798D01*
X276241Y468002D01*
X274788Y464496D01*
X272104Y461812D01*
X268598Y460359D01*
X264802Y460359D01*
G37*
%LPD*%
%LPC*%
G36*
X1026802Y714359D02*
X1026802Y714359D01*
X1023296Y715812D01*
X1020612Y718496D01*
X1019159Y722002D01*
X1019159Y725798D01*
X1020612Y729304D01*
X1023296Y731988D01*
X1026802Y733441D01*
X1030598Y733441D01*
X1034104Y731988D01*
X1036788Y729304D01*
X1038241Y725798D01*
X1038241Y722002D01*
X1036788Y718496D01*
X1034104Y715812D01*
X1030598Y714359D01*
X1026802Y714359D01*
G37*
%LPD*%
%LPC*%
G36*
X264802Y714359D02*
X264802Y714359D01*
X261296Y715812D01*
X258612Y718496D01*
X257159Y722002D01*
X257159Y725798D01*
X258612Y729304D01*
X261296Y731988D01*
X264802Y733441D01*
X268598Y733441D01*
X272104Y731988D01*
X274788Y729304D01*
X276241Y725798D01*
X276241Y722002D01*
X274788Y718496D01*
X272104Y715812D01*
X268598Y714359D01*
X264802Y714359D01*
G37*
%LPD*%
%LPC*%
G36*
X264802Y485759D02*
X264802Y485759D01*
X261296Y487212D01*
X258612Y489896D01*
X257159Y493402D01*
X257159Y497198D01*
X258612Y500704D01*
X261296Y503388D01*
X264802Y504841D01*
X268598Y504841D01*
X272104Y503388D01*
X274788Y500704D01*
X276241Y497198D01*
X276241Y493402D01*
X274788Y489896D01*
X272104Y487212D01*
X268598Y485759D01*
X264802Y485759D01*
G37*
%LPD*%
%LPC*%
G36*
X1026802Y485759D02*
X1026802Y485759D01*
X1023296Y487212D01*
X1020612Y489896D01*
X1019159Y493402D01*
X1019159Y497198D01*
X1020612Y500704D01*
X1023296Y503388D01*
X1026802Y504841D01*
X1030598Y504841D01*
X1034104Y503388D01*
X1036788Y500704D01*
X1038241Y497198D01*
X1038241Y493402D01*
X1036788Y489896D01*
X1034104Y487212D01*
X1030598Y485759D01*
X1026802Y485759D01*
G37*
%LPD*%
%LPC*%
G36*
X264802Y511159D02*
X264802Y511159D01*
X261296Y512612D01*
X258612Y515296D01*
X257159Y518802D01*
X257159Y522598D01*
X258612Y526104D01*
X261296Y528788D01*
X264802Y530241D01*
X268598Y530241D01*
X272104Y528788D01*
X274788Y526104D01*
X276241Y522598D01*
X276241Y518802D01*
X274788Y515296D01*
X272104Y512612D01*
X268598Y511159D01*
X264802Y511159D01*
G37*
%LPD*%
%LPC*%
G36*
X1026802Y511159D02*
X1026802Y511159D01*
X1023296Y512612D01*
X1020612Y515296D01*
X1019159Y518802D01*
X1019159Y522598D01*
X1020612Y526104D01*
X1023296Y528788D01*
X1026802Y530241D01*
X1030598Y530241D01*
X1034104Y528788D01*
X1036788Y526104D01*
X1038241Y522598D01*
X1038241Y518802D01*
X1036788Y515296D01*
X1034104Y512612D01*
X1030598Y511159D01*
X1026802Y511159D01*
G37*
%LPD*%
%LPC*%
G36*
X264802Y536559D02*
X264802Y536559D01*
X261296Y538012D01*
X258612Y540696D01*
X257159Y544202D01*
X257159Y547998D01*
X258612Y551504D01*
X261296Y554188D01*
X264802Y555641D01*
X268598Y555641D01*
X272104Y554188D01*
X274788Y551504D01*
X276241Y547998D01*
X276241Y544202D01*
X274788Y540696D01*
X272104Y538012D01*
X268598Y536559D01*
X264802Y536559D01*
G37*
%LPD*%
%LPC*%
G36*
X1026802Y536559D02*
X1026802Y536559D01*
X1023296Y538012D01*
X1020612Y540696D01*
X1019159Y544202D01*
X1019159Y547998D01*
X1020612Y551504D01*
X1023296Y554188D01*
X1026802Y555641D01*
X1030598Y555641D01*
X1034104Y554188D01*
X1036788Y551504D01*
X1038241Y547998D01*
X1038241Y544202D01*
X1036788Y540696D01*
X1034104Y538012D01*
X1030598Y536559D01*
X1026802Y536559D01*
G37*
%LPD*%
%LPC*%
G36*
X264802Y561959D02*
X264802Y561959D01*
X261296Y563412D01*
X258612Y566096D01*
X257159Y569602D01*
X257159Y573398D01*
X258612Y576904D01*
X261296Y579588D01*
X264802Y581041D01*
X268598Y581041D01*
X272104Y579588D01*
X274788Y576904D01*
X276241Y573398D01*
X276241Y569602D01*
X274788Y566096D01*
X272104Y563412D01*
X268598Y561959D01*
X264802Y561959D01*
G37*
%LPD*%
%LPC*%
G36*
X1026802Y688959D02*
X1026802Y688959D01*
X1023296Y690412D01*
X1020612Y693096D01*
X1019159Y696602D01*
X1019159Y700398D01*
X1020612Y703904D01*
X1023296Y706588D01*
X1026802Y708041D01*
X1030598Y708041D01*
X1034104Y706588D01*
X1036788Y703904D01*
X1038241Y700398D01*
X1038241Y696602D01*
X1036788Y693096D01*
X1034104Y690412D01*
X1030598Y688959D01*
X1026802Y688959D01*
G37*
%LPD*%
%LPC*%
G36*
X264802Y688959D02*
X264802Y688959D01*
X261296Y690412D01*
X258612Y693096D01*
X257159Y696602D01*
X257159Y700398D01*
X258612Y703904D01*
X261296Y706588D01*
X264802Y708041D01*
X268598Y708041D01*
X272104Y706588D01*
X274788Y703904D01*
X276241Y700398D01*
X276241Y696602D01*
X274788Y693096D01*
X272104Y690412D01*
X268598Y688959D01*
X264802Y688959D01*
G37*
%LPD*%
%LPC*%
G36*
X1026802Y561959D02*
X1026802Y561959D01*
X1023296Y563412D01*
X1020612Y566096D01*
X1019159Y569602D01*
X1019159Y573398D01*
X1020612Y576904D01*
X1023296Y579588D01*
X1026802Y581041D01*
X1030598Y581041D01*
X1034104Y579588D01*
X1036788Y576904D01*
X1038241Y573398D01*
X1038241Y569602D01*
X1036788Y566096D01*
X1034104Y563412D01*
X1030598Y561959D01*
X1026802Y561959D01*
G37*
%LPD*%
%LPC*%
G36*
X264802Y587359D02*
X264802Y587359D01*
X261296Y588812D01*
X258612Y591496D01*
X257159Y595002D01*
X257159Y598798D01*
X258612Y602304D01*
X261296Y604988D01*
X264802Y606441D01*
X268598Y606441D01*
X272104Y604988D01*
X274788Y602304D01*
X276241Y598798D01*
X276241Y595002D01*
X274788Y591496D01*
X272104Y588812D01*
X268598Y587359D01*
X264802Y587359D01*
G37*
%LPD*%
%LPC*%
G36*
X1026802Y587359D02*
X1026802Y587359D01*
X1023296Y588812D01*
X1020612Y591496D01*
X1019159Y595002D01*
X1019159Y598798D01*
X1020612Y602304D01*
X1023296Y604988D01*
X1026802Y606441D01*
X1030598Y606441D01*
X1034104Y604988D01*
X1036788Y602304D01*
X1038241Y598798D01*
X1038241Y595002D01*
X1036788Y591496D01*
X1034104Y588812D01*
X1030598Y587359D01*
X1026802Y587359D01*
G37*
%LPD*%
%LPC*%
G36*
X1026802Y612759D02*
X1026802Y612759D01*
X1023296Y614212D01*
X1020612Y616896D01*
X1019159Y620402D01*
X1019159Y624198D01*
X1020612Y627704D01*
X1023296Y630388D01*
X1026802Y631841D01*
X1030598Y631841D01*
X1034104Y630388D01*
X1036788Y627704D01*
X1038241Y624198D01*
X1038241Y620402D01*
X1036788Y616896D01*
X1034104Y614212D01*
X1030598Y612759D01*
X1026802Y612759D01*
G37*
%LPD*%
%LPC*%
G36*
X1026802Y663559D02*
X1026802Y663559D01*
X1023296Y665012D01*
X1020612Y667696D01*
X1019159Y671202D01*
X1019159Y674998D01*
X1020612Y678504D01*
X1023296Y681188D01*
X1026802Y682641D01*
X1030598Y682641D01*
X1034104Y681188D01*
X1036788Y678504D01*
X1038241Y674998D01*
X1038241Y671202D01*
X1036788Y667696D01*
X1034104Y665012D01*
X1030598Y663559D01*
X1026802Y663559D01*
G37*
%LPD*%
%LPC*%
G36*
X264802Y663559D02*
X264802Y663559D01*
X261296Y665012D01*
X258612Y667696D01*
X257159Y671202D01*
X257159Y674998D01*
X258612Y678504D01*
X261296Y681188D01*
X264802Y682641D01*
X268598Y682641D01*
X272104Y681188D01*
X274788Y678504D01*
X276241Y674998D01*
X276241Y671202D01*
X274788Y667696D01*
X272104Y665012D01*
X268598Y663559D01*
X264802Y663559D01*
G37*
%LPD*%
%LPC*%
G36*
X1090414Y861119D02*
X1090414Y861119D01*
X1087113Y862486D01*
X1084586Y865013D01*
X1083219Y868314D01*
X1083219Y871886D01*
X1084586Y875187D01*
X1087113Y877714D01*
X1090414Y879081D01*
X1093986Y879081D01*
X1097287Y877714D01*
X1099814Y875187D01*
X1101181Y871886D01*
X1101181Y868314D01*
X1099814Y865013D01*
X1097287Y862486D01*
X1093986Y861119D01*
X1090414Y861119D01*
G37*
%LPD*%
%LPC*%
G36*
X1090414Y791119D02*
X1090414Y791119D01*
X1087113Y792486D01*
X1084586Y795013D01*
X1083219Y798314D01*
X1083219Y801886D01*
X1084586Y805187D01*
X1087113Y807714D01*
X1090414Y809081D01*
X1093986Y809081D01*
X1097287Y807714D01*
X1099814Y805187D01*
X1101181Y801886D01*
X1101181Y798314D01*
X1099814Y795013D01*
X1097287Y792486D01*
X1093986Y791119D01*
X1090414Y791119D01*
G37*
%LPD*%
%LPC*%
G36*
X528857Y653496D02*
X528857Y653496D01*
X525636Y654830D01*
X523170Y657296D01*
X521836Y660517D01*
X521836Y664003D01*
X523170Y667224D01*
X525636Y669690D01*
X528857Y671024D01*
X532343Y671024D01*
X535564Y669690D01*
X538030Y667224D01*
X539364Y664003D01*
X539364Y660517D01*
X538030Y657296D01*
X535564Y654830D01*
X532343Y653496D01*
X528857Y653496D01*
G37*
%LPD*%
%LPC*%
G36*
X503457Y653496D02*
X503457Y653496D01*
X500236Y654830D01*
X497770Y657296D01*
X496436Y660517D01*
X496436Y664003D01*
X497770Y667224D01*
X500236Y669690D01*
X503457Y671024D01*
X506943Y671024D01*
X510164Y669690D01*
X512630Y667224D01*
X513964Y664003D01*
X513964Y660517D01*
X512630Y657296D01*
X510164Y654830D01*
X506943Y653496D01*
X503457Y653496D01*
G37*
%LPD*%
%LPC*%
G36*
X757457Y653496D02*
X757457Y653496D01*
X754236Y654830D01*
X751770Y657296D01*
X750436Y660517D01*
X750436Y664003D01*
X751770Y667224D01*
X754236Y669690D01*
X757457Y671024D01*
X760943Y671024D01*
X764164Y669690D01*
X766630Y667224D01*
X767964Y664003D01*
X767964Y660517D01*
X766630Y657296D01*
X764164Y654830D01*
X760943Y653496D01*
X757457Y653496D01*
G37*
%LPD*%
%LPC*%
G36*
X782857Y653496D02*
X782857Y653496D01*
X779636Y654830D01*
X777170Y657296D01*
X775836Y660517D01*
X775836Y664003D01*
X777170Y667224D01*
X779636Y669690D01*
X782857Y671024D01*
X786343Y671024D01*
X789564Y669690D01*
X792030Y667224D01*
X793364Y664003D01*
X793364Y660517D01*
X792030Y657296D01*
X789564Y654830D01*
X786343Y653496D01*
X782857Y653496D01*
G37*
%LPD*%
%LPC*%
G36*
X782857Y805896D02*
X782857Y805896D01*
X779636Y807230D01*
X777170Y809696D01*
X775836Y812917D01*
X775836Y816403D01*
X777170Y819624D01*
X779636Y822090D01*
X782857Y823424D01*
X786343Y823424D01*
X789564Y822090D01*
X792030Y819624D01*
X793364Y816403D01*
X793364Y812917D01*
X792030Y809696D01*
X789564Y807230D01*
X786343Y805896D01*
X782857Y805896D01*
G37*
%LPD*%
%LPC*%
G36*
X757457Y805896D02*
X757457Y805896D01*
X754236Y807230D01*
X751770Y809696D01*
X750436Y812917D01*
X750436Y816403D01*
X751770Y819624D01*
X754236Y822090D01*
X757457Y823424D01*
X760943Y823424D01*
X764164Y822090D01*
X766630Y819624D01*
X767964Y816403D01*
X767964Y812917D01*
X766630Y809696D01*
X764164Y807230D01*
X760943Y805896D01*
X757457Y805896D01*
G37*
%LPD*%
%LPC*%
G36*
X528857Y628096D02*
X528857Y628096D01*
X525636Y629430D01*
X523170Y631896D01*
X521836Y635117D01*
X521836Y638603D01*
X523170Y641824D01*
X525636Y644290D01*
X528857Y645624D01*
X532343Y645624D01*
X535564Y644290D01*
X538030Y641824D01*
X539364Y638603D01*
X539364Y635117D01*
X538030Y631896D01*
X535564Y629430D01*
X532343Y628096D01*
X528857Y628096D01*
G37*
%LPD*%
%LPC*%
G36*
X503457Y628096D02*
X503457Y628096D01*
X500236Y629430D01*
X497770Y631896D01*
X496436Y635117D01*
X496436Y638603D01*
X497770Y641824D01*
X500236Y644290D01*
X503457Y645624D01*
X506943Y645624D01*
X510164Y644290D01*
X512630Y641824D01*
X513964Y638603D01*
X513964Y635117D01*
X512630Y631896D01*
X510164Y629430D01*
X506943Y628096D01*
X503457Y628096D01*
G37*
%LPD*%
%LPC*%
G36*
X782857Y628096D02*
X782857Y628096D01*
X779636Y629430D01*
X777170Y631896D01*
X775836Y635117D01*
X775836Y638603D01*
X777170Y641824D01*
X779636Y644290D01*
X782857Y645624D01*
X786343Y645624D01*
X789564Y644290D01*
X792030Y641824D01*
X793364Y638603D01*
X793364Y635117D01*
X792030Y631896D01*
X789564Y629430D01*
X786343Y628096D01*
X782857Y628096D01*
G37*
%LPD*%
%LPC*%
G36*
X757457Y628096D02*
X757457Y628096D01*
X754236Y629430D01*
X751770Y631896D01*
X750436Y635117D01*
X750436Y638603D01*
X751770Y641824D01*
X754236Y644290D01*
X757457Y645624D01*
X760943Y645624D01*
X764164Y644290D01*
X766630Y641824D01*
X767964Y638603D01*
X767964Y635117D01*
X766630Y631896D01*
X764164Y629430D01*
X760943Y628096D01*
X757457Y628096D01*
G37*
%LPD*%
%LPC*%
G36*
X503457Y678896D02*
X503457Y678896D01*
X500236Y680230D01*
X497770Y682696D01*
X496436Y685917D01*
X496436Y689403D01*
X497770Y692624D01*
X500236Y695090D01*
X503457Y696424D01*
X506943Y696424D01*
X510164Y695090D01*
X512630Y692624D01*
X513964Y689403D01*
X513964Y685917D01*
X512630Y682696D01*
X510164Y680230D01*
X506943Y678896D01*
X503457Y678896D01*
G37*
%LPD*%
%LPC*%
G36*
X757457Y831296D02*
X757457Y831296D01*
X754236Y832630D01*
X751770Y835096D01*
X750436Y838317D01*
X750436Y841803D01*
X751770Y845024D01*
X754236Y847490D01*
X757457Y848824D01*
X760943Y848824D01*
X764164Y847490D01*
X766630Y845024D01*
X767964Y841803D01*
X767964Y838317D01*
X766630Y835096D01*
X764164Y832630D01*
X760943Y831296D01*
X757457Y831296D01*
G37*
%LPD*%
%LPC*%
G36*
X503457Y831296D02*
X503457Y831296D01*
X500236Y832630D01*
X497770Y835096D01*
X496436Y838317D01*
X496436Y841803D01*
X497770Y845024D01*
X500236Y847490D01*
X503457Y848824D01*
X506943Y848824D01*
X510164Y847490D01*
X512630Y845024D01*
X513964Y841803D01*
X513964Y838317D01*
X512630Y835096D01*
X510164Y832630D01*
X506943Y831296D01*
X503457Y831296D01*
G37*
%LPD*%
%LPC*%
G36*
X528857Y805896D02*
X528857Y805896D01*
X525636Y807230D01*
X523170Y809696D01*
X521836Y812917D01*
X521836Y816403D01*
X523170Y819624D01*
X525636Y822090D01*
X528857Y823424D01*
X532343Y823424D01*
X535564Y822090D01*
X538030Y819624D01*
X539364Y816403D01*
X539364Y812917D01*
X538030Y809696D01*
X535564Y807230D01*
X532343Y805896D01*
X528857Y805896D01*
G37*
%LPD*%
%LPC*%
G36*
X782857Y602696D02*
X782857Y602696D01*
X779636Y604030D01*
X777170Y606496D01*
X775836Y609717D01*
X775836Y613203D01*
X777170Y616424D01*
X779636Y618890D01*
X782857Y620224D01*
X786343Y620224D01*
X789564Y618890D01*
X792030Y616424D01*
X793364Y613203D01*
X793364Y609717D01*
X792030Y606496D01*
X789564Y604030D01*
X786343Y602696D01*
X782857Y602696D01*
G37*
%LPD*%
%LPC*%
G36*
X757457Y602696D02*
X757457Y602696D01*
X754236Y604030D01*
X751770Y606496D01*
X750436Y609717D01*
X750436Y613203D01*
X751770Y616424D01*
X754236Y618890D01*
X757457Y620224D01*
X760943Y620224D01*
X764164Y618890D01*
X766630Y616424D01*
X767964Y613203D01*
X767964Y609717D01*
X766630Y606496D01*
X764164Y604030D01*
X760943Y602696D01*
X757457Y602696D01*
G37*
%LPD*%
%LPC*%
G36*
X528857Y602696D02*
X528857Y602696D01*
X525636Y604030D01*
X523170Y606496D01*
X521836Y609717D01*
X521836Y613203D01*
X523170Y616424D01*
X525636Y618890D01*
X528857Y620224D01*
X532343Y620224D01*
X535564Y618890D01*
X538030Y616424D01*
X539364Y613203D01*
X539364Y609717D01*
X538030Y606496D01*
X535564Y604030D01*
X532343Y602696D01*
X528857Y602696D01*
G37*
%LPD*%
%LPC*%
G36*
X503457Y602696D02*
X503457Y602696D01*
X500236Y604030D01*
X497770Y606496D01*
X496436Y609717D01*
X496436Y613203D01*
X497770Y616424D01*
X500236Y618890D01*
X503457Y620224D01*
X506943Y620224D01*
X510164Y618890D01*
X512630Y616424D01*
X513964Y613203D01*
X513964Y609717D01*
X512630Y606496D01*
X510164Y604030D01*
X506943Y602696D01*
X503457Y602696D01*
G37*
%LPD*%
%LPC*%
G36*
X503457Y805896D02*
X503457Y805896D01*
X500236Y807230D01*
X497770Y809696D01*
X496436Y812917D01*
X496436Y816403D01*
X497770Y819624D01*
X500236Y822090D01*
X503457Y823424D01*
X506943Y823424D01*
X510164Y822090D01*
X512630Y819624D01*
X513964Y816403D01*
X513964Y812917D01*
X512630Y809696D01*
X510164Y807230D01*
X506943Y805896D01*
X503457Y805896D01*
G37*
%LPD*%
%LPC*%
G36*
X528857Y780496D02*
X528857Y780496D01*
X525636Y781830D01*
X523170Y784296D01*
X521836Y787517D01*
X521836Y791003D01*
X523170Y794224D01*
X525636Y796690D01*
X528857Y798024D01*
X532343Y798024D01*
X535564Y796690D01*
X538030Y794224D01*
X539364Y791003D01*
X539364Y787517D01*
X538030Y784296D01*
X535564Y781830D01*
X532343Y780496D01*
X528857Y780496D01*
G37*
%LPD*%
%LPC*%
G36*
X528857Y678896D02*
X528857Y678896D01*
X525636Y680230D01*
X523170Y682696D01*
X521836Y685917D01*
X521836Y689403D01*
X523170Y692624D01*
X525636Y695090D01*
X528857Y696424D01*
X532343Y696424D01*
X535564Y695090D01*
X538030Y692624D01*
X539364Y689403D01*
X539364Y685917D01*
X538030Y682696D01*
X535564Y680230D01*
X532343Y678896D01*
X528857Y678896D01*
G37*
%LPD*%
%LPC*%
G36*
X757457Y678896D02*
X757457Y678896D01*
X754236Y680230D01*
X751770Y682696D01*
X750436Y685917D01*
X750436Y689403D01*
X751770Y692624D01*
X754236Y695090D01*
X757457Y696424D01*
X760943Y696424D01*
X764164Y695090D01*
X766630Y692624D01*
X767964Y689403D01*
X767964Y685917D01*
X766630Y682696D01*
X764164Y680230D01*
X760943Y678896D01*
X757457Y678896D01*
G37*
%LPD*%
%LPC*%
G36*
X782857Y577296D02*
X782857Y577296D01*
X779636Y578630D01*
X777170Y581096D01*
X775836Y584317D01*
X775836Y587803D01*
X777170Y591024D01*
X779636Y593490D01*
X782857Y594824D01*
X786343Y594824D01*
X789564Y593490D01*
X792030Y591024D01*
X793364Y587803D01*
X793364Y584317D01*
X792030Y581096D01*
X789564Y578630D01*
X786343Y577296D01*
X782857Y577296D01*
G37*
%LPD*%
%LPC*%
G36*
X528857Y577296D02*
X528857Y577296D01*
X525636Y578630D01*
X523170Y581096D01*
X521836Y584317D01*
X521836Y587803D01*
X523170Y591024D01*
X525636Y593490D01*
X528857Y594824D01*
X532343Y594824D01*
X535564Y593490D01*
X538030Y591024D01*
X539364Y587803D01*
X539364Y584317D01*
X538030Y581096D01*
X535564Y578630D01*
X532343Y577296D01*
X528857Y577296D01*
G37*
%LPD*%
%LPC*%
G36*
X503457Y577296D02*
X503457Y577296D01*
X500236Y578630D01*
X497770Y581096D01*
X496436Y584317D01*
X496436Y587803D01*
X497770Y591024D01*
X500236Y593490D01*
X503457Y594824D01*
X506943Y594824D01*
X510164Y593490D01*
X512630Y591024D01*
X513964Y587803D01*
X513964Y584317D01*
X512630Y581096D01*
X510164Y578630D01*
X506943Y577296D01*
X503457Y577296D01*
G37*
%LPD*%
%LPC*%
G36*
X528857Y856696D02*
X528857Y856696D01*
X525636Y858030D01*
X523170Y860496D01*
X521836Y863717D01*
X521836Y867203D01*
X523170Y870424D01*
X525636Y872890D01*
X528857Y874224D01*
X532343Y874224D01*
X535564Y872890D01*
X538030Y870424D01*
X539364Y867203D01*
X539364Y863717D01*
X538030Y860496D01*
X535564Y858030D01*
X532343Y856696D01*
X528857Y856696D01*
G37*
%LPD*%
%LPC*%
G36*
X503457Y856696D02*
X503457Y856696D01*
X500236Y858030D01*
X497770Y860496D01*
X496436Y863717D01*
X496436Y867203D01*
X497770Y870424D01*
X500236Y872890D01*
X503457Y874224D01*
X506943Y874224D01*
X510164Y872890D01*
X512630Y870424D01*
X513964Y867203D01*
X513964Y863717D01*
X512630Y860496D01*
X510164Y858030D01*
X506943Y856696D01*
X503457Y856696D01*
G37*
%LPD*%
%LPC*%
G36*
X782857Y856696D02*
X782857Y856696D01*
X779636Y858030D01*
X777170Y860496D01*
X775836Y863717D01*
X775836Y867203D01*
X777170Y870424D01*
X779636Y872890D01*
X782857Y874224D01*
X786343Y874224D01*
X789564Y872890D01*
X792030Y870424D01*
X793364Y867203D01*
X793364Y863717D01*
X792030Y860496D01*
X789564Y858030D01*
X786343Y856696D01*
X782857Y856696D01*
G37*
%LPD*%
%LPC*%
G36*
X757457Y856696D02*
X757457Y856696D01*
X754236Y858030D01*
X751770Y860496D01*
X750436Y863717D01*
X750436Y867203D01*
X751770Y870424D01*
X754236Y872890D01*
X757457Y874224D01*
X760943Y874224D01*
X764164Y872890D01*
X766630Y870424D01*
X767964Y867203D01*
X767964Y863717D01*
X766630Y860496D01*
X764164Y858030D01*
X760943Y856696D01*
X757457Y856696D01*
G37*
%LPD*%
%LPC*%
G36*
X782857Y678896D02*
X782857Y678896D01*
X779636Y680230D01*
X777170Y682696D01*
X775836Y685917D01*
X775836Y689403D01*
X777170Y692624D01*
X779636Y695090D01*
X782857Y696424D01*
X786343Y696424D01*
X789564Y695090D01*
X792030Y692624D01*
X793364Y689403D01*
X793364Y685917D01*
X792030Y682696D01*
X789564Y680230D01*
X786343Y678896D01*
X782857Y678896D01*
G37*
%LPD*%
%LPC*%
G36*
X503457Y780496D02*
X503457Y780496D01*
X500236Y781830D01*
X497770Y784296D01*
X496436Y787517D01*
X496436Y791003D01*
X497770Y794224D01*
X500236Y796690D01*
X503457Y798024D01*
X506943Y798024D01*
X510164Y796690D01*
X512630Y794224D01*
X513964Y791003D01*
X513964Y787517D01*
X512630Y784296D01*
X510164Y781830D01*
X506943Y780496D01*
X503457Y780496D01*
G37*
%LPD*%
%LPC*%
G36*
X782857Y551896D02*
X782857Y551896D01*
X779636Y553230D01*
X777170Y555696D01*
X775836Y558917D01*
X775836Y562403D01*
X777170Y565624D01*
X779636Y568090D01*
X782857Y569424D01*
X786343Y569424D01*
X789564Y568090D01*
X792030Y565624D01*
X793364Y562403D01*
X793364Y558917D01*
X792030Y555696D01*
X789564Y553230D01*
X786343Y551896D01*
X782857Y551896D01*
G37*
%LPD*%
%LPC*%
G36*
X757457Y551896D02*
X757457Y551896D01*
X754236Y553230D01*
X751770Y555696D01*
X750436Y558917D01*
X750436Y562403D01*
X751770Y565624D01*
X754236Y568090D01*
X757457Y569424D01*
X760943Y569424D01*
X764164Y568090D01*
X766630Y565624D01*
X767964Y562403D01*
X767964Y558917D01*
X766630Y555696D01*
X764164Y553230D01*
X760943Y551896D01*
X757457Y551896D01*
G37*
%LPD*%
%LPC*%
G36*
X528857Y551896D02*
X528857Y551896D01*
X525636Y553230D01*
X523170Y555696D01*
X521836Y558917D01*
X521836Y562403D01*
X523170Y565624D01*
X525636Y568090D01*
X528857Y569424D01*
X532343Y569424D01*
X535564Y568090D01*
X538030Y565624D01*
X539364Y562403D01*
X539364Y558917D01*
X538030Y555696D01*
X535564Y553230D01*
X532343Y551896D01*
X528857Y551896D01*
G37*
%LPD*%
%LPC*%
G36*
X503457Y551896D02*
X503457Y551896D01*
X500236Y553230D01*
X497770Y555696D01*
X496436Y558917D01*
X496436Y562403D01*
X497770Y565624D01*
X500236Y568090D01*
X503457Y569424D01*
X506943Y569424D01*
X510164Y568090D01*
X512630Y565624D01*
X513964Y562403D01*
X513964Y558917D01*
X512630Y555696D01*
X510164Y553230D01*
X506943Y551896D01*
X503457Y551896D01*
G37*
%LPD*%
%LPC*%
G36*
X782857Y780496D02*
X782857Y780496D01*
X779636Y781830D01*
X777170Y784296D01*
X775836Y787517D01*
X775836Y791003D01*
X777170Y794224D01*
X779636Y796690D01*
X782857Y798024D01*
X786343Y798024D01*
X789564Y796690D01*
X792030Y794224D01*
X793364Y791003D01*
X793364Y787517D01*
X792030Y784296D01*
X789564Y781830D01*
X786343Y780496D01*
X782857Y780496D01*
G37*
%LPD*%
%LPC*%
G36*
X757457Y780496D02*
X757457Y780496D01*
X754236Y781830D01*
X751770Y784296D01*
X750436Y787517D01*
X750436Y791003D01*
X751770Y794224D01*
X754236Y796690D01*
X757457Y798024D01*
X760943Y798024D01*
X764164Y796690D01*
X766630Y794224D01*
X767964Y791003D01*
X767964Y787517D01*
X766630Y784296D01*
X764164Y781830D01*
X760943Y780496D01*
X757457Y780496D01*
G37*
%LPD*%
%LPC*%
G36*
X782857Y526496D02*
X782857Y526496D01*
X779636Y527830D01*
X777170Y530296D01*
X775836Y533517D01*
X775836Y537003D01*
X777170Y540224D01*
X779636Y542690D01*
X782857Y544024D01*
X786343Y544024D01*
X789564Y542690D01*
X792030Y540224D01*
X793364Y537003D01*
X793364Y533517D01*
X792030Y530296D01*
X789564Y527830D01*
X786343Y526496D01*
X782857Y526496D01*
G37*
%LPD*%
%LPC*%
G36*
X757457Y526496D02*
X757457Y526496D01*
X754236Y527830D01*
X751770Y530296D01*
X750436Y533517D01*
X750436Y537003D01*
X751770Y540224D01*
X754236Y542690D01*
X757457Y544024D01*
X760943Y544024D01*
X764164Y542690D01*
X766630Y540224D01*
X767964Y537003D01*
X767964Y533517D01*
X766630Y530296D01*
X764164Y527830D01*
X760943Y526496D01*
X757457Y526496D01*
G37*
%LPD*%
%LPC*%
G36*
X528857Y526496D02*
X528857Y526496D01*
X525636Y527830D01*
X523170Y530296D01*
X521836Y533517D01*
X521836Y537003D01*
X523170Y540224D01*
X525636Y542690D01*
X528857Y544024D01*
X532343Y544024D01*
X535564Y542690D01*
X538030Y540224D01*
X539364Y537003D01*
X539364Y533517D01*
X538030Y530296D01*
X535564Y527830D01*
X532343Y526496D01*
X528857Y526496D01*
G37*
%LPD*%
%LPC*%
G36*
X503457Y526496D02*
X503457Y526496D01*
X500236Y527830D01*
X497770Y530296D01*
X496436Y533517D01*
X496436Y537003D01*
X497770Y540224D01*
X500236Y542690D01*
X503457Y544024D01*
X506943Y544024D01*
X510164Y542690D01*
X512630Y540224D01*
X513964Y537003D01*
X513964Y533517D01*
X512630Y530296D01*
X510164Y527830D01*
X506943Y526496D01*
X503457Y526496D01*
G37*
%LPD*%
%LPC*%
G36*
X528857Y831296D02*
X528857Y831296D01*
X525636Y832630D01*
X523170Y835096D01*
X521836Y838317D01*
X521836Y841803D01*
X523170Y845024D01*
X525636Y847490D01*
X528857Y848824D01*
X532343Y848824D01*
X535564Y847490D01*
X538030Y845024D01*
X539364Y841803D01*
X539364Y838317D01*
X538030Y835096D01*
X535564Y832630D01*
X532343Y831296D01*
X528857Y831296D01*
G37*
%LPD*%
%LPC*%
G36*
X503457Y704296D02*
X503457Y704296D01*
X500236Y705630D01*
X497770Y708096D01*
X496436Y711317D01*
X496436Y714803D01*
X497770Y718024D01*
X500236Y720490D01*
X503457Y721824D01*
X506943Y721824D01*
X510164Y720490D01*
X512630Y718024D01*
X513964Y714803D01*
X513964Y711317D01*
X512630Y708096D01*
X510164Y705630D01*
X506943Y704296D01*
X503457Y704296D01*
G37*
%LPD*%
%LPC*%
G36*
X528857Y501096D02*
X528857Y501096D01*
X525636Y502430D01*
X523170Y504896D01*
X521836Y508117D01*
X521836Y511603D01*
X523170Y514824D01*
X525636Y517290D01*
X528857Y518624D01*
X532343Y518624D01*
X535564Y517290D01*
X538030Y514824D01*
X539364Y511603D01*
X539364Y508117D01*
X538030Y504896D01*
X535564Y502430D01*
X532343Y501096D01*
X528857Y501096D01*
G37*
%LPD*%
%LPC*%
G36*
X503457Y501096D02*
X503457Y501096D01*
X500236Y502430D01*
X497770Y504896D01*
X496436Y508117D01*
X496436Y511603D01*
X497770Y514824D01*
X500236Y517290D01*
X503457Y518624D01*
X506943Y518624D01*
X510164Y517290D01*
X512630Y514824D01*
X513964Y511603D01*
X513964Y508117D01*
X512630Y504896D01*
X510164Y502430D01*
X506943Y501096D01*
X503457Y501096D01*
G37*
%LPD*%
%LPC*%
G36*
X782857Y501096D02*
X782857Y501096D01*
X779636Y502430D01*
X777170Y504896D01*
X775836Y508117D01*
X775836Y511603D01*
X777170Y514824D01*
X779636Y517290D01*
X782857Y518624D01*
X786343Y518624D01*
X789564Y517290D01*
X792030Y514824D01*
X793364Y511603D01*
X793364Y508117D01*
X792030Y504896D01*
X789564Y502430D01*
X786343Y501096D01*
X782857Y501096D01*
G37*
%LPD*%
%LPC*%
G36*
X757457Y501096D02*
X757457Y501096D01*
X754236Y502430D01*
X751770Y504896D01*
X750436Y508117D01*
X750436Y511603D01*
X751770Y514824D01*
X754236Y517290D01*
X757457Y518624D01*
X760943Y518624D01*
X764164Y517290D01*
X766630Y514824D01*
X767964Y511603D01*
X767964Y508117D01*
X766630Y504896D01*
X764164Y502430D01*
X760943Y501096D01*
X757457Y501096D01*
G37*
%LPD*%
%LPC*%
G36*
X757457Y704296D02*
X757457Y704296D01*
X754236Y705630D01*
X751770Y708096D01*
X750436Y711317D01*
X750436Y714803D01*
X751770Y718024D01*
X754236Y720490D01*
X757457Y721824D01*
X760943Y721824D01*
X764164Y720490D01*
X766630Y718024D01*
X767964Y714803D01*
X767964Y711317D01*
X766630Y708096D01*
X764164Y705630D01*
X760943Y704296D01*
X757457Y704296D01*
G37*
%LPD*%
%LPC*%
G36*
X782857Y704296D02*
X782857Y704296D01*
X779636Y705630D01*
X777170Y708096D01*
X775836Y711317D01*
X775836Y714803D01*
X777170Y718024D01*
X779636Y720490D01*
X782857Y721824D01*
X786343Y721824D01*
X789564Y720490D01*
X792030Y718024D01*
X793364Y714803D01*
X793364Y711317D01*
X792030Y708096D01*
X789564Y705630D01*
X786343Y704296D01*
X782857Y704296D01*
G37*
%LPD*%
%LPC*%
G36*
X757457Y475696D02*
X757457Y475696D01*
X754236Y477030D01*
X751770Y479496D01*
X750436Y482717D01*
X750436Y486203D01*
X751770Y489424D01*
X754236Y491890D01*
X757457Y493224D01*
X760943Y493224D01*
X764164Y491890D01*
X766630Y489424D01*
X767964Y486203D01*
X767964Y482717D01*
X766630Y479496D01*
X764164Y477030D01*
X760943Y475696D01*
X757457Y475696D01*
G37*
%LPD*%
%LPC*%
G36*
X528857Y475696D02*
X528857Y475696D01*
X525636Y477030D01*
X523170Y479496D01*
X521836Y482717D01*
X521836Y486203D01*
X523170Y489424D01*
X525636Y491890D01*
X528857Y493224D01*
X532343Y493224D01*
X535564Y491890D01*
X538030Y489424D01*
X539364Y486203D01*
X539364Y482717D01*
X538030Y479496D01*
X535564Y477030D01*
X532343Y475696D01*
X528857Y475696D01*
G37*
%LPD*%
%LPC*%
G36*
X782857Y475696D02*
X782857Y475696D01*
X779636Y477030D01*
X777170Y479496D01*
X775836Y482717D01*
X775836Y486203D01*
X777170Y489424D01*
X779636Y491890D01*
X782857Y493224D01*
X786343Y493224D01*
X789564Y491890D01*
X792030Y489424D01*
X793364Y486203D01*
X793364Y482717D01*
X792030Y479496D01*
X789564Y477030D01*
X786343Y475696D01*
X782857Y475696D01*
G37*
%LPD*%
%LPC*%
G36*
X503457Y475696D02*
X503457Y475696D01*
X500236Y477030D01*
X497770Y479496D01*
X496436Y482717D01*
X496436Y486203D01*
X497770Y489424D01*
X500236Y491890D01*
X503457Y493224D01*
X506943Y493224D01*
X510164Y491890D01*
X512630Y489424D01*
X513964Y486203D01*
X513964Y482717D01*
X512630Y479496D01*
X510164Y477030D01*
X506943Y475696D01*
X503457Y475696D01*
G37*
%LPD*%
%LPC*%
G36*
X503457Y729696D02*
X503457Y729696D01*
X500236Y731030D01*
X497770Y733496D01*
X496436Y736717D01*
X496436Y740203D01*
X497770Y743424D01*
X500236Y745890D01*
X503457Y747224D01*
X506943Y747224D01*
X510164Y745890D01*
X512630Y743424D01*
X513964Y740203D01*
X513964Y736717D01*
X512630Y733496D01*
X510164Y731030D01*
X506943Y729696D01*
X503457Y729696D01*
G37*
%LPD*%
%LPC*%
G36*
X782857Y755096D02*
X782857Y755096D01*
X779636Y756430D01*
X777170Y758896D01*
X775836Y762117D01*
X775836Y765603D01*
X777170Y768824D01*
X779636Y771290D01*
X782857Y772624D01*
X786343Y772624D01*
X789564Y771290D01*
X792030Y768824D01*
X793364Y765603D01*
X793364Y762117D01*
X792030Y758896D01*
X789564Y756430D01*
X786343Y755096D01*
X782857Y755096D01*
G37*
%LPD*%
%LPC*%
G36*
X757457Y755096D02*
X757457Y755096D01*
X754236Y756430D01*
X751770Y758896D01*
X750436Y762117D01*
X750436Y765603D01*
X751770Y768824D01*
X754236Y771290D01*
X757457Y772624D01*
X760943Y772624D01*
X764164Y771290D01*
X766630Y768824D01*
X767964Y765603D01*
X767964Y762117D01*
X766630Y758896D01*
X764164Y756430D01*
X760943Y755096D01*
X757457Y755096D01*
G37*
%LPD*%
%LPC*%
G36*
X782857Y450296D02*
X782857Y450296D01*
X779636Y451630D01*
X777170Y454096D01*
X775836Y457317D01*
X775836Y460803D01*
X777170Y464024D01*
X779636Y466490D01*
X782857Y467824D01*
X786343Y467824D01*
X789564Y466490D01*
X792030Y464024D01*
X793364Y460803D01*
X793364Y457317D01*
X792030Y454096D01*
X789564Y451630D01*
X786343Y450296D01*
X782857Y450296D01*
G37*
%LPD*%
%LPC*%
G36*
X757457Y450296D02*
X757457Y450296D01*
X754236Y451630D01*
X751770Y454096D01*
X750436Y457317D01*
X750436Y460803D01*
X751770Y464024D01*
X754236Y466490D01*
X757457Y467824D01*
X760943Y467824D01*
X764164Y466490D01*
X766630Y464024D01*
X767964Y460803D01*
X767964Y457317D01*
X766630Y454096D01*
X764164Y451630D01*
X760943Y450296D01*
X757457Y450296D01*
G37*
%LPD*%
%LPC*%
G36*
X528857Y450296D02*
X528857Y450296D01*
X525636Y451630D01*
X523170Y454096D01*
X521836Y457317D01*
X521836Y460803D01*
X523170Y464024D01*
X525636Y466490D01*
X528857Y467824D01*
X532343Y467824D01*
X535564Y466490D01*
X538030Y464024D01*
X539364Y460803D01*
X539364Y457317D01*
X538030Y454096D01*
X535564Y451630D01*
X532343Y450296D01*
X528857Y450296D01*
G37*
%LPD*%
%LPC*%
G36*
X503457Y450296D02*
X503457Y450296D01*
X500236Y451630D01*
X497770Y454096D01*
X496436Y457317D01*
X496436Y460803D01*
X497770Y464024D01*
X500236Y466490D01*
X503457Y467824D01*
X506943Y467824D01*
X510164Y466490D01*
X512630Y464024D01*
X513964Y460803D01*
X513964Y457317D01*
X512630Y454096D01*
X510164Y451630D01*
X506943Y450296D01*
X503457Y450296D01*
G37*
%LPD*%
%LPC*%
G36*
X528857Y755096D02*
X528857Y755096D01*
X525636Y756430D01*
X523170Y758896D01*
X521836Y762117D01*
X521836Y765603D01*
X523170Y768824D01*
X525636Y771290D01*
X528857Y772624D01*
X532343Y772624D01*
X535564Y771290D01*
X538030Y768824D01*
X539364Y765603D01*
X539364Y762117D01*
X538030Y758896D01*
X535564Y756430D01*
X532343Y755096D01*
X528857Y755096D01*
G37*
%LPD*%
%LPC*%
G36*
X782857Y831296D02*
X782857Y831296D01*
X779636Y832630D01*
X777170Y835096D01*
X775836Y838317D01*
X775836Y841803D01*
X777170Y845024D01*
X779636Y847490D01*
X782857Y848824D01*
X786343Y848824D01*
X789564Y847490D01*
X792030Y845024D01*
X793364Y841803D01*
X793364Y838317D01*
X792030Y835096D01*
X789564Y832630D01*
X786343Y831296D01*
X782857Y831296D01*
G37*
%LPD*%
%LPC*%
G36*
X528857Y729696D02*
X528857Y729696D01*
X525636Y731030D01*
X523170Y733496D01*
X521836Y736717D01*
X521836Y740203D01*
X523170Y743424D01*
X525636Y745890D01*
X528857Y747224D01*
X532343Y747224D01*
X535564Y745890D01*
X538030Y743424D01*
X539364Y740203D01*
X539364Y736717D01*
X538030Y733496D01*
X535564Y731030D01*
X532343Y729696D01*
X528857Y729696D01*
G37*
%LPD*%
%LPC*%
G36*
X757457Y729696D02*
X757457Y729696D01*
X754236Y731030D01*
X751770Y733496D01*
X750436Y736717D01*
X750436Y740203D01*
X751770Y743424D01*
X754236Y745890D01*
X757457Y747224D01*
X760943Y747224D01*
X764164Y745890D01*
X766630Y743424D01*
X767964Y740203D01*
X767964Y736717D01*
X766630Y733496D01*
X764164Y731030D01*
X760943Y729696D01*
X757457Y729696D01*
G37*
%LPD*%
%LPC*%
G36*
X528857Y424896D02*
X528857Y424896D01*
X525636Y426230D01*
X523170Y428696D01*
X521836Y431917D01*
X521836Y435403D01*
X523170Y438624D01*
X525636Y441090D01*
X528857Y442424D01*
X532343Y442424D01*
X535564Y441090D01*
X538030Y438624D01*
X539364Y435403D01*
X539364Y431917D01*
X538030Y428696D01*
X535564Y426230D01*
X532343Y424896D01*
X528857Y424896D01*
G37*
%LPD*%
%LPC*%
G36*
X503457Y424896D02*
X503457Y424896D01*
X500236Y426230D01*
X497770Y428696D01*
X496436Y431917D01*
X496436Y435403D01*
X497770Y438624D01*
X500236Y441090D01*
X503457Y442424D01*
X506943Y442424D01*
X510164Y441090D01*
X512630Y438624D01*
X513964Y435403D01*
X513964Y431917D01*
X512630Y428696D01*
X510164Y426230D01*
X506943Y424896D01*
X503457Y424896D01*
G37*
%LPD*%
%LPC*%
G36*
X782857Y424896D02*
X782857Y424896D01*
X779636Y426230D01*
X777170Y428696D01*
X775836Y431917D01*
X775836Y435403D01*
X777170Y438624D01*
X779636Y441090D01*
X782857Y442424D01*
X786343Y442424D01*
X789564Y441090D01*
X792030Y438624D01*
X793364Y435403D01*
X793364Y431917D01*
X792030Y428696D01*
X789564Y426230D01*
X786343Y424896D01*
X782857Y424896D01*
G37*
%LPD*%
%LPC*%
G36*
X757457Y424896D02*
X757457Y424896D01*
X754236Y426230D01*
X751770Y428696D01*
X750436Y431917D01*
X750436Y435403D01*
X751770Y438624D01*
X754236Y441090D01*
X757457Y442424D01*
X760943Y442424D01*
X764164Y441090D01*
X766630Y438624D01*
X767964Y435403D01*
X767964Y431917D01*
X766630Y428696D01*
X764164Y426230D01*
X760943Y424896D01*
X757457Y424896D01*
G37*
%LPD*%
%LPC*%
G36*
X782857Y729696D02*
X782857Y729696D01*
X779636Y731030D01*
X777170Y733496D01*
X775836Y736717D01*
X775836Y740203D01*
X777170Y743424D01*
X779636Y745890D01*
X782857Y747224D01*
X786343Y747224D01*
X789564Y745890D01*
X792030Y743424D01*
X793364Y740203D01*
X793364Y736717D01*
X792030Y733496D01*
X789564Y731030D01*
X786343Y729696D01*
X782857Y729696D01*
G37*
%LPD*%
%LPC*%
G36*
X503457Y755096D02*
X503457Y755096D01*
X500236Y756430D01*
X497770Y758896D01*
X496436Y762117D01*
X496436Y765603D01*
X497770Y768824D01*
X500236Y771290D01*
X503457Y772624D01*
X506943Y772624D01*
X510164Y771290D01*
X512630Y768824D01*
X513964Y765603D01*
X513964Y762117D01*
X512630Y758896D01*
X510164Y756430D01*
X506943Y755096D01*
X503457Y755096D01*
G37*
%LPD*%
%LPC*%
G36*
X1154588Y616711D02*
X1154588Y616711D01*
X1152534Y617562D01*
X1150962Y619134D01*
X1150111Y621188D01*
X1150111Y623412D01*
X1150962Y625466D01*
X1152534Y627038D01*
X1154588Y627889D01*
X1156812Y627889D01*
X1158866Y627038D01*
X1160438Y625466D01*
X1161289Y623412D01*
X1161289Y621188D01*
X1160438Y619134D01*
X1158866Y617562D01*
X1156812Y616711D01*
X1154588Y616711D01*
G37*
%LPD*%
%LPC*%
G36*
X1116488Y596391D02*
X1116488Y596391D01*
X1114434Y597242D01*
X1112862Y598814D01*
X1112011Y600868D01*
X1112011Y603092D01*
X1112862Y605146D01*
X1114434Y606718D01*
X1116488Y607569D01*
X1118712Y607569D01*
X1120766Y606718D01*
X1122338Y605146D01*
X1123189Y603092D01*
X1123189Y600868D01*
X1122338Y598814D01*
X1120766Y597242D01*
X1118712Y596391D01*
X1116488Y596391D01*
G37*
%LPD*%
%LPC*%
G36*
X1091088Y271271D02*
X1091088Y271271D01*
X1089034Y272122D01*
X1087462Y273694D01*
X1086611Y275748D01*
X1086611Y277972D01*
X1087462Y280026D01*
X1089034Y281598D01*
X1091088Y282449D01*
X1093312Y282449D01*
X1095366Y281598D01*
X1096938Y280026D01*
X1097789Y277972D01*
X1097789Y275748D01*
X1096938Y273694D01*
X1095366Y272122D01*
X1093312Y271271D01*
X1091088Y271271D01*
G37*
%LPD*%
%LPC*%
G36*
X1154588Y596391D02*
X1154588Y596391D01*
X1152534Y597242D01*
X1150962Y598814D01*
X1150111Y600868D01*
X1150111Y603092D01*
X1150962Y605146D01*
X1152534Y606718D01*
X1154588Y607569D01*
X1156812Y607569D01*
X1158866Y606718D01*
X1160438Y605146D01*
X1161289Y603092D01*
X1161289Y600868D01*
X1160438Y598814D01*
X1158866Y597242D01*
X1156812Y596391D01*
X1154588Y596391D01*
G37*
%LPD*%
%LPC*%
G36*
X1116488Y616711D02*
X1116488Y616711D01*
X1114434Y617562D01*
X1112862Y619134D01*
X1112011Y621188D01*
X1112011Y623412D01*
X1112862Y625466D01*
X1114434Y627038D01*
X1116488Y627889D01*
X1118712Y627889D01*
X1120766Y627038D01*
X1122338Y625466D01*
X1123189Y623412D01*
X1123189Y621188D01*
X1122338Y619134D01*
X1120766Y617562D01*
X1118712Y616711D01*
X1116488Y616711D01*
G37*
%LPD*%
%LPC*%
G36*
X885348Y959611D02*
X885348Y959611D01*
X883294Y960462D01*
X881722Y962034D01*
X880871Y964088D01*
X880871Y966312D01*
X881722Y968366D01*
X883294Y969938D01*
X885348Y970789D01*
X887572Y970789D01*
X889626Y969938D01*
X891198Y968366D01*
X892049Y966312D01*
X892049Y964088D01*
X891198Y962034D01*
X889626Y960462D01*
X887572Y959611D01*
X885348Y959611D01*
G37*
%LPD*%
%LPC*%
G36*
X738028Y959611D02*
X738028Y959611D01*
X735974Y960462D01*
X734402Y962034D01*
X733551Y964088D01*
X733551Y966312D01*
X734402Y968366D01*
X735974Y969938D01*
X738028Y970789D01*
X740252Y970789D01*
X742306Y969938D01*
X743878Y968366D01*
X744729Y966312D01*
X744729Y964088D01*
X743878Y962034D01*
X742306Y960462D01*
X740252Y959611D01*
X738028Y959611D01*
G37*
%LPD*%
%LPC*%
G36*
X590708Y959611D02*
X590708Y959611D01*
X588654Y960462D01*
X587082Y962034D01*
X586231Y964088D01*
X586231Y966312D01*
X587082Y968366D01*
X588654Y969938D01*
X590708Y970789D01*
X592932Y970789D01*
X594986Y969938D01*
X596558Y968366D01*
X597409Y966312D01*
X597409Y964088D01*
X596558Y962034D01*
X594986Y960462D01*
X592932Y959611D01*
X590708Y959611D01*
G37*
%LPD*%
%LPC*%
G36*
X425608Y949451D02*
X425608Y949451D01*
X423554Y950302D01*
X421982Y951874D01*
X421131Y953928D01*
X421131Y956152D01*
X421982Y958206D01*
X423554Y959778D01*
X425608Y960629D01*
X427832Y960629D01*
X429886Y959778D01*
X431458Y958206D01*
X432309Y956152D01*
X432309Y953928D01*
X431458Y951874D01*
X429886Y950302D01*
X427832Y949451D01*
X425608Y949451D01*
G37*
%LPD*%
%LPC*%
G36*
X1154588Y642111D02*
X1154588Y642111D01*
X1152534Y642962D01*
X1150962Y644534D01*
X1150111Y646588D01*
X1150111Y648812D01*
X1150962Y650866D01*
X1152534Y652438D01*
X1154588Y653289D01*
X1156812Y653289D01*
X1158866Y652438D01*
X1160438Y650866D01*
X1161289Y648812D01*
X1161289Y646588D01*
X1160438Y644534D01*
X1158866Y642962D01*
X1156812Y642111D01*
X1154588Y642111D01*
G37*
%LPD*%
%LPC*%
G36*
X1116488Y642111D02*
X1116488Y642111D01*
X1114434Y642962D01*
X1112862Y644534D01*
X1112011Y646588D01*
X1112011Y648812D01*
X1112862Y650866D01*
X1114434Y652438D01*
X1116488Y653289D01*
X1118712Y653289D01*
X1120766Y652438D01*
X1122338Y650866D01*
X1123189Y648812D01*
X1123189Y646588D01*
X1122338Y644534D01*
X1120766Y642962D01*
X1118712Y642111D01*
X1116488Y642111D01*
G37*
%LPD*%
%LPC*%
G36*
X1031199Y472399D02*
X1031199Y472399D01*
X1031199Y479120D01*
X1032362Y478742D01*
X1033701Y478060D01*
X1034915Y477177D01*
X1035977Y476115D01*
X1036860Y474901D01*
X1037542Y473562D01*
X1037920Y472399D01*
X1031199Y472399D01*
G37*
%LPD*%
%LPC*%
G36*
X1019480Y472399D02*
X1019480Y472399D01*
X1019858Y473562D01*
X1020540Y474901D01*
X1021423Y476115D01*
X1022485Y477177D01*
X1023699Y478060D01*
X1025038Y478742D01*
X1026201Y479120D01*
X1026201Y472399D01*
X1019480Y472399D01*
G37*
%LPD*%
%LPC*%
G36*
X1031199Y467401D02*
X1031199Y467401D01*
X1037920Y467401D01*
X1037542Y466238D01*
X1036860Y464899D01*
X1035977Y463685D01*
X1034915Y462623D01*
X1033701Y461740D01*
X1032362Y461058D01*
X1031199Y460680D01*
X1031199Y467401D01*
G37*
%LPD*%
%LPC*%
G36*
X1025038Y461058D02*
X1025038Y461058D01*
X1023699Y461740D01*
X1022485Y462623D01*
X1021423Y463685D01*
X1020540Y464899D01*
X1019858Y466238D01*
X1019480Y467401D01*
X1026201Y467401D01*
X1026201Y460680D01*
X1025038Y461058D01*
G37*
%LPD*%
%LPC*%
G36*
X761422Y588282D02*
X761422Y588282D01*
X761422Y594553D01*
X761756Y594487D01*
X763351Y593826D01*
X764787Y592867D01*
X766007Y591647D01*
X766966Y590211D01*
X767627Y588616D01*
X767693Y588282D01*
X761422Y588282D01*
G37*
%LPD*%
%LPC*%
G36*
X532822Y715282D02*
X532822Y715282D01*
X532822Y721553D01*
X533156Y721487D01*
X534751Y720826D01*
X536187Y719867D01*
X537407Y718647D01*
X538366Y717211D01*
X539027Y715616D01*
X539093Y715282D01*
X532822Y715282D01*
G37*
%LPD*%
%LPC*%
G36*
X750707Y588282D02*
X750707Y588282D01*
X750773Y588616D01*
X751434Y590211D01*
X752393Y591647D01*
X753613Y592867D01*
X755049Y593826D01*
X756644Y594487D01*
X756978Y594553D01*
X756978Y588282D01*
X750707Y588282D01*
G37*
%LPD*%
%LPC*%
G36*
X761422Y583838D02*
X761422Y583838D01*
X767693Y583838D01*
X767627Y583504D01*
X766966Y581909D01*
X766007Y580473D01*
X764787Y579253D01*
X763351Y578294D01*
X761756Y577633D01*
X761422Y577567D01*
X761422Y583838D01*
G37*
%LPD*%
%LPC*%
G36*
X522107Y715282D02*
X522107Y715282D01*
X522173Y715616D01*
X522834Y717211D01*
X523793Y718647D01*
X525013Y719867D01*
X526449Y720826D01*
X528044Y721487D01*
X528378Y721553D01*
X528378Y715282D01*
X522107Y715282D01*
G37*
%LPD*%
%LPC*%
G36*
X532822Y710838D02*
X532822Y710838D01*
X539093Y710838D01*
X539027Y710504D01*
X538366Y708909D01*
X537407Y707473D01*
X536187Y706253D01*
X534751Y705294D01*
X533156Y704633D01*
X532822Y704567D01*
X532822Y710838D01*
G37*
%LPD*%
%LPC*%
G36*
X528044Y704633D02*
X528044Y704633D01*
X526449Y705294D01*
X525013Y706253D01*
X523793Y707473D01*
X522834Y708909D01*
X522173Y710504D01*
X522107Y710838D01*
X528378Y710838D01*
X528378Y704567D01*
X528044Y704633D01*
G37*
%LPD*%
%LPC*%
G36*
X756644Y577633D02*
X756644Y577633D01*
X755049Y578294D01*
X753613Y579253D01*
X752393Y580473D01*
X751434Y581909D01*
X750773Y583504D01*
X750707Y583838D01*
X756978Y583838D01*
X756978Y577567D01*
X756644Y577633D01*
G37*
%LPD*%
D10*
X505200Y865460D03*
X530600Y865460D03*
X505200Y840060D03*
X530600Y840060D03*
X505200Y814660D03*
X530600Y814660D03*
X505200Y789260D03*
X530600Y789260D03*
X505200Y763860D03*
X530600Y763860D03*
X505200Y738460D03*
X530600Y738460D03*
X505200Y713060D03*
X530600Y713060D03*
X505200Y687660D03*
X530600Y687660D03*
X505200Y662260D03*
X530600Y662260D03*
X505200Y636860D03*
X530600Y636860D03*
X505200Y611460D03*
X530600Y611460D03*
X505200Y586060D03*
X530600Y586060D03*
X505200Y560660D03*
X530600Y560660D03*
X505200Y535260D03*
X530600Y535260D03*
X505200Y509860D03*
X530600Y509860D03*
X505200Y484460D03*
X530600Y484460D03*
X505200Y459060D03*
X530600Y459060D03*
X505200Y433660D03*
X530600Y433660D03*
X759200Y865460D03*
X784600Y865460D03*
X759200Y840060D03*
X784600Y840060D03*
X759200Y814660D03*
X784600Y814660D03*
X759200Y789260D03*
X784600Y789260D03*
X759200Y763860D03*
X784600Y763860D03*
X759200Y738460D03*
X784600Y738460D03*
X759200Y713060D03*
X784600Y713060D03*
X759200Y687660D03*
X784600Y687660D03*
X759200Y662260D03*
X784600Y662260D03*
X759200Y636860D03*
X784600Y636860D03*
X759200Y611460D03*
X784600Y611460D03*
X759200Y586060D03*
X784600Y586060D03*
X759200Y560660D03*
X784600Y560660D03*
X759200Y535260D03*
X784600Y535260D03*
X759200Y509860D03*
X784600Y509860D03*
X759200Y484460D03*
X784600Y484460D03*
X759200Y459060D03*
X784600Y459060D03*
X759200Y433660D03*
X784600Y433660D03*
D11*
X1092200Y800100D03*
X1092200Y825100D03*
X1092200Y845100D03*
X1092200Y870100D03*
D12*
X1119300Y769400D03*
X1119300Y900800D03*
D13*
X1142600Y254000D03*
X1117600Y254000D03*
X1092600Y254000D03*
X177400Y254000D03*
X152400Y254000D03*
X127400Y254000D03*
D14*
X938800Y215500D03*
X938800Y165500D03*
X813800Y165500D03*
X813800Y215500D03*
X468900Y215500D03*
X468900Y165500D03*
X343900Y165500D03*
X343900Y215500D03*
D13*
X266700Y419100D03*
X266700Y444500D03*
X266700Y469900D03*
X266700Y495300D03*
X266700Y520700D03*
X266700Y546100D03*
X266700Y571500D03*
X266700Y596900D03*
X266700Y622300D03*
X266700Y647700D03*
X266700Y673100D03*
X266700Y698500D03*
X266700Y723900D03*
X266700Y749300D03*
X266700Y774700D03*
X266700Y800100D03*
X266700Y825500D03*
X266700Y850900D03*
X266700Y876300D03*
X266700Y901700D03*
X1028700Y419100D03*
X1028700Y444500D03*
X1028700Y469900D03*
X1028700Y495300D03*
X1028700Y520700D03*
X1028700Y546100D03*
X1028700Y571500D03*
X1028700Y596900D03*
X1028700Y622300D03*
X1028700Y647700D03*
X1028700Y673100D03*
X1028700Y698500D03*
X1028700Y723900D03*
X1028700Y749300D03*
X1028700Y774700D03*
X1028700Y800100D03*
X1028700Y825500D03*
X1028700Y850900D03*
X1028700Y876300D03*
X1028700Y901700D03*
D15*
X1028700Y374650D03*
X1028700Y946150D03*
X266700Y374650D03*
X266700Y946150D03*
D16*
X1231900Y977900D03*
X1231900Y38100D03*
X38100Y38100D03*
X38100Y965200D03*
D17*
X1117600Y647700D03*
X1117600Y622300D03*
X1117600Y601980D03*
X1155700Y601980D03*
X1155700Y622300D03*
X1155700Y647700D03*
X127000Y269240D03*
X1092200Y276860D03*
X426720Y955040D03*
X591820Y965200D03*
X739140Y965200D03*
X886460Y965200D03*
X904240Y330200D03*
X558800Y226060D03*
M02*
