G04 EAGLE Gerber RS-274X export*
G75*
%MOMM*%
%FSLAX34Y34*%
%LPD*%
%INSoldermask Top*%
%IPPOS*%
%AMOC8*
5,1,8,0,0,1.08239X$1,22.5*%
G01*
%ADD10R,1.676400X1.676400*%
%ADD11P,1.814519X8X292.500000*%
%ADD12R,1.440400X1.440400*%
%ADD13C,1.440400*%
%ADD14C,3.372400*%
%ADD15C,1.552400*%
%ADD16C,2.652400*%
%ADD17C,2.112400*%
%ADD18R,0.762000X0.660400*%
%ADD19R,1.828800X1.828800*%
%ADD20C,1.828800*%
%ADD21C,4.168400*%
%ADD22R,2.152400X4.252400*%
%ADD23C,4.597400*%
%ADD24R,1.102359X1.183641*%
%ADD25C,0.609600*%
%ADD26C,1.168400*%


D10*
X505200Y865460D03*
D11*
X530600Y865460D03*
X505200Y840060D03*
X530600Y840060D03*
X505200Y814660D03*
X530600Y814660D03*
X505200Y789260D03*
X530600Y789260D03*
X505200Y763860D03*
X530600Y763860D03*
X505200Y738460D03*
X530600Y738460D03*
X505200Y713060D03*
X530600Y713060D03*
X505200Y687660D03*
X530600Y687660D03*
X505200Y662260D03*
X530600Y662260D03*
X505200Y636860D03*
X530600Y636860D03*
X505200Y611460D03*
X530600Y611460D03*
X505200Y586060D03*
X530600Y586060D03*
X505200Y560660D03*
X530600Y560660D03*
X505200Y535260D03*
X530600Y535260D03*
X505200Y509860D03*
X530600Y509860D03*
X505200Y484460D03*
X530600Y484460D03*
X505200Y459060D03*
X530600Y459060D03*
X505200Y433660D03*
X530600Y433660D03*
D10*
X759200Y865460D03*
D11*
X784600Y865460D03*
X759200Y840060D03*
X784600Y840060D03*
X759200Y814660D03*
X784600Y814660D03*
X759200Y789260D03*
X784600Y789260D03*
X759200Y763860D03*
X784600Y763860D03*
X759200Y738460D03*
X784600Y738460D03*
X759200Y713060D03*
X784600Y713060D03*
X759200Y687660D03*
X784600Y687660D03*
X759200Y662260D03*
X784600Y662260D03*
X759200Y636860D03*
X784600Y636860D03*
X759200Y611460D03*
X784600Y611460D03*
X759200Y586060D03*
X784600Y586060D03*
X759200Y560660D03*
X784600Y560660D03*
X759200Y535260D03*
X784600Y535260D03*
X759200Y509860D03*
X784600Y509860D03*
X759200Y484460D03*
X784600Y484460D03*
X759200Y459060D03*
X784600Y459060D03*
X759200Y433660D03*
X784600Y433660D03*
D12*
X1092200Y800100D03*
D13*
X1092200Y825100D03*
X1092200Y845100D03*
X1092200Y870100D03*
D14*
X1119300Y769400D03*
X1119300Y900800D03*
D15*
X1142600Y254000D03*
X1117600Y254000D03*
X1092600Y254000D03*
D16*
X1167600Y184000D03*
X1067600Y184000D03*
D15*
X177400Y254000D03*
X152400Y254000D03*
X127400Y254000D03*
D16*
X202400Y184000D03*
X102400Y184000D03*
D17*
X938800Y215500D03*
X938800Y165500D03*
X813800Y165500D03*
X813800Y215500D03*
X468900Y215500D03*
X468900Y165500D03*
X343900Y165500D03*
X343900Y215500D03*
D18*
X883412Y330200D03*
X894588Y330200D03*
D19*
X266700Y419100D03*
D20*
X266700Y444500D03*
X266700Y469900D03*
X266700Y495300D03*
X266700Y520700D03*
X266700Y546100D03*
X266700Y571500D03*
X266700Y596900D03*
X266700Y622300D03*
X266700Y647700D03*
X266700Y673100D03*
X266700Y698500D03*
X266700Y723900D03*
X266700Y749300D03*
X266700Y774700D03*
X266700Y800100D03*
X266700Y825500D03*
X266700Y850900D03*
X266700Y876300D03*
X266700Y901700D03*
D19*
X1028700Y419100D03*
D20*
X1028700Y444500D03*
X1028700Y469900D03*
X1028700Y495300D03*
X1028700Y520700D03*
X1028700Y546100D03*
X1028700Y571500D03*
X1028700Y596900D03*
X1028700Y622300D03*
X1028700Y647700D03*
X1028700Y673100D03*
X1028700Y698500D03*
X1028700Y723900D03*
X1028700Y749300D03*
X1028700Y774700D03*
X1028700Y800100D03*
X1028700Y825500D03*
X1028700Y850900D03*
X1028700Y876300D03*
X1028700Y901700D03*
D21*
X1028700Y374650D03*
X1028700Y946150D03*
X266700Y374650D03*
X266700Y946150D03*
D22*
X1136650Y710250D03*
X1136650Y623250D03*
D23*
X1231900Y977900D03*
X1231900Y38100D03*
X38100Y38100D03*
X38100Y965200D03*
D24*
X436499Y965200D03*
X452501Y965200D03*
D25*
X30480Y927100D02*
X30482Y927287D01*
X30489Y927474D01*
X30501Y927661D01*
X30517Y927847D01*
X30537Y928033D01*
X30562Y928218D01*
X30592Y928403D01*
X30626Y928587D01*
X30665Y928770D01*
X30708Y928952D01*
X30756Y929132D01*
X30808Y929312D01*
X30865Y929490D01*
X30925Y929667D01*
X30991Y929842D01*
X31060Y930016D01*
X31134Y930188D01*
X31212Y930358D01*
X31294Y930526D01*
X31380Y930692D01*
X31470Y930856D01*
X31564Y931017D01*
X31662Y931177D01*
X31764Y931333D01*
X31870Y931488D01*
X31980Y931639D01*
X32093Y931788D01*
X32210Y931934D01*
X32330Y932077D01*
X32454Y932217D01*
X32581Y932354D01*
X32712Y932488D01*
X32846Y932619D01*
X32983Y932746D01*
X33123Y932870D01*
X33266Y932990D01*
X33412Y933107D01*
X33561Y933220D01*
X33712Y933330D01*
X33867Y933436D01*
X34023Y933538D01*
X34183Y933636D01*
X34344Y933730D01*
X34508Y933820D01*
X34674Y933906D01*
X34842Y933988D01*
X35012Y934066D01*
X35184Y934140D01*
X35358Y934209D01*
X35533Y934275D01*
X35710Y934335D01*
X35888Y934392D01*
X36068Y934444D01*
X36248Y934492D01*
X36430Y934535D01*
X36613Y934574D01*
X36797Y934608D01*
X36982Y934638D01*
X37167Y934663D01*
X37353Y934683D01*
X37539Y934699D01*
X37726Y934711D01*
X37913Y934718D01*
X38100Y934720D01*
X38287Y934718D01*
X38474Y934711D01*
X38661Y934699D01*
X38847Y934683D01*
X39033Y934663D01*
X39218Y934638D01*
X39403Y934608D01*
X39587Y934574D01*
X39770Y934535D01*
X39952Y934492D01*
X40132Y934444D01*
X40312Y934392D01*
X40490Y934335D01*
X40667Y934275D01*
X40842Y934209D01*
X41016Y934140D01*
X41188Y934066D01*
X41358Y933988D01*
X41526Y933906D01*
X41692Y933820D01*
X41856Y933730D01*
X42017Y933636D01*
X42177Y933538D01*
X42333Y933436D01*
X42488Y933330D01*
X42639Y933220D01*
X42788Y933107D01*
X42934Y932990D01*
X43077Y932870D01*
X43217Y932746D01*
X43354Y932619D01*
X43488Y932488D01*
X43619Y932354D01*
X43746Y932217D01*
X43870Y932077D01*
X43990Y931934D01*
X44107Y931788D01*
X44220Y931639D01*
X44330Y931488D01*
X44436Y931333D01*
X44538Y931177D01*
X44636Y931017D01*
X44730Y930856D01*
X44820Y930692D01*
X44906Y930526D01*
X44988Y930358D01*
X45066Y930188D01*
X45140Y930016D01*
X45209Y929842D01*
X45275Y929667D01*
X45335Y929490D01*
X45392Y929312D01*
X45444Y929132D01*
X45492Y928952D01*
X45535Y928770D01*
X45574Y928587D01*
X45608Y928403D01*
X45638Y928218D01*
X45663Y928033D01*
X45683Y927847D01*
X45699Y927661D01*
X45711Y927474D01*
X45718Y927287D01*
X45720Y927100D01*
X45718Y926913D01*
X45711Y926726D01*
X45699Y926539D01*
X45683Y926353D01*
X45663Y926167D01*
X45638Y925982D01*
X45608Y925797D01*
X45574Y925613D01*
X45535Y925430D01*
X45492Y925248D01*
X45444Y925068D01*
X45392Y924888D01*
X45335Y924710D01*
X45275Y924533D01*
X45209Y924358D01*
X45140Y924184D01*
X45066Y924012D01*
X44988Y923842D01*
X44906Y923674D01*
X44820Y923508D01*
X44730Y923344D01*
X44636Y923183D01*
X44538Y923023D01*
X44436Y922867D01*
X44330Y922712D01*
X44220Y922561D01*
X44107Y922412D01*
X43990Y922266D01*
X43870Y922123D01*
X43746Y921983D01*
X43619Y921846D01*
X43488Y921712D01*
X43354Y921581D01*
X43217Y921454D01*
X43077Y921330D01*
X42934Y921210D01*
X42788Y921093D01*
X42639Y920980D01*
X42488Y920870D01*
X42333Y920764D01*
X42177Y920662D01*
X42017Y920564D01*
X41856Y920470D01*
X41692Y920380D01*
X41526Y920294D01*
X41358Y920212D01*
X41188Y920134D01*
X41016Y920060D01*
X40842Y919991D01*
X40667Y919925D01*
X40490Y919865D01*
X40312Y919808D01*
X40132Y919756D01*
X39952Y919708D01*
X39770Y919665D01*
X39587Y919626D01*
X39403Y919592D01*
X39218Y919562D01*
X39033Y919537D01*
X38847Y919517D01*
X38661Y919501D01*
X38474Y919489D01*
X38287Y919482D01*
X38100Y919480D01*
X37913Y919482D01*
X37726Y919489D01*
X37539Y919501D01*
X37353Y919517D01*
X37167Y919537D01*
X36982Y919562D01*
X36797Y919592D01*
X36613Y919626D01*
X36430Y919665D01*
X36248Y919708D01*
X36068Y919756D01*
X35888Y919808D01*
X35710Y919865D01*
X35533Y919925D01*
X35358Y919991D01*
X35184Y920060D01*
X35012Y920134D01*
X34842Y920212D01*
X34674Y920294D01*
X34508Y920380D01*
X34344Y920470D01*
X34183Y920564D01*
X34023Y920662D01*
X33867Y920764D01*
X33712Y920870D01*
X33561Y920980D01*
X33412Y921093D01*
X33266Y921210D01*
X33123Y921330D01*
X32983Y921454D01*
X32846Y921581D01*
X32712Y921712D01*
X32581Y921846D01*
X32454Y921983D01*
X32330Y922123D01*
X32210Y922266D01*
X32093Y922412D01*
X31980Y922561D01*
X31870Y922712D01*
X31764Y922867D01*
X31662Y923023D01*
X31564Y923183D01*
X31470Y923344D01*
X31380Y923508D01*
X31294Y923674D01*
X31212Y923842D01*
X31134Y924012D01*
X31060Y924184D01*
X30991Y924358D01*
X30925Y924533D01*
X30865Y924710D01*
X30808Y924888D01*
X30756Y925068D01*
X30708Y925248D01*
X30665Y925430D01*
X30626Y925613D01*
X30592Y925797D01*
X30562Y925982D01*
X30537Y926167D01*
X30517Y926353D01*
X30501Y926539D01*
X30489Y926726D01*
X30482Y926913D01*
X30480Y927100D01*
D26*
X38100Y927100D03*
D25*
X1224280Y914400D02*
X1224282Y914587D01*
X1224289Y914774D01*
X1224301Y914961D01*
X1224317Y915147D01*
X1224337Y915333D01*
X1224362Y915518D01*
X1224392Y915703D01*
X1224426Y915887D01*
X1224465Y916070D01*
X1224508Y916252D01*
X1224556Y916432D01*
X1224608Y916612D01*
X1224665Y916790D01*
X1224725Y916967D01*
X1224791Y917142D01*
X1224860Y917316D01*
X1224934Y917488D01*
X1225012Y917658D01*
X1225094Y917826D01*
X1225180Y917992D01*
X1225270Y918156D01*
X1225364Y918317D01*
X1225462Y918477D01*
X1225564Y918633D01*
X1225670Y918788D01*
X1225780Y918939D01*
X1225893Y919088D01*
X1226010Y919234D01*
X1226130Y919377D01*
X1226254Y919517D01*
X1226381Y919654D01*
X1226512Y919788D01*
X1226646Y919919D01*
X1226783Y920046D01*
X1226923Y920170D01*
X1227066Y920290D01*
X1227212Y920407D01*
X1227361Y920520D01*
X1227512Y920630D01*
X1227667Y920736D01*
X1227823Y920838D01*
X1227983Y920936D01*
X1228144Y921030D01*
X1228308Y921120D01*
X1228474Y921206D01*
X1228642Y921288D01*
X1228812Y921366D01*
X1228984Y921440D01*
X1229158Y921509D01*
X1229333Y921575D01*
X1229510Y921635D01*
X1229688Y921692D01*
X1229868Y921744D01*
X1230048Y921792D01*
X1230230Y921835D01*
X1230413Y921874D01*
X1230597Y921908D01*
X1230782Y921938D01*
X1230967Y921963D01*
X1231153Y921983D01*
X1231339Y921999D01*
X1231526Y922011D01*
X1231713Y922018D01*
X1231900Y922020D01*
X1232087Y922018D01*
X1232274Y922011D01*
X1232461Y921999D01*
X1232647Y921983D01*
X1232833Y921963D01*
X1233018Y921938D01*
X1233203Y921908D01*
X1233387Y921874D01*
X1233570Y921835D01*
X1233752Y921792D01*
X1233932Y921744D01*
X1234112Y921692D01*
X1234290Y921635D01*
X1234467Y921575D01*
X1234642Y921509D01*
X1234816Y921440D01*
X1234988Y921366D01*
X1235158Y921288D01*
X1235326Y921206D01*
X1235492Y921120D01*
X1235656Y921030D01*
X1235817Y920936D01*
X1235977Y920838D01*
X1236133Y920736D01*
X1236288Y920630D01*
X1236439Y920520D01*
X1236588Y920407D01*
X1236734Y920290D01*
X1236877Y920170D01*
X1237017Y920046D01*
X1237154Y919919D01*
X1237288Y919788D01*
X1237419Y919654D01*
X1237546Y919517D01*
X1237670Y919377D01*
X1237790Y919234D01*
X1237907Y919088D01*
X1238020Y918939D01*
X1238130Y918788D01*
X1238236Y918633D01*
X1238338Y918477D01*
X1238436Y918317D01*
X1238530Y918156D01*
X1238620Y917992D01*
X1238706Y917826D01*
X1238788Y917658D01*
X1238866Y917488D01*
X1238940Y917316D01*
X1239009Y917142D01*
X1239075Y916967D01*
X1239135Y916790D01*
X1239192Y916612D01*
X1239244Y916432D01*
X1239292Y916252D01*
X1239335Y916070D01*
X1239374Y915887D01*
X1239408Y915703D01*
X1239438Y915518D01*
X1239463Y915333D01*
X1239483Y915147D01*
X1239499Y914961D01*
X1239511Y914774D01*
X1239518Y914587D01*
X1239520Y914400D01*
X1239518Y914213D01*
X1239511Y914026D01*
X1239499Y913839D01*
X1239483Y913653D01*
X1239463Y913467D01*
X1239438Y913282D01*
X1239408Y913097D01*
X1239374Y912913D01*
X1239335Y912730D01*
X1239292Y912548D01*
X1239244Y912368D01*
X1239192Y912188D01*
X1239135Y912010D01*
X1239075Y911833D01*
X1239009Y911658D01*
X1238940Y911484D01*
X1238866Y911312D01*
X1238788Y911142D01*
X1238706Y910974D01*
X1238620Y910808D01*
X1238530Y910644D01*
X1238436Y910483D01*
X1238338Y910323D01*
X1238236Y910167D01*
X1238130Y910012D01*
X1238020Y909861D01*
X1237907Y909712D01*
X1237790Y909566D01*
X1237670Y909423D01*
X1237546Y909283D01*
X1237419Y909146D01*
X1237288Y909012D01*
X1237154Y908881D01*
X1237017Y908754D01*
X1236877Y908630D01*
X1236734Y908510D01*
X1236588Y908393D01*
X1236439Y908280D01*
X1236288Y908170D01*
X1236133Y908064D01*
X1235977Y907962D01*
X1235817Y907864D01*
X1235656Y907770D01*
X1235492Y907680D01*
X1235326Y907594D01*
X1235158Y907512D01*
X1234988Y907434D01*
X1234816Y907360D01*
X1234642Y907291D01*
X1234467Y907225D01*
X1234290Y907165D01*
X1234112Y907108D01*
X1233932Y907056D01*
X1233752Y907008D01*
X1233570Y906965D01*
X1233387Y906926D01*
X1233203Y906892D01*
X1233018Y906862D01*
X1232833Y906837D01*
X1232647Y906817D01*
X1232461Y906801D01*
X1232274Y906789D01*
X1232087Y906782D01*
X1231900Y906780D01*
X1231713Y906782D01*
X1231526Y906789D01*
X1231339Y906801D01*
X1231153Y906817D01*
X1230967Y906837D01*
X1230782Y906862D01*
X1230597Y906892D01*
X1230413Y906926D01*
X1230230Y906965D01*
X1230048Y907008D01*
X1229868Y907056D01*
X1229688Y907108D01*
X1229510Y907165D01*
X1229333Y907225D01*
X1229158Y907291D01*
X1228984Y907360D01*
X1228812Y907434D01*
X1228642Y907512D01*
X1228474Y907594D01*
X1228308Y907680D01*
X1228144Y907770D01*
X1227983Y907864D01*
X1227823Y907962D01*
X1227667Y908064D01*
X1227512Y908170D01*
X1227361Y908280D01*
X1227212Y908393D01*
X1227066Y908510D01*
X1226923Y908630D01*
X1226783Y908754D01*
X1226646Y908881D01*
X1226512Y909012D01*
X1226381Y909146D01*
X1226254Y909283D01*
X1226130Y909423D01*
X1226010Y909566D01*
X1225893Y909712D01*
X1225780Y909861D01*
X1225670Y910012D01*
X1225564Y910167D01*
X1225462Y910323D01*
X1225364Y910483D01*
X1225270Y910644D01*
X1225180Y910808D01*
X1225094Y910974D01*
X1225012Y911142D01*
X1224934Y911312D01*
X1224860Y911484D01*
X1224791Y911658D01*
X1224725Y911833D01*
X1224665Y912010D01*
X1224608Y912188D01*
X1224556Y912368D01*
X1224508Y912548D01*
X1224465Y912730D01*
X1224426Y912913D01*
X1224392Y913097D01*
X1224362Y913282D01*
X1224337Y913467D01*
X1224317Y913653D01*
X1224301Y913839D01*
X1224289Y914026D01*
X1224282Y914213D01*
X1224280Y914400D01*
D26*
X1231900Y914400D03*
D25*
X1198880Y101600D02*
X1198882Y101787D01*
X1198889Y101974D01*
X1198901Y102161D01*
X1198917Y102347D01*
X1198937Y102533D01*
X1198962Y102718D01*
X1198992Y102903D01*
X1199026Y103087D01*
X1199065Y103270D01*
X1199108Y103452D01*
X1199156Y103632D01*
X1199208Y103812D01*
X1199265Y103990D01*
X1199325Y104167D01*
X1199391Y104342D01*
X1199460Y104516D01*
X1199534Y104688D01*
X1199612Y104858D01*
X1199694Y105026D01*
X1199780Y105192D01*
X1199870Y105356D01*
X1199964Y105517D01*
X1200062Y105677D01*
X1200164Y105833D01*
X1200270Y105988D01*
X1200380Y106139D01*
X1200493Y106288D01*
X1200610Y106434D01*
X1200730Y106577D01*
X1200854Y106717D01*
X1200981Y106854D01*
X1201112Y106988D01*
X1201246Y107119D01*
X1201383Y107246D01*
X1201523Y107370D01*
X1201666Y107490D01*
X1201812Y107607D01*
X1201961Y107720D01*
X1202112Y107830D01*
X1202267Y107936D01*
X1202423Y108038D01*
X1202583Y108136D01*
X1202744Y108230D01*
X1202908Y108320D01*
X1203074Y108406D01*
X1203242Y108488D01*
X1203412Y108566D01*
X1203584Y108640D01*
X1203758Y108709D01*
X1203933Y108775D01*
X1204110Y108835D01*
X1204288Y108892D01*
X1204468Y108944D01*
X1204648Y108992D01*
X1204830Y109035D01*
X1205013Y109074D01*
X1205197Y109108D01*
X1205382Y109138D01*
X1205567Y109163D01*
X1205753Y109183D01*
X1205939Y109199D01*
X1206126Y109211D01*
X1206313Y109218D01*
X1206500Y109220D01*
X1206687Y109218D01*
X1206874Y109211D01*
X1207061Y109199D01*
X1207247Y109183D01*
X1207433Y109163D01*
X1207618Y109138D01*
X1207803Y109108D01*
X1207987Y109074D01*
X1208170Y109035D01*
X1208352Y108992D01*
X1208532Y108944D01*
X1208712Y108892D01*
X1208890Y108835D01*
X1209067Y108775D01*
X1209242Y108709D01*
X1209416Y108640D01*
X1209588Y108566D01*
X1209758Y108488D01*
X1209926Y108406D01*
X1210092Y108320D01*
X1210256Y108230D01*
X1210417Y108136D01*
X1210577Y108038D01*
X1210733Y107936D01*
X1210888Y107830D01*
X1211039Y107720D01*
X1211188Y107607D01*
X1211334Y107490D01*
X1211477Y107370D01*
X1211617Y107246D01*
X1211754Y107119D01*
X1211888Y106988D01*
X1212019Y106854D01*
X1212146Y106717D01*
X1212270Y106577D01*
X1212390Y106434D01*
X1212507Y106288D01*
X1212620Y106139D01*
X1212730Y105988D01*
X1212836Y105833D01*
X1212938Y105677D01*
X1213036Y105517D01*
X1213130Y105356D01*
X1213220Y105192D01*
X1213306Y105026D01*
X1213388Y104858D01*
X1213466Y104688D01*
X1213540Y104516D01*
X1213609Y104342D01*
X1213675Y104167D01*
X1213735Y103990D01*
X1213792Y103812D01*
X1213844Y103632D01*
X1213892Y103452D01*
X1213935Y103270D01*
X1213974Y103087D01*
X1214008Y102903D01*
X1214038Y102718D01*
X1214063Y102533D01*
X1214083Y102347D01*
X1214099Y102161D01*
X1214111Y101974D01*
X1214118Y101787D01*
X1214120Y101600D01*
X1214118Y101413D01*
X1214111Y101226D01*
X1214099Y101039D01*
X1214083Y100853D01*
X1214063Y100667D01*
X1214038Y100482D01*
X1214008Y100297D01*
X1213974Y100113D01*
X1213935Y99930D01*
X1213892Y99748D01*
X1213844Y99568D01*
X1213792Y99388D01*
X1213735Y99210D01*
X1213675Y99033D01*
X1213609Y98858D01*
X1213540Y98684D01*
X1213466Y98512D01*
X1213388Y98342D01*
X1213306Y98174D01*
X1213220Y98008D01*
X1213130Y97844D01*
X1213036Y97683D01*
X1212938Y97523D01*
X1212836Y97367D01*
X1212730Y97212D01*
X1212620Y97061D01*
X1212507Y96912D01*
X1212390Y96766D01*
X1212270Y96623D01*
X1212146Y96483D01*
X1212019Y96346D01*
X1211888Y96212D01*
X1211754Y96081D01*
X1211617Y95954D01*
X1211477Y95830D01*
X1211334Y95710D01*
X1211188Y95593D01*
X1211039Y95480D01*
X1210888Y95370D01*
X1210733Y95264D01*
X1210577Y95162D01*
X1210417Y95064D01*
X1210256Y94970D01*
X1210092Y94880D01*
X1209926Y94794D01*
X1209758Y94712D01*
X1209588Y94634D01*
X1209416Y94560D01*
X1209242Y94491D01*
X1209067Y94425D01*
X1208890Y94365D01*
X1208712Y94308D01*
X1208532Y94256D01*
X1208352Y94208D01*
X1208170Y94165D01*
X1207987Y94126D01*
X1207803Y94092D01*
X1207618Y94062D01*
X1207433Y94037D01*
X1207247Y94017D01*
X1207061Y94001D01*
X1206874Y93989D01*
X1206687Y93982D01*
X1206500Y93980D01*
X1206313Y93982D01*
X1206126Y93989D01*
X1205939Y94001D01*
X1205753Y94017D01*
X1205567Y94037D01*
X1205382Y94062D01*
X1205197Y94092D01*
X1205013Y94126D01*
X1204830Y94165D01*
X1204648Y94208D01*
X1204468Y94256D01*
X1204288Y94308D01*
X1204110Y94365D01*
X1203933Y94425D01*
X1203758Y94491D01*
X1203584Y94560D01*
X1203412Y94634D01*
X1203242Y94712D01*
X1203074Y94794D01*
X1202908Y94880D01*
X1202744Y94970D01*
X1202583Y95064D01*
X1202423Y95162D01*
X1202267Y95264D01*
X1202112Y95370D01*
X1201961Y95480D01*
X1201812Y95593D01*
X1201666Y95710D01*
X1201523Y95830D01*
X1201383Y95954D01*
X1201246Y96081D01*
X1201112Y96212D01*
X1200981Y96346D01*
X1200854Y96483D01*
X1200730Y96623D01*
X1200610Y96766D01*
X1200493Y96912D01*
X1200380Y97061D01*
X1200270Y97212D01*
X1200164Y97367D01*
X1200062Y97523D01*
X1199964Y97683D01*
X1199870Y97844D01*
X1199780Y98008D01*
X1199694Y98174D01*
X1199612Y98342D01*
X1199534Y98512D01*
X1199460Y98684D01*
X1199391Y98858D01*
X1199325Y99033D01*
X1199265Y99210D01*
X1199208Y99388D01*
X1199156Y99568D01*
X1199108Y99748D01*
X1199065Y99930D01*
X1199026Y100113D01*
X1198992Y100297D01*
X1198962Y100482D01*
X1198937Y100667D01*
X1198917Y100853D01*
X1198901Y101039D01*
X1198889Y101226D01*
X1198882Y101413D01*
X1198880Y101600D01*
D26*
X1206500Y101600D03*
M02*
